<svg width="70" height="70" viewBox="0 0 70 70" fill="none" xmlns="http://www.w3.org/2000/svg">
<g filter="url(#filter0_d_1327_196973)">
<path d="M7 33C7 17.536 19.536 5 35 5V5C50.464 5 63 17.536 63 33V33C63 48.464 50.464 61 35 61V61C19.536 61 7 48.464 7 33V33Z" fill="#FCD34D"/>
<mask id="mask0_1327_196973" style="mask-type:alpha" maskUnits="userSpaceOnUse" x="26" y="24" width="18" height="18">
<path d="M41.9997 34.1663H36.1663V39.9997C36.1663 40.6413 35.6413 41.1663 34.9997 41.1663C34.358 41.1663 33.833 40.6413 33.833 39.9997V34.1663H27.9997C27.358 34.1663 26.833 33.6413 26.833 32.9997C26.833 32.358 27.358 31.833 27.9997 31.833H33.833V25.9997C33.833 25.358 34.358 24.833 34.9997 24.833C35.6413 24.833 36.1663 25.358 36.1663 25.9997V31.833H41.9997C42.6413 31.833 43.1663 32.358 43.1663 32.9997C43.1663 33.6413 42.6413 34.1663 41.9997 34.1663Z" fill="black"/>
</mask>
<g mask="url(#mask0_1327_196973)">
<rect x="21" y="19" width="28" height="28" fill="#262A35"/>
</g>
</g>
<defs>
<filter id="filter0_d_1327_196973" x="0" y="0" width="70" height="70" filterUnits="userSpaceOnUse" color-interpolation-filters="sRGB">
<feFlood flood-opacity="0" result="BackgroundImageFix"/>
<feColorMatrix in="SourceAlpha" type="matrix" values="0 0 0 0 0 0 0 0 0 0 0 0 0 0 0 0 0 0 127 0" result="hardAlpha"/>
<feOffset dy="2"/>
<feGaussianBlur stdDeviation="3.5"/>
<feColorMatrix type="matrix" values="0 0 0 0 0 0 0 0 0 0 0 0 0 0 0 0 0 0 0.24 0"/>
<feBlend mode="normal" in2="BackgroundImageFix" result="effect1_dropShadow_1327_196973"/>
<feBlend mode="normal" in="SourceGraphic" in2="effect1_dropShadow_1327_196973" result="shape"/>
</filter>
</defs>
</svg>
