<svg width="16" height="16" viewBox="0 0 16 16" fill="none" xmlns="http://www.w3.org/2000/svg">
    <path d="M13.4997 13.9997C13.4341 13.9998 13.369 13.987 13.3084 13.9618C13.2477 13.9366 13.1926 13.8997 13.1463 13.8532L2.1463 2.85317C2.05649 2.75864 2.00716 2.63277 2.00883 2.50239C2.0105 2.37201 2.06303 2.24744 2.15524 2.15524C2.24744 2.06303 2.37201 2.0105 2.50239 2.00883C2.63277 2.00716 2.75864 2.05649 2.85317 2.1463L13.8532 13.1463C13.9231 13.2162 13.9706 13.3053 13.9899 13.4023C14.0092 13.4992 13.9993 13.5997 13.9615 13.6911C13.9236 13.7824 13.8596 13.8605 13.7774 13.9154C13.6952 13.9703 13.5986 13.9997 13.4997 13.9997V13.9997Z" fill="#94A3B8"/>
    <path d="M7.75034 9.86996L6.1319 8.25152C6.12263 8.24232 6.1107 8.23626 6.09781 8.23419C6.08491 8.23212 6.07169 8.23414 6.06001 8.23996C6.04832 8.24579 6.03875 8.25513 6.03264 8.26668C6.02654 8.27822 6.0242 8.29139 6.02596 8.30433C6.0913 8.72422 6.28845 9.11245 6.58893 9.41293C6.88941 9.7134 7.27764 9.91056 7.69753 9.9759C7.71047 9.97766 7.72363 9.97532 7.73518 9.96922C7.74673 9.96311 7.75607 9.95354 7.76189 9.94185C7.76772 9.93016 7.76974 9.91694 7.76767 9.90405C7.7656 9.89115 7.75953 9.87923 7.75034 9.86996Z" fill="#94A3B8"/>
    <path d="M8.24973 6.13011L9.87067 7.75042C9.87992 7.75974 9.89187 7.76592 9.90483 7.76806C9.91779 7.77021 9.93109 7.76822 9.94286 7.76237C9.95462 7.75652 9.96424 7.74712 9.97036 7.73549C9.97647 7.72387 9.97876 7.71061 9.97692 7.69761C9.91174 7.27715 9.71445 6.88835 9.41359 6.58749C9.11273 6.28664 8.72393 6.08934 8.30348 6.02417C8.29046 6.02216 8.27713 6.02432 8.26541 6.03033C8.25369 6.03635 8.24417 6.04591 8.23821 6.05766C8.23225 6.06941 8.23015 6.08274 8.23222 6.09575C8.23429 6.10876 8.24042 6.12078 8.24973 6.13011V6.13011Z" fill="#94A3B8"/>
    <path d="M15.3438 8.5425C15.4473 8.38011 15.502 8.19146 15.5014 7.99891C15.5009 7.80637 15.4451 7.61803 15.3407 7.45625C14.5138 6.1775 13.441 5.09125 12.2385 4.31469C10.9063 3.45469 9.43758 3 7.99008 3C7.22699 3.00105 6.46908 3.12547 5.74571 3.36844C5.72546 3.37517 5.70727 3.38698 5.69288 3.40273C5.67849 3.41848 5.66837 3.43765 5.66348 3.45842C5.65859 3.47919 5.6591 3.50086 5.66496 3.52138C5.67082 3.5419 5.68184 3.56057 5.69696 3.57562L7.17321 5.05187C7.18854 5.06724 7.20761 5.07834 7.22855 5.0841C7.24948 5.08985 7.27155 5.09005 7.29258 5.08469C7.79297 4.96274 8.31633 4.97168 8.81227 5.11063C9.30821 5.24959 9.76002 5.51388 10.1242 5.87806C10.4884 6.24225 10.7527 6.69406 10.8916 7.19C11.0306 7.68593 11.0395 8.20929 10.9176 8.70968C10.9123 8.73067 10.9125 8.75268 10.9183 8.77355C10.924 8.79442 10.9351 8.81344 10.9504 8.82875L13.0738 10.9537C13.0959 10.9759 13.1255 10.9889 13.1567 10.9903C13.188 10.9917 13.2186 10.9813 13.2426 10.9612C14.06 10.2646 14.7682 9.44924 15.3438 8.5425Z" fill="#94A3B8"/>
    <path d="M8 11.0005C7.54586 11.0005 7.09763 10.8974 6.68913 10.699C6.28062 10.5006 5.9225 10.212 5.64175 9.85503C5.361 9.49806 5.16496 9.08202 5.06841 8.63826C4.97186 8.1945 4.97732 7.73461 5.08437 7.29326C5.08968 7.27228 5.08945 7.25027 5.0837 7.2294C5.07795 7.20853 5.06687 7.18951 5.05156 7.1742L2.96281 5.08451C2.94066 5.06234 2.91099 5.0493 2.87968 5.04796C2.84837 5.04663 2.8177 5.05711 2.79375 5.07733C2.03156 5.72764 1.325 6.51889 0.679061 7.44358C0.565994 7.60586 0.503723 7.79809 0.500162 7.99585C0.496601 8.1936 0.55191 8.38795 0.659061 8.5542C1.48437 9.84577 2.54625 10.9336 3.73031 11.6995C5.06437 12.563 6.4975 13.0005 7.99 13.0005C8.76079 12.9984 9.52658 12.8766 10.26 12.6395C10.2804 12.633 10.2988 12.6213 10.3134 12.6056C10.3281 12.5899 10.3384 12.5707 10.3434 12.5499C10.3485 12.5291 10.3481 12.5073 10.3423 12.4866C10.3365 12.466 10.3255 12.4472 10.3103 12.432L8.82687 10.9489C8.81157 10.9336 8.79255 10.9225 8.77168 10.9168C8.7508 10.911 8.7288 10.9108 8.70781 10.9161C8.47606 10.9722 8.23845 11.0006 8 11.0005V11.0005Z" fill="#94A3B8"/>
    </svg>
    