<svg width="32" height="33" viewBox="0 0 32 33" fill="none" xmlns="http://www.w3.org/2000/svg">
<path d="M30.9126 16.266C30.8751 16.166 29.8126 13.816 27.4626 11.4535C24.3251 8.32852 20.3626 6.66602 16.0001 6.66602C11.6376 6.66602 7.67507 8.32852 4.53757 11.4535C2.18757 13.816 1.12507 16.166 1.08757 16.266C1.03176 16.392 1.00293 16.5282 1.00293 16.666C1.00293 16.8038 1.03176 16.94 1.08757 17.066C1.12507 17.166 2.18757 19.516 4.53757 21.8785C7.67507 25.0035 11.6376 26.666 16.0001 26.666C20.3626 26.666 24.3251 25.0035 27.4626 21.8785C29.8126 19.516 30.8751 17.166 30.9126 17.066C30.9684 16.94 30.9972 16.8038 30.9972 16.666C30.9972 16.5282 30.9684 16.392 30.9126 16.266V16.266ZM16.0001 12.166C16.8901 12.166 17.7601 12.4299 18.5001 12.9244C19.2402 13.4189 19.8169 14.1217 20.1575 14.9439C20.4981 15.7662 20.5872 16.671 20.4136 17.5439C20.24 18.4168 19.8114 19.2187 19.182 19.848C18.5527 20.4773 17.7509 20.9059 16.878 21.0795C16.0051 21.2532 15.1003 21.1641 14.278 20.8235C13.4557 20.4829 12.7529 19.9061 12.2585 19.1661C11.764 18.4261 11.5001 17.556 11.5001 16.666C11.5001 15.4725 11.9742 14.3279 12.8181 13.484C13.662 12.6401 14.8066 12.166 16.0001 12.166V12.166Z" fill="#94A3B8"/>
</svg>
