<svg width="25" height="24" viewBox="0 0 25 24" fill="none" xmlns="http://www.w3.org/2000/svg">
<path fill-rule="evenodd" clip-rule="evenodd" d="M12.9109 2.43766L22.9004 12.0001H20.6504V21.0003C20.6504 21.1992 20.5714 21.3899 20.4307 21.5306C20.2901 21.6712 20.0993 21.7503 19.9004 21.7503H15.4004V15.3753C15.4004 15.0769 15.2819 14.7907 15.0709 14.5798C14.8599 14.3688 14.5738 14.2503 14.2754 14.2503H10.5254C10.227 14.2503 9.94087 14.3688 9.7299 14.5798C9.51892 14.7907 9.40039 15.0769 9.40039 15.3753V21.7503H4.90039C4.70148 21.7503 4.51071 21.6712 4.37006 21.5306C4.22941 21.3899 4.15039 21.1992 4.15039 21.0003V12.0001H1.90039L11.8899 2.43766C12.1285 2.18735 12.6765 2.19016 12.9109 2.43766Z" fill="#FCD34D"/>
<path d="M22.9004 12.0001V12.7001C23.1863 12.7001 23.4435 12.5263 23.55 12.2609C23.6565 11.9956 23.591 11.6922 23.3844 11.4945L22.9004 12.0001ZM12.9109 2.43766L12.4026 2.91897C12.4105 2.92729 12.4185 2.93541 12.4268 2.94332L12.9109 2.43766ZM20.6504 12.0001V11.3001C20.2638 11.3001 19.9504 11.6135 19.9504 12.0001H20.6504ZM15.4004 21.7503H14.7004C14.7004 22.1369 15.0138 22.4503 15.4004 22.4503V21.7503ZM15.0709 14.5798L14.5759 15.0747L14.5759 15.0747L15.0709 14.5798ZM9.7299 14.5798L10.2249 15.0747L10.2249 15.0747L9.7299 14.5798ZM9.40039 21.7503V22.4503C9.78699 22.4503 10.1004 22.1369 10.1004 21.7503H9.40039ZM4.15039 12.0001H4.85039C4.85039 11.6135 4.53699 11.3001 4.15039 11.3001V12.0001ZM1.90039 12.0001L1.41634 11.4945C1.20981 11.6922 1.14427 11.9956 1.25079 12.2609C1.35731 12.5263 1.61448 12.7001 1.90039 12.7001V12.0001ZM11.8899 2.43766L12.374 2.94332C12.3817 2.93593 12.3892 2.92837 12.3966 2.92063L11.8899 2.43766ZM23.3844 11.4945L13.3949 1.93199L12.4268 2.94332L22.4163 12.5058L23.3844 11.4945ZM20.6504 12.7001H22.9004V11.3001H20.6504V12.7001ZM21.3504 21.0003V12.0001H19.9504V21.0003H21.3504ZM20.9257 22.0256C21.1976 21.7536 21.3504 21.3848 21.3504 21.0003H19.9504C19.9504 21.0135 19.9451 21.0262 19.9357 21.0356L20.9257 22.0256ZM19.9004 22.4503C20.285 22.4503 20.6538 22.2975 20.9257 22.0256L19.9357 21.0356C19.9264 21.045 19.9137 21.0503 19.9004 21.0503V22.4503ZM15.4004 22.4503H19.9004V21.0503H15.4004V22.4503ZM14.7004 15.3753V21.7503H16.1004V15.3753H14.7004ZM14.5759 15.0747C14.6556 15.1544 14.7004 15.2625 14.7004 15.3753H16.1004C16.1004 14.8912 15.9081 14.427 15.5659 14.0848L14.5759 15.0747ZM14.2754 14.9503C14.3881 14.9503 14.4962 14.995 14.5759 15.0747L15.5659 14.0848C15.2236 13.7425 14.7594 13.5503 14.2754 13.5503V14.9503ZM10.5254 14.9503H14.2754V13.5503H10.5254V14.9503ZM10.2249 15.0747C10.3046 14.995 10.4127 14.9503 10.5254 14.9503V13.5503C10.0414 13.5503 9.57717 13.7425 9.23492 14.0848L10.2249 15.0747ZM10.1004 15.3753C10.1004 15.2625 10.1452 15.1544 10.2249 15.0747L9.23492 14.0848C8.89267 14.427 8.70039 14.8912 8.70039 15.3753H10.1004ZM10.1004 21.7503V15.3753H8.70039V21.7503H10.1004ZM4.90039 22.4503H9.40039V21.0503H4.90039V22.4503ZM3.87509 22.0256C4.14701 22.2975 4.51583 22.4503 4.90039 22.4503V21.0503C4.88713 21.0503 4.87441 21.045 4.86503 21.0356L3.87509 22.0256ZM3.45039 21.0003C3.45039 21.3848 3.60316 21.7536 3.87509 22.0256L4.86503 21.0356C4.85566 21.0262 4.85039 21.0135 4.85039 21.0003H3.45039ZM3.45039 12.0001V21.0003H4.85039V12.0001H3.45039ZM1.90039 12.7001H4.15039V11.3001H1.90039V12.7001ZM11.4059 1.93199L1.41634 11.4945L2.38444 12.5058L12.374 2.94332L11.4059 1.93199ZM13.4191 1.95634C13.1269 1.6477 12.7177 1.55154 12.4032 1.55098C12.0879 1.55041 11.6779 1.64557 11.3832 1.95469L12.3966 2.92063C12.3801 2.93798 12.3658 2.94797 12.3577 2.9529C12.3498 2.95778 12.3463 2.95869 12.3488 2.9578C12.3513 2.95694 12.3574 2.95508 12.3673 2.9535C12.377 2.95193 12.3884 2.95095 12.4007 2.95098C12.413 2.951 12.4244 2.95202 12.4342 2.95362C12.444 2.95523 12.4501 2.95711 12.4525 2.95795C12.455 2.95883 12.4513 2.95783 12.443 2.95275C12.4347 2.94762 12.4198 2.93717 12.4026 2.91897L13.4191 1.95634Z" fill="#141824"/>
</svg>
