<svg width="24" height="24" viewBox="0 0 24 24" fill="none" xmlns="http://www.w3.org/2000/svg">
<path fill-rule="evenodd" clip-rule="evenodd" d="M9 2H5C4.204 2 3.441 2.316 2.879 2.879C2.316 3.441 2 4.204 2 5C2 6.063 2 7.466 2 9C2 9.552 2.448 10 3 10C3.552 10 4 9.552 4 9V5C4 4.735 4.105 4.48 4.293 4.293C4.48 4.105 4.735 4 5 4H9C9.552 4 10 3.552 10 3C10 2.448 9.552 2 9 2ZM2 14V19C2 19.796 2.316 20.559 2.879 21.121C3.441 21.684 4.204 22 5 22C5.827 22 6.86 22 8 22C8.552 22 9 21.552 9 21C9 20.448 8.552 20 8 20H5C4.735 20 4.48 19.895 4.293 19.707C4.105 19.52 4 19.265 4 19V14C4 13.448 3.552 13 3 13C2.448 13 2 13.448 2 14ZM15 22H19C19.796 22 20.559 21.684 21.121 21.121C21.684 20.559 22 19.796 22 19C22 17.937 22 16.534 22 15C22 14.448 21.552 14 21 14C20.448 14 20 14.448 20 15V19C20 19.265 19.895 19.52 19.707 19.707C19.52 19.895 19.265 20 19 20H15C14.448 20 14 20.448 14 21C14 21.552 14.448 22 15 22ZM22 9V5C22 4.204 21.684 3.441 21.121 2.879C20.559 2.316 19.796 2 19 2C17.937 2 16.534 2 15 2C14.448 2 14 2.448 14 3C14 3.552 14.448 4 15 4H19C19.265 4 19.52 4.105 19.707 4.293C19.895 4.48 20 4.735 20 5V9C20 9.552 20.448 10 21 10C21.552 10 22 9.552 22 9ZM7 13H17C17.552 13 18 12.552 18 12C18 11.448 17.552 11 17 11H7C6.448 11 6 11.448 6 12C6 12.552 6.448 13 7 13Z" fill="white"/>
</svg>
