<svg width="25" height="24" viewBox="0 0 25 24" fill="none" xmlns="http://www.w3.org/2000/svg">
<path d="M19.1067 7.56523C19.3324 7.88836 19.53 8.23024 19.6974 8.58711L22.1255 9.93711C22.4287 11.2951 22.4319 12.7028 22.1349 14.0621L19.6974 15.4121C19.53 15.769 19.3324 16.1109 19.1067 16.434L19.1536 19.2184C18.1246 20.1561 16.9066 20.8625 15.5817 21.2902L13.1911 19.8559C12.7979 19.884 12.4031 19.884 12.0099 19.8559L9.62862 21.2809C8.29953 20.861 7.07758 20.1572 6.04737 19.2184L6.09424 16.4434C5.87043 16.1158 5.67294 15.7709 5.50362 15.4121L3.07549 14.0621C2.7723 12.7042 2.7691 11.2964 3.06612 9.93711L5.50362 8.58711C5.67094 8.23024 5.86854 7.88836 6.09424 7.56523L6.04737 4.78086C7.07641 3.84314 8.29435 3.13667 9.61924 2.70898L12.0099 4.14336C12.4031 4.11523 12.7979 4.11523 13.1911 4.14336L15.5724 2.71836C16.9015 3.13826 18.1234 3.842 19.1536 4.78086L19.1067 7.56523Z" fill="#FCD34D" stroke="#141824" stroke-width="1.4" stroke-linecap="round" stroke-linejoin="round"/>
<path d="M12.6006 16.5C15.0859 16.5 17.1006 14.4853 17.1006 12C17.1006 9.51472 15.0859 7.5 12.6006 7.5C10.1153 7.5 8.10059 9.51472 8.10059 12C8.10059 14.4853 10.1153 16.5 12.6006 16.5Z" fill="white" stroke="#141824" stroke-width="1.4" stroke-linecap="round" stroke-linejoin="round"/>
</svg>
