<svg width="298" height="322" viewBox="0 0 298 322" fill="none" xmlns="http://www.w3.org/2000/svg">
<path d="M255.125 5.2832H164.365V194.841H255.125V5.2832Z" fill="#EBEBEB"/>
<path d="M250.566 10.7773H167.993V189.189H250.566V10.7773Z" fill="#FAFAFA"/>
<path d="M250.566 12.8789L167.993 134.99V10.7773H250.566V12.8789Z" fill="#F5F5F5"/>
<path d="M252.361 62.1016H167.993V64.0005H252.361V62.1016Z" fill="#EBEBEB"/>
<path d="M252.361 104.584H167.993V106.483H252.361V104.584Z" fill="#EBEBEB"/>
<path d="M252.361 147.073H167.993V148.972H252.361V147.073Z" fill="#EBEBEB"/>
<path d="M207.194 63.0543V194.247H211.365V63.0543H207.194Z" fill="#EBEBEB"/>
<path d="M185.786 10.7773H183.895V63.0473H185.786V10.7773Z" fill="#EBEBEB"/>
<path d="M202.081 10.7773H200.189V63.0473H202.081V10.7773Z" fill="#EBEBEB"/>
<path d="M218.383 10.7773H216.491V63.0473H218.383V10.7773Z" fill="#EBEBEB"/>
<path d="M234.685 10.7773H232.793V63.0473H234.685V10.7773Z" fill="#EBEBEB"/>
<path d="M164.365 2.0625H160.523V196.003H164.365V2.0625Z" fill="#F5F5F5"/>
<path d="M258.966 196.544L255.125 194.832V2.0625H258.966V196.544Z" fill="#E0E0E0"/>
<path d="M258.959 0.111328H160.523V5.28278H258.959V0.111328Z" fill="#E0E0E0"/>
<path d="M261.568 197.182H157.806V202H261.568V197.182Z" fill="#E0E0E0"/>
<path d="M255.125 194.833L261.561 197.182H157.806L164.365 194.833H255.125Z" fill="#EBEBEB"/>
<path d="M164.668 319.518C175.495 311.959 178.769 296.573 179.195 282.537C179.266 280.195 179.634 277.748 178.801 275.624C177.968 273.5 175.818 271.916 173.959 272.757C172.416 273.447 171.647 275.414 170.731 277.02C169.483 279.156 167.742 280.84 165.708 281.876C164.378 282.544 162.764 282.89 161.55 281.974C159.884 280.728 159.846 277.921 159.994 275.601C160.278 271.273 160.56 266.942 160.84 262.609C161.099 260.295 161.034 257.948 160.646 255.659C160.156 253.407 158.91 251.238 157.044 250.465C155.178 249.692 152.75 250.78 152.208 253.024C152.077 253.98 152.002 254.946 151.982 255.914C151.866 256.875 151.421 257.91 150.614 258.113C149.807 258.316 149.038 257.603 148.483 256.875C146.546 254.36 145.339 251.223 144.209 248.108C143.079 244.993 141.988 241.818 140.271 239.101C138.554 236.384 136.081 234.147 133.227 233.727C130.374 233.307 127.204 235.123 126.287 238.328C125.37 241.533 126.81 245.008 128.443 247.8C130.861 251.953 133.784 255.677 137.12 258.856C137.779 259.349 138.284 260.075 138.56 260.928C138.902 262.511 137.546 263.93 136.204 264.35C134.673 264.808 133.072 264.501 131.497 264.583C129.922 264.666 128.192 265.334 127.501 267C126.539 269.312 128.101 271.939 129.683 273.71C132.857 277.247 136.53 280.124 140.542 282.214C141.982 282.965 143.492 283.633 144.609 284.924C145.726 286.215 146.314 288.369 145.5 289.952C144.687 291.536 142.815 291.904 141.291 291.454C139.767 291.003 138.45 289.915 137.023 289.149C134.344 287.723 130.787 287.648 128.863 290.275C128.27 291.182 127.865 292.235 127.68 293.354C127.495 294.472 127.536 295.625 127.798 296.723C128.338 298.915 129.253 300.957 130.49 302.727C134.48 309.163 139.87 314.251 146.107 317.469C152.324 320.546 158.193 321.717 164.688 319.533" fill="#F5F5F5"/>
<path d="M162.706 320.193C162.596 314.609 163.442 317.701 162.06 310.496C160.518 302.707 158.591 295.029 156.289 287.498C155.682 285.497 155.088 283.515 154.507 281.554C153.919 279.61 153.332 277.681 152.667 275.834C151.372 272.287 149.908 268.827 148.283 265.469C146.753 262.249 145.204 259.262 143.764 256.462C142.324 253.662 140.878 251.118 139.496 248.851C137.343 245.253 134.944 241.862 132.324 238.711C131.4 237.593 130.658 236.759 130.148 236.196L129.567 235.566C129.503 235.492 129.434 235.424 129.36 235.363C129.413 235.448 129.474 235.526 129.541 235.596L130.096 236.256C130.587 236.842 131.31 237.698 132.22 238.831C134.792 242.017 137.153 245.425 139.283 249.024C140.646 251.275 142.047 253.865 143.506 256.65C144.965 259.434 146.501 262.429 148.025 265.656C149.631 269.008 151.079 272.458 152.363 275.992C153.009 277.831 153.603 279.745 154.19 281.696L155.972 287.633C158.274 295.148 160.214 302.805 161.783 310.571C163.158 317.754 162.338 314.631 162.474 320.193" fill="#E0E0E0"/>
<path d="M152.576 275.805C152.694 275.492 152.781 275.165 152.834 274.829C152.976 274.199 153.157 273.275 153.364 272.127C153.79 269.83 154.274 266.648 154.804 263.12C155.333 259.592 155.856 256.433 156.301 254.151C156.527 253.017 156.715 252.094 156.85 251.456C156.937 251.131 156.995 250.797 157.024 250.458C156.889 250.761 156.785 251.08 156.715 251.411C156.534 252.034 156.308 252.912 156.069 254.083C155.552 256.335 154.984 259.525 154.461 263.045C153.938 266.565 153.486 269.658 153.131 272.052C152.964 273.133 152.821 274.049 152.712 274.777C152.634 275.113 152.589 275.457 152.576 275.805Z" fill="#E0E0E0"/>
<path d="M127.204 268.186C127.537 268.3 127.879 268.375 128.224 268.411C128.87 268.531 129.825 268.704 130.994 268.959C133.331 269.439 136.54 270.242 140.032 271.308C143.525 272.374 146.676 273.507 148.922 274.401C150.052 274.836 150.956 275.219 151.582 275.474C151.898 275.633 152.227 275.756 152.564 275.842C152.269 275.633 151.957 275.457 151.634 275.316C151.021 275.009 150.13 274.566 149.006 274.108C146.772 273.14 143.641 271.961 140.123 270.888C137.125 269.96 134.089 269.209 131.026 268.636C129.845 268.426 128.889 268.298 128.224 268.231C127.886 268.178 127.545 268.163 127.204 268.186Z" fill="#E0E0E0"/>
<path d="M161.796 309.918C161.877 309.812 161.944 309.693 161.996 309.565L162.5 308.522C162.932 307.614 163.533 306.27 164.256 304.611C165.695 301.286 167.568 296.625 169.575 291.446C171.583 286.267 173.41 281.584 174.792 278.229L176.438 274.266L176.884 273.185C176.944 273.061 176.988 272.927 177.013 272.787C176.94 272.898 176.875 273.016 176.819 273.14L176.316 274.183C175.877 275.099 175.283 276.435 174.56 278.094C173.113 281.419 171.241 286.087 169.24 291.266C167.238 296.445 165.405 301.121 164.023 304.476L162.37 308.447L161.931 309.528C161.872 309.65 161.826 309.782 161.796 309.918Z" fill="#E0E0E0"/>
<path d="M128.398 294.366C128.5 294.447 128.611 294.51 128.728 294.554L129.696 295.027L133.247 296.708C136.268 298.127 140.42 300.131 145.003 302.36C149.587 304.589 153.758 306.548 156.805 307.892C158.329 308.56 159.562 309.092 160.421 309.438L161.415 309.828C161.529 309.881 161.648 309.916 161.77 309.933C161.668 309.854 161.557 309.791 161.441 309.745L160.472 309.28L156.896 307.606C153.881 306.188 149.729 304.184 145.139 301.955C140.549 299.725 136.391 297.766 133.344 296.423C131.82 295.755 130.587 295.222 129.722 294.884L128.728 294.456C128.622 294.41 128.511 294.379 128.398 294.366Z" fill="#E0E0E0"/>
<path d="M114.021 28.9033H89.6104V38.0378H114.021V28.9033Z" fill="#F5F5F5"/>
<path d="M136.913 47.1719H112.503V56.3064H136.913V47.1719Z" fill="#FAFAFA"/>
<path d="M123.285 47.1722C123.28 47.1148 123.28 47.057 123.285 46.9996V46.5267C123.285 46.0839 123.285 45.4834 123.285 44.7178C123.285 43.1266 123.253 40.8599 123.227 38.0377L123.337 38.1653L99.4493 38.2328C99.5203 38.1428 99.275 38.428 99.6107 38.0377V47.1722L99.4429 46.9846L116.461 47.0671L121.477 47.1197H122.827H123.311C123.165 47.1302 123.018 47.1302 122.872 47.1197H121.581L116.61 47.1722L99.43 47.2623H99.2686V42.6087C99.2686 41.8581 99.2686 41.1075 99.2686 40.2969V38.0527C99.6043 37.6624 99.3654 37.9401 99.4429 37.8576L123.33 37.9251H123.44V38.0527C123.44 40.9124 123.395 43.2017 123.382 44.8079C123.382 45.5585 123.382 46.1514 123.382 46.5867C123.382 47.0221 123.292 47.1797 123.285 47.1722Z" fill="#E0E0E0"/>
<path d="M289.664 106.881H265.254V116.015H289.664V106.881Z" fill="#FAFAFA"/>
<path d="M297.877 106.648C297.872 106.59 297.872 106.533 297.877 106.475C297.877 106.348 297.877 106.19 297.877 106.002C297.877 105.559 297.877 104.959 297.877 104.193C297.877 102.602 297.845 100.343 297.819 97.5133L297.929 97.6409L274.041 97.7085C274.112 97.6184 273.867 97.9036 274.203 97.5133V106.633L274.035 106.445L291.098 106.528L296.108 106.588H297.464H297.948C297.8 106.599 297.651 106.599 297.503 106.588H296.211L291.24 106.64L273.99 106.813H273.828V102.167C273.828 101.416 273.828 100.628 273.828 99.8476V97.5058C274.164 97.1155 273.925 97.3932 274.002 97.3107L297.89 97.3782H298V97.5058C298 100.366 297.955 102.655 297.942 104.261C297.942 105.012 297.942 105.605 297.942 106.04C297.942 106.475 297.877 106.655 297.877 106.648Z" fill="#E0E0E0"/>
<path d="M279.393 209.746H254.982V218.881H279.393V209.746Z" fill="#F5F5F5"/>
<path d="M287.889 218.565H263.479V227.7H287.889V218.565Z" fill="#FAFAFA"/>
<path d="M272.388 236.662C272.383 236.607 272.383 236.552 272.388 236.497V236.016C272.388 235.574 272.388 234.973 272.388 234.208C272.388 232.616 272.356 230.357 272.33 227.527L272.44 227.655L248.552 227.723C248.623 227.64 248.378 227.918 248.714 227.527V236.662L248.546 236.474L265.609 236.564L270.619 236.617H271.975H272.459C272.311 236.626 272.162 236.626 272.014 236.617H270.722L265.751 236.669L248.572 236.759H248.41V232.106C248.41 231.355 248.41 230.567 248.41 229.787V227.445C248.746 227.054 248.507 227.34 248.584 227.25L272.472 227.317H272.582V227.445C272.582 230.304 272.537 232.594 272.524 234.2C272.524 234.951 272.524 235.551 272.524 235.986C272.524 236.422 272.395 236.699 272.388 236.662Z" fill="#E0E0E0"/>
<path d="M33.2483 85.9844H8.83789V95.1189H33.2483V85.9844Z" fill="#FAFAFA"/>
<path d="M44.0363 85.9848C44.0363 85.9848 44.0363 85.9173 44.0363 85.8122C44.0363 85.7071 44.0363 85.527 44.0363 85.3393C44.0363 84.8965 44.0363 84.2885 44.0363 83.5229C44.0363 81.9392 43.9975 79.6725 43.9717 76.8428L44.0815 76.9704L20.194 77.038L20.3618 76.8503V81.5189C20.3618 83.0201 20.3618 84.5212 20.3618 85.9848L20.2004 85.7897L37.2638 85.8797L42.2738 85.9323H43.6295C43.7885 85.9151 43.9484 85.9151 44.1073 85.9323C43.9611 85.9433 43.8145 85.9433 43.6683 85.9323H42.3771L37.4059 85.9848L20.2327 86.0749H20.0713V85.8872C20.0713 84.4386 20.0713 82.9525 20.0713 81.4213V76.7527C20.407 76.3549 20.1617 76.6402 20.2391 76.5501L44.1267 76.6176H44.1525V76.7452C44.1525 79.6049 44.1008 81.8942 44.0879 83.5004C44.0879 84.251 44.0879 84.8439 44.0879 85.2793C44.0935 85.516 44.0762 85.7526 44.0363 85.9848Z" fill="#E0E0E0"/>
<path d="M294.901 320.951C294.901 321.056 228.881 321.146 147.457 321.146C66.0328 321.146 0 321.056 0 320.951C0 320.846 66.007 320.727 147.451 320.727C228.894 320.727 294.901 320.846 294.901 320.951Z" fill="#263238"/>
<path d="M271.097 283.04L270.232 301.625C270.215 301.943 270.096 302.243 269.897 302.463C269.698 302.683 269.435 302.807 269.16 302.811L240.398 303.058C240.112 303.058 239.838 302.928 239.634 302.695C239.429 302.462 239.312 302.145 239.307 301.812L239.217 287.341C239.217 287.008 239.33 286.689 239.532 286.452C239.734 286.216 240.008 286.082 240.295 286.08H257.985C258.27 286.077 258.543 285.945 258.746 285.713L261.8 282.162C262 281.928 262.272 281.796 262.556 281.795L270.012 281.734C270.159 281.732 270.304 281.765 270.439 281.83C270.574 281.896 270.696 281.993 270.797 282.115C270.899 282.237 270.978 282.382 271.03 282.542C271.081 282.701 271.104 282.871 271.097 283.04Z" fill="#FCD34D"/>
<path opacity="0.3" d="M271.097 283.04L270.232 301.625C270.215 301.943 270.096 302.243 269.897 302.463C269.698 302.683 269.435 302.807 269.16 302.811L240.398 303.058C240.112 303.058 239.838 302.928 239.634 302.695C239.429 302.462 239.312 302.145 239.307 301.812L239.217 287.341C239.217 287.008 239.33 286.689 239.532 286.452C239.734 286.216 240.008 286.082 240.295 286.08H257.985C258.27 286.077 258.543 285.945 258.746 285.713L261.8 282.162C262 281.928 262.272 281.796 262.556 281.795L270.012 281.734C270.159 281.732 270.304 281.765 270.439 281.83C270.574 281.896 270.696 281.993 270.797 282.115C270.899 282.237 270.978 282.382 271.03 282.542C271.081 282.701 271.104 282.871 271.097 283.04Z" fill="black"/>
<path d="M239.333 305.727L270.761 305.459L270.623 283.625L239.196 283.893L239.333 305.727Z" fill="#F5F5F5"/>
<path d="M273.137 285.562L270.884 308.349C270.868 308.55 270.79 308.737 270.664 308.875C270.538 309.013 270.373 309.093 270.2 309.1L239.572 309.355C239.395 309.359 239.223 309.283 239.093 309.143C238.963 309.003 238.885 308.81 238.875 308.604L237.19 285.832C237.181 285.721 237.192 285.61 237.222 285.504C237.252 285.399 237.301 285.302 237.366 285.22C237.43 285.138 237.509 285.073 237.596 285.028C237.684 284.984 237.778 284.961 237.874 284.961L272.446 284.661C272.544 284.661 272.641 284.686 272.73 284.733C272.82 284.779 272.899 284.847 272.965 284.932C273.03 285.017 273.079 285.117 273.108 285.226C273.138 285.334 273.148 285.449 273.137 285.562Z" fill="#FCD34D"/>
<path d="M279.561 279.535L278.696 298.119C278.679 298.438 278.56 298.737 278.361 298.957C278.162 299.178 277.899 299.302 277.624 299.305L248.862 299.545C248.721 299.547 248.58 299.517 248.449 299.456C248.317 299.394 248.197 299.304 248.096 299.189C247.995 299.074 247.914 298.937 247.858 298.785C247.802 298.634 247.773 298.471 247.771 298.307L247.681 283.836C247.68 283.67 247.707 283.507 247.761 283.354C247.815 283.201 247.894 283.062 247.994 282.944C248.094 282.827 248.214 282.734 248.345 282.671C248.476 282.607 248.617 282.575 248.759 282.575H266.449C266.733 282.576 267.007 282.447 267.21 282.214L270.264 278.664C270.464 278.43 270.736 278.298 271.019 278.296L278.476 278.236C278.622 278.235 278.766 278.268 278.9 278.334C279.034 278.399 279.155 278.495 279.257 278.617C279.358 278.738 279.437 278.882 279.49 279.04C279.542 279.197 279.566 279.366 279.561 279.535Z" fill="#FCD34D"/>
<path opacity="0.3" d="M279.561 279.535L278.696 298.119C278.679 298.438 278.56 298.737 278.361 298.957C278.162 299.178 277.899 299.302 277.624 299.305L248.862 299.545C248.721 299.547 248.58 299.517 248.449 299.456C248.317 299.394 248.197 299.304 248.096 299.189C247.995 299.074 247.914 298.937 247.858 298.785C247.802 298.634 247.773 298.471 247.771 298.307L247.681 283.836C247.68 283.67 247.707 283.507 247.761 283.354C247.815 283.201 247.894 283.062 247.994 282.944C248.094 282.827 248.214 282.734 248.345 282.671C248.476 282.607 248.617 282.575 248.759 282.575H266.449C266.733 282.576 267.007 282.447 267.21 282.214L270.264 278.664C270.464 278.43 270.736 278.298 271.019 278.296L278.476 278.236C278.622 278.235 278.766 278.268 278.9 278.334C279.034 278.399 279.155 278.495 279.257 278.617C279.358 278.738 279.437 278.882 279.49 279.04C279.542 279.197 279.566 279.366 279.561 279.535Z" fill="black"/>
<path d="M247.8 302.218L279.228 301.95L279.09 280.117L247.662 280.384L247.8 302.218Z" fill="#F5F5F5"/>
<path d="M281.601 282.057L279.341 304.844C279.331 305.047 279.255 305.238 279.128 305.378C279 305.518 278.832 305.595 278.657 305.595L248.029 305.858C247.853 305.86 247.682 305.783 247.552 305.644C247.422 305.504 247.344 305.312 247.332 305.107L245.647 282.35C245.639 282.239 245.651 282.127 245.682 282.021C245.713 281.916 245.763 281.819 245.828 281.738C245.893 281.656 245.971 281.59 246.059 281.546C246.147 281.501 246.242 281.479 246.338 281.479L280.904 281.179C281 281.178 281.096 281.201 281.185 281.246C281.273 281.291 281.353 281.357 281.418 281.439C281.484 281.522 281.534 281.62 281.565 281.726C281.597 281.832 281.609 281.945 281.601 282.057Z" fill="#FCD34D"/>
<path opacity="0.3" d="M281.601 282.057L279.341 304.844C279.331 305.047 279.255 305.238 279.128 305.378C279 305.518 278.832 305.595 278.657 305.595L248.029 305.858C247.853 305.86 247.682 305.783 247.552 305.644C247.422 305.504 247.344 305.312 247.332 305.107L245.647 282.35C245.639 282.239 245.651 282.127 245.682 282.021C245.713 281.916 245.763 281.819 245.828 281.738C245.893 281.656 245.971 281.59 246.059 281.546C246.147 281.501 246.242 281.479 246.338 281.479L280.904 281.179C281 281.178 281.096 281.201 281.185 281.246C281.273 281.291 281.353 281.357 281.418 281.439C281.484 281.522 281.534 281.62 281.565 281.726C281.597 281.832 281.609 281.945 281.601 282.057Z" fill="black"/>
<path d="M289.096 283.888L288.231 302.465C288.216 302.785 288.097 303.086 287.898 303.308C287.699 303.53 287.435 303.655 287.159 303.658L258.398 303.899C258.111 303.901 257.835 303.771 257.631 303.537C257.426 303.304 257.31 302.986 257.306 302.653L257.203 288.189C257.203 287.856 257.317 287.536 257.519 287.3C257.721 287.064 257.995 286.93 258.281 286.928H275.971C276.113 286.93 276.253 286.898 276.384 286.835C276.515 286.772 276.634 286.678 276.733 286.56L279.787 283.018C279.987 282.784 280.258 282.651 280.542 282.65L287.999 282.582C288.146 282.579 288.292 282.611 288.428 282.676C288.564 282.741 288.687 282.837 288.79 282.96C288.893 283.082 288.973 283.227 289.026 283.387C289.078 283.547 289.102 283.717 289.096 283.888Z" fill="#FCD34D"/>
<path d="M257.328 306.571L288.756 306.303L288.618 284.469L257.191 284.737L257.328 306.571Z" fill="#F5F5F5"/>
<path d="M291.137 286.41L288.884 309.197C288.864 309.392 288.783 309.572 288.657 309.703C288.531 309.835 288.369 309.908 288.2 309.91L257.565 310.173C257.389 310.175 257.219 310.099 257.091 309.959C256.962 309.819 256.885 309.627 256.875 309.423L255.19 286.665C255.181 286.554 255.192 286.442 255.222 286.336C255.252 286.231 255.301 286.133 255.365 286.051C255.43 285.968 255.508 285.902 255.596 285.857C255.683 285.811 255.778 285.787 255.874 285.787L290.44 285.494C290.539 285.493 290.638 285.517 290.729 285.564C290.82 285.611 290.902 285.681 290.968 285.767C291.034 285.854 291.083 285.956 291.112 286.067C291.142 286.178 291.15 286.295 291.137 286.41Z" fill="#FCD34D"/>
<path d="M255.183 289.51V321.116H294.41V289.51H255.183ZM267.985 295.207C267.985 294.588 268.197 293.994 268.573 293.556C268.95 293.118 269.46 292.872 269.993 292.872H279.6C279.872 292.854 280.145 292.901 280.402 293.01C280.659 293.119 280.894 293.288 281.092 293.506C281.291 293.724 281.449 293.987 281.557 294.279C281.665 294.571 281.721 294.885 281.721 295.203C281.721 295.521 281.665 295.835 281.557 296.127C281.449 296.418 281.291 296.681 281.092 296.9C280.894 297.118 280.659 297.286 280.402 297.395C280.145 297.504 279.872 297.551 279.6 297.533H269.993C269.461 297.533 268.952 297.288 268.575 296.852C268.199 296.416 267.987 295.824 267.985 295.207Z" fill="#455A64"/>
<path d="M234.039 289.51V321.116H255.183V289.51H234.039Z" fill="#263238"/>
<path d="M160.098 297.241L158.051 310.969C158.051 310.969 145.365 313.161 144.777 315.653L167.516 321.222L171.46 299.996L160.098 297.241Z" fill="#FCD34D"/>
<g opacity="0.6">
<path opacity="0.6" d="M165.289 311.54C165.492 311.672 165.647 311.886 165.725 312.141C165.802 312.397 165.796 312.677 165.708 312.928C165.604 313.171 165.423 313.358 165.203 313.451C164.983 313.543 164.741 313.533 164.527 313.424C164.304 313.284 164.135 313.052 164.053 312.773C163.972 312.495 163.984 312.191 164.088 311.922C164.22 311.678 164.429 311.503 164.671 311.437C164.913 311.371 165.167 311.419 165.379 311.57" fill="white"/>
</g>
<path opacity="0.6" d="M167.516 321.214L167.839 319.06L145.888 314.557C145.888 314.557 144.784 314.819 144.752 315.675L167.516 321.214Z" fill="white"/>
<path d="M157.702 310.744C157.702 310.871 158.232 311.066 158.703 311.614C159.174 312.162 159.348 312.778 159.478 312.748C159.607 312.718 159.555 311.937 158.974 311.284C158.393 310.631 157.702 310.616 157.702 310.744Z" fill="#263238"/>
<path d="M155.114 311.306C155.062 311.419 155.507 311.757 155.759 312.395C156.011 313.033 156.037 313.641 156.153 313.663C156.269 313.686 156.463 312.973 156.108 312.162C155.753 311.351 155.139 311.179 155.114 311.306Z" fill="#263238"/>
<path d="M153.157 314.287C153.254 314.339 153.525 313.739 153.364 312.958C153.202 312.178 152.718 311.772 152.673 311.87C152.628 311.967 152.86 312.425 152.983 313.063C153.105 313.701 153.047 314.249 153.157 314.287Z" fill="#263238"/>
<path d="M158.471 307.674C158.471 307.801 159.039 307.749 159.653 307.951C160.266 308.154 160.724 308.507 160.802 308.409C160.879 308.312 160.492 307.734 159.756 307.508C159.02 307.283 158.426 307.561 158.471 307.674Z" fill="#263238"/>
<path opacity="0.3" d="M159.691 299.966L159.323 302.405L170.525 305.025L170.938 302.841L159.691 299.966Z" fill="black"/>
<path d="M158.929 304.912C159.279 305.121 159.672 305.217 160.065 305.19C160.498 305.204 160.932 305.159 161.356 305.055C161.602 304.991 161.843 304.908 162.079 304.807C162.223 304.758 162.358 304.682 162.48 304.582C162.57 304.508 162.637 304.402 162.669 304.28C162.702 304.158 162.699 304.026 162.66 303.906C162.619 303.803 162.558 303.713 162.482 303.641C162.406 303.57 162.317 303.519 162.221 303.493C162.077 303.46 161.929 303.447 161.782 303.456C161.528 303.466 161.275 303.503 161.027 303.568C160.606 303.672 160.203 303.854 159.833 304.109C159.187 304.552 158.929 304.987 158.967 305.025C159.006 305.062 159.335 304.739 159.962 304.402C160.322 304.202 160.704 304.06 161.098 303.981C161.328 303.936 161.562 303.911 161.795 303.906C162.047 303.906 162.254 303.944 162.292 304.079C162.331 304.214 162.292 304.154 162.241 304.221C162.15 304.294 162.049 304.35 161.944 304.387C161.733 304.486 161.517 304.571 161.298 304.642C160.907 304.758 160.507 304.83 160.104 304.859C159.711 304.845 159.319 304.863 158.929 304.912Z" fill="#263238"/>
<path d="M159.071 305.137C159.35 304.807 159.535 304.385 159.6 303.929C159.711 303.439 159.748 302.932 159.71 302.428C159.684 302.13 159.634 301.836 159.561 301.549C159.533 301.36 159.463 301.183 159.358 301.036C159.252 300.888 159.116 300.776 158.961 300.709C158.86 300.685 158.755 300.695 158.658 300.739C158.562 300.783 158.479 300.859 158.419 300.956C158.331 301.097 158.262 301.251 158.212 301.414C158.119 301.701 158.065 302.002 158.051 302.307C158.021 302.823 158.104 303.339 158.29 303.809C158.606 304.604 159.045 304.867 159.058 304.829C159.071 304.792 158.767 304.432 158.548 303.689C158.42 303.26 158.373 302.804 158.412 302.353C158.433 302.094 158.487 301.841 158.574 301.602C158.658 301.332 158.793 301.129 158.877 301.174C158.961 301.219 159.142 301.459 159.193 301.707C159.265 301.964 159.317 302.228 159.348 302.495C159.401 302.951 159.401 303.413 159.348 303.869C159.187 304.649 158.98 305.1 159.071 305.137Z" fill="#263238"/>
<path d="M237.357 297.548L232.438 290.08L232.186 289.697L223.793 296.94L231.54 306.848L231.256 316.876C226.937 318.174 226.285 320.681 226.285 320.681H235.265L243.426 302.412L237.357 297.548Z" fill="#FCD34D"/>
<path opacity="0.6" d="M243.452 302.405L235.292 320.674L226.312 320.681L227.325 319.113L234.627 318.64L242.155 301.369L243.452 302.405Z" fill="white"/>
<path d="M231.334 312.282C231.405 312.387 231.921 312.042 232.625 312.064C233.329 312.087 233.833 312.425 233.916 312.32C234 312.214 233.49 311.614 232.625 311.607C231.76 311.599 231.257 312.199 231.334 312.282Z" fill="#263238"/>
<path d="M231.482 309.79C231.573 309.865 231.966 309.25 232.683 309.085C233.4 308.92 233.974 309.302 234.032 309.197C234.09 309.092 233.961 308.972 233.71 308.814C233.37 308.61 232.982 308.546 232.607 308.634C232.233 308.721 231.895 308.954 231.65 309.295C231.476 309.558 231.437 309.76 231.482 309.79Z" fill="#263238"/>
<path d="M231.418 306.601C231.515 306.653 231.825 306.053 232.451 305.798C233.077 305.542 233.639 305.798 233.684 305.67C233.729 305.542 233.593 305.467 233.342 305.362C233.009 305.23 232.648 305.232 232.316 305.368C231.984 305.505 231.702 305.767 231.515 306.113C231.379 306.383 231.379 306.578 231.418 306.601Z" fill="#263238"/>
<path d="M229.016 304.124C229.12 304.169 229.372 303.576 229.933 303.156C230.495 302.735 231.044 302.668 231.05 302.54C231.057 302.412 230.405 302.24 229.714 302.773C229.023 303.306 228.907 304.109 229.016 304.124Z" fill="#263238"/>
<path d="M227.841 301.962C228.148 301.645 228.412 301.276 228.622 300.866L229.384 299.612C229.556 299.354 229.695 299.069 229.797 298.764C229.825 298.661 229.835 298.551 229.827 298.443C229.818 298.335 229.79 298.23 229.746 298.134C229.694 298.022 229.614 297.931 229.518 297.873C229.421 297.814 229.312 297.79 229.203 297.804C228.888 297.874 228.596 298.049 228.364 298.307C228.154 298.528 227.97 298.78 227.815 299.057C227.564 299.51 227.405 300.023 227.35 300.558C227.256 301.046 227.327 301.557 227.55 301.984C227.552 301.525 227.576 301.067 227.622 300.611C227.752 299.851 228.1 299.166 228.609 298.667C228.791 298.473 229.014 298.339 229.255 298.276C229.288 298.269 229.323 298.274 229.354 298.29C229.385 298.306 229.411 298.333 229.429 298.367C229.462 298.463 229.462 298.57 229.429 298.667C229.341 298.932 229.227 299.184 229.087 299.417L228.396 300.723C228.157 301.1 227.97 301.518 227.841 301.962Z" fill="#263238"/>
<path d="M227.505 302.292C227.551 302.292 227.505 301.737 227.028 301.114C226.697 300.696 226.259 300.416 225.778 300.315C225.298 300.215 224.803 300.3 224.368 300.558C224.322 300.603 224.285 300.659 224.26 300.723C224.236 300.787 224.224 300.856 224.226 300.926C224.23 301.047 224.269 301.163 224.336 301.256C224.426 301.387 224.535 301.499 224.658 301.587C224.861 301.751 225.077 301.892 225.304 302.007C225.678 302.206 226.077 302.335 226.485 302.39C226.857 302.488 227.246 302.446 227.596 302.27C227.596 302.195 227.17 302.232 226.531 302.074C226.16 301.981 225.801 301.829 225.465 301.624C225.274 301.506 225.093 301.368 224.923 301.211C224.835 301.149 224.757 301.07 224.691 300.979C224.645 300.889 224.658 300.911 224.691 300.889C224.769 300.831 224.857 300.793 224.949 300.776C225.059 300.745 225.171 300.725 225.285 300.716C225.501 300.694 225.719 300.712 225.93 300.768C226.289 300.861 226.622 301.057 226.899 301.339C227.325 301.842 227.46 302.322 227.505 302.292Z" fill="#263238"/>
<path opacity="0.6" d="M237.351 303.328C237.94 303.328 238.417 302.774 238.417 302.09C238.417 301.406 237.94 300.852 237.351 300.852C236.763 300.852 236.286 301.406 236.286 302.09C236.286 302.774 236.763 303.328 237.351 303.328Z" fill="white"/>
<path opacity="0.3" d="M224.588 297.939L226.312 300.138L233.562 291.784L232.555 290.261L224.588 297.939Z" fill="black"/>
<path d="M180.725 163.504C180.725 163.504 172.332 196.619 164.83 234.058C160.311 256.755 156.018 298.99 156.018 298.99L175.941 304.094L184.482 249.797L193.598 217.658C196.73 207.51 201.23 200.094 206.691 194.6C212.631 184.842 215.73 173.681 214.536 161.8L180.725 163.504Z" fill="#263238"/>
<path d="M179.085 168.78L186.529 240.085C187.252 246.967 188.253 253.595 192.275 258.721L222.418 300.281L237.351 284.699L205.4 233.915L210.952 162.325L179.692 168.525" fill="#263238"/>
<path d="M205.704 233.382C205.762 233.51 204.412 234.29 203.121 235.844C201.83 237.398 201.255 239.004 201.146 238.944C201.036 238.884 201.494 237.135 202.824 235.521C204.154 233.908 205.678 233.262 205.704 233.382Z" fill="#455A64"/>
<path d="M205.251 233.915C205.251 234.05 204.057 234.005 202.624 234.17C201.19 234.336 200.041 234.636 199.996 234.501C200.789 233.997 201.675 233.722 202.579 233.698C204.063 233.525 205.264 233.788 205.251 233.915Z" fill="#455A64"/>
<path d="M213.638 177.997C213.618 178.27 213.581 178.541 213.528 178.808C213.476 179.093 213.425 179.416 213.36 179.791C213.295 180.166 213.16 180.617 213.037 181.104C212.256 183.869 211.143 186.492 209.732 188.895C207.989 191.98 205.568 195.335 202.992 199.133C201.638 201.108 200.387 203.176 199.247 205.325C198.05 207.652 196.961 210.053 195.987 212.516C193.979 217.59 192.358 222.574 190.983 227.145C189.608 231.716 188.465 235.866 187.497 239.356C186.529 242.847 185.767 245.624 185.211 247.613C184.94 248.551 184.721 249.302 184.566 249.864C184.497 250.122 184.41 250.373 184.308 250.615C184.347 250.342 184.406 250.074 184.482 249.812L185.057 247.56L187.213 239.244C188.143 235.746 189.259 231.573 190.615 226.987C191.971 222.401 193.585 217.395 195.599 212.298C196.583 209.82 197.685 207.407 198.898 205.07C200.047 202.905 201.313 200.827 202.688 198.848C205.271 195.05 207.724 191.733 209.48 188.7C210.902 186.335 212.046 183.761 212.882 181.044C213.011 180.557 213.147 180.129 213.237 179.746C213.328 179.363 213.386 179.055 213.444 178.785C213.49 178.517 213.555 178.253 213.638 177.997Z" fill="#455A64"/>
<path d="M141.64 142.915L136.404 146.082L127.32 151.269C126.707 151.516 126.191 152.011 125.867 152.665L122.536 159.48H128.908L130.606 156.155C131.675 156.6 132.835 156.648 133.928 156.293C135.021 155.938 135.992 155.197 136.707 154.174L145.959 150.421L141.64 142.915Z" fill="#FFBE9D"/>
<path d="M202.463 59.2568C202.832 58.3441 203.44 57.5899 204.199 57.101C204.958 56.6121 205.83 56.4133 206.691 56.5329C207.553 56.6525 208.36 57.0844 208.999 57.7673C209.637 58.4502 210.075 59.3494 210.249 60.3376C210.307 61.291 210.452 62.2345 210.681 63.1522C210.925 63.7413 211.334 64.2161 211.841 64.4986C212.348 64.781 212.923 64.8541 213.471 64.7059C213.144 65.4204 212.64 66.0038 212.024 66.3797C212.103 66.3203 212.193 66.2836 212.287 66.2725C212.38 66.2614 212.475 66.2762 212.562 66.3158C212.65 66.3553 212.728 66.4185 212.791 66.5001C212.853 66.5816 212.898 66.6793 212.922 66.785C212.951 67.0055 212.924 67.2313 212.842 67.4333C212.76 67.6353 212.628 67.8042 212.463 67.9184C212.128 68.1363 211.756 68.267 211.372 68.3012C209.532 68.6239 207.499 68.7065 205.949 67.5506C204.258 66.2821 203.509 63.8953 202.876 61.6811" fill="#263238"/>
<path d="M184.837 53.0566C182.9 53.2518 181.286 54.9106 180.163 56.757C179.04 58.6034 178.258 60.72 177.083 62.5214C176.205 63.8649 175.088 65.0808 174.656 66.6871C173.965 69.254 175.179 72.2113 174.217 74.6506C173.668 76.0317 172.519 76.9699 171.951 78.336C171.241 80.0398 171.563 82.0888 171.996 83.8902C172.212 85.189 172.764 86.3803 173.578 87.3053C174.311 87.8896 175.155 88.258 176.037 88.3786C182.654 89.7932 189.485 88.8107 195.606 85.564" fill="#263238"/>
<path d="M199.964 65.8993C199.937 64.337 199.64 62.7969 199.091 61.3705C198.542 59.9442 197.752 58.6607 196.768 57.5964C195.784 56.532 194.626 55.7086 193.363 55.1751C192.099 54.6416 190.757 54.4088 189.414 54.4906C184.049 54.8058 179.924 60.18 179.892 66.4247C179.892 71.8964 179.95 77.4056 180.221 79.3646C181.028 85.2717 184.295 87.073 185.586 87.5609C186.045 87.6702 186.512 87.723 186.98 87.7185C186.99 87.7203 186.998 87.7258 187.004 87.7341C187.01 87.7424 187.013 87.7528 187.013 87.7636L186.735 94.7514C186.78 99.2549 189.414 102.895 193.32 102.895C197.226 102.895 199.809 98.9696 199.834 94.4137L199.964 65.8993Z" fill="#FFBE9D"/>
<path d="M181.81 69.4868C181.809 69.7345 181.892 69.9726 182.041 70.1505C182.189 70.3284 182.391 70.4323 182.604 70.4401C182.708 70.4503 182.812 70.4361 182.911 70.3982C183.01 70.3604 183.101 70.2997 183.18 70.2198C183.258 70.1399 183.322 70.0425 183.367 69.9333C183.412 69.8241 183.438 69.7055 183.443 69.5844C183.446 69.3361 183.366 69.0962 183.218 68.9164C183.071 68.7367 182.869 68.6315 182.655 68.6237C182.551 68.6145 182.446 68.6297 182.346 68.6683C182.247 68.7069 182.155 68.7682 182.076 68.8486C181.998 68.929 181.933 69.0269 181.888 69.1365C181.842 69.2461 181.815 69.3652 181.81 69.4868Z" fill="#263238"/>
<path d="M181.286 67.8276C181.383 67.9552 182.003 67.4223 182.888 67.4223C183.772 67.4223 184.411 67.9327 184.508 67.8126C184.605 67.6925 184.45 67.5349 184.166 67.2947C183.787 66.9878 183.336 66.8252 182.875 66.8294C182.411 66.8212 181.957 66.99 181.583 67.3098C181.325 67.5499 181.235 67.7826 181.286 67.8276Z" fill="#263238"/>
<path d="M190.422 69.4868C190.419 69.7344 190.499 69.9735 190.647 70.1521C190.794 70.3307 190.997 70.4342 191.21 70.4401C191.313 70.4503 191.418 70.4361 191.517 70.3982C191.616 70.3604 191.707 70.2997 191.786 70.2198C191.864 70.1399 191.928 70.0425 191.973 69.9333C192.018 69.8241 192.044 69.7055 192.049 69.5844C192.052 69.3361 191.972 69.0962 191.824 68.9164C191.677 68.7367 191.475 68.6315 191.261 68.6237C191.157 68.6145 191.052 68.6297 190.953 68.6684C190.854 68.7072 190.763 68.7686 190.685 68.8491C190.606 68.9295 190.543 69.0274 190.498 69.137C190.453 69.2465 190.427 69.3655 190.422 69.4868Z" fill="#263238"/>
<path d="M189.937 68.0234C190.041 68.1435 190.66 67.6106 191.538 67.6106C192.416 67.6106 193.062 68.1285 193.159 68.0009C193.256 67.8733 193.107 67.7232 192.823 67.483C192.443 67.1804 191.993 67.0183 191.532 67.0176C191.069 67.0148 190.616 67.183 190.241 67.498C189.982 67.7382 189.886 67.9633 189.937 68.0234Z" fill="#263238"/>
<path d="M186.741 75.6117C186.279 75.4386 185.8 75.3377 185.315 75.3115C185.089 75.3115 184.876 75.2289 184.837 75.0563C184.822 74.7946 184.874 74.5337 184.985 74.3057L185.631 72.3167C186.554 69.487 187.226 67.1528 187.122 67.1152C186.392 68.739 185.774 70.4282 185.276 72.1666C185.05 72.8646 184.843 73.5326 184.63 74.1706C184.489 74.4843 184.448 74.8458 184.514 75.1914C184.547 75.283 184.597 75.3649 184.661 75.4311C184.725 75.4973 184.8 75.5462 184.882 75.5742C185.009 75.6123 185.139 75.635 185.269 75.6417C185.759 75.7059 186.254 75.6958 186.741 75.6117Z" fill="#263238"/>
<path d="M187.026 87.7179C187.026 87.7179 190.428 88.0406 194.676 85.0684C194.676 85.0684 193.333 90.3224 186.929 89.5718L187.026 87.7179Z" fill="#EB996E"/>
<path d="M187.117 78.0729C187.285 77.8297 187.503 77.6396 187.752 77.5202C188 77.4009 188.27 77.356 188.537 77.3898C188.731 77.4115 188.919 77.4777 189.091 77.5847C189.263 77.6916 189.415 77.8372 189.538 78.0128C189.655 78.1844 189.724 78.3932 189.737 78.6117C189.749 78.8302 189.705 79.048 189.609 79.2363C189.467 79.4209 189.282 79.5519 189.076 79.6121C188.869 79.6723 188.653 79.6591 188.453 79.574C188.039 79.4147 187.657 79.1593 187.33 78.8235C187.23 78.7429 187.145 78.641 187.078 78.5232C187.046 78.4662 187.029 78.3997 187.029 78.3318C187.029 78.2639 187.046 78.1975 187.078 78.1404" fill="#EB996E"/>
<path d="M189.33 76.3166C189.188 76.3166 189.188 77.4199 188.368 78.208C187.549 78.9961 186.535 78.876 186.528 79.0261C186.522 79.1762 186.754 79.2438 187.174 79.2588C187.733 79.2653 188.276 79.045 188.711 78.6358C189.126 78.2406 189.393 77.6724 189.453 77.0521C189.505 76.5868 189.414 76.309 189.33 76.3166Z" fill="#263238"/>
<path d="M189.544 66.2292C189.628 66.5069 190.506 66.3718 191.539 66.5219C192.572 66.672 193.411 66.9873 193.547 66.7396C193.605 66.6195 193.463 66.3568 193.127 66.0941C192.677 65.7631 192.169 65.5552 191.64 65.4863C191.111 65.4174 190.575 65.4892 190.073 65.6963C189.693 65.8764 189.505 66.0941 189.544 66.2292Z" fill="#263238"/>
<path d="M181.609 65.7343C181.764 65.967 182.371 65.7343 183.1 65.7343C183.83 65.7343 184.443 65.8919 184.585 65.6442C184.65 65.5241 184.585 65.2914 184.282 65.0738C183.92 64.8081 183.497 64.6747 183.069 64.6907C182.641 64.7068 182.227 64.8716 181.88 65.1638C181.622 65.3815 181.538 65.6217 181.609 65.7343Z" fill="#263238"/>
<path d="M178.723 65.1409C180.014 66.8372 183.243 65.1409 185.076 63.4821C186.228 64.0842 187.537 64.1404 188.725 63.6387C189.912 63.1369 190.884 62.1169 191.435 60.7951C192.804 62.2962 195.077 61.3505 195.696 59.2939C196.316 57.2374 195.496 54.6479 194.108 53.1617C192.727 51.7881 190.968 51.0346 189.15 51.0376C187.052 50.9214 184.972 51.5211 183.164 52.7627C181.356 54.0044 179.9 55.8337 178.975 58.0255C178.11 60.1646 177.774 62.9042 178.723 65.1334" fill="#263238"/>
<path d="M193.785 53.0568C197.472 51.5556 201.675 55.346 202.449 58.4234C203.792 63.76 203.243 64.5481 204.425 67.0174C205.2 68.6237 207.343 70.0197 208.299 71.6635C209.351 73.4048 209.745 76.5872 209.428 78.6889C209.164 80.4602 207.801 85.5041 207.801 85.5041C207.801 85.5041 202.139 86.2546 199.15 85.8793C198.384 85.8354 197.638 85.578 196.975 85.1288C196.329 84.6484 197.233 82.4567 197.026 81.6236C196.426 79.2593 194.696 78.1259 194.844 75.664C195.038 72.3991 197.155 71.9112 196.703 68.6387C196.465 66.9199 193.947 64.8258 193.533 63.1595C193.12 61.4932 191.519 55.6913 193.759 53.0718" fill="#263238"/>
<path d="M203.205 63.2341C203.108 63.2341 203.172 62.1232 202.985 60.8097C202.798 59.4962 202.456 58.4679 202.546 58.4229C202.989 59.094 203.255 59.8993 203.314 60.7421C203.491 61.5671 203.453 62.4344 203.205 63.2341Z" fill="#FCD34D"/>
<path d="M202.863 61.4029C202.863 61.4029 202.734 61.508 202.469 61.583C202.094 61.6911 201.706 61.7341 201.32 61.7107C200.741 61.6766 200.174 61.5135 199.648 61.2303C199.006 60.8795 198.439 60.3667 197.989 59.7291C197.576 59.102 197.104 58.5305 196.581 58.0253C196.145 57.6491 195.656 57.3646 195.135 57.1846C194.641 57.0422 194.138 56.9419 193.631 56.8844C193.762 56.8144 193.906 56.7835 194.051 56.7943C194.434 56.7692 194.819 56.8097 195.193 56.9144C195.755 57.0719 196.287 57.3493 196.762 57.7326C197.313 58.2313 197.809 58.8059 198.241 59.4439C199.013 60.543 200.126 61.2463 201.339 61.4029C201.847 61.4425 202.356 61.4425 202.863 61.4029Z" fill="#455A64"/>
<path d="M212.954 66.5668C212.828 66.7127 212.665 66.8074 212.489 66.8371C212.012 66.9525 211.516 66.8757 211.082 66.6194C210.445 66.2378 209.93 65.627 209.616 64.8781C209.229 64.0749 208.971 63.1142 208.609 62.1985C208.321 61.3233 207.783 60.5895 207.085 60.1194C206.491 59.7992 205.819 59.7328 205.187 59.9318C204.599 60.1458 204.07 60.5398 203.657 61.0727C203.708 60.8782 203.802 60.7024 203.928 60.5623C204.246 60.1436 204.657 59.8346 205.116 59.6691C205.805 59.4078 206.552 59.4505 207.215 59.7892C207.993 60.2806 208.595 61.0791 208.912 62.0409C209.3 62.9941 209.558 63.9398 209.887 64.7129C210.157 65.4122 210.608 65.9952 211.179 66.3792C211.57 66.64 212.022 66.7503 212.47 66.6945C212.773 66.6419 212.935 66.5368 212.954 66.5668Z" fill="#455A64"/>
<path d="M202.876 60.7273C202.876 60.7273 202.715 60.8174 202.411 60.7874C201.976 60.7275 201.565 60.5273 201.223 60.2094C200.727 59.7443 200.315 59.1705 200.009 58.5206C199.665 57.7532 199.254 57.0288 198.783 56.359C198.321 55.8012 197.761 55.3652 197.142 55.0804C196.523 54.7955 195.858 54.6684 195.193 54.7077C194.634 54.7706 194.082 54.9014 193.547 55.098C193.547 55.098 193.67 54.9629 193.941 54.8128C194.332 54.6117 194.748 54.485 195.174 54.4375C195.885 54.3498 196.604 54.4531 197.276 54.7394C197.947 55.0257 198.554 55.4873 199.047 56.0888C199.534 56.7826 199.952 57.5379 200.293 58.3405C200.565 58.9659 200.935 59.5261 201.385 59.9918C201.804 60.41 202.325 60.6669 202.876 60.7273Z" fill="#455A64"/>
<path d="M204.496 86.2701C204.496 86.2701 204.729 85.8573 205.142 85.1067C205.695 84.0473 206.129 82.9096 206.433 81.7216C206.892 79.9726 206.947 78.1143 206.594 76.3325C206.381 75.2526 205.986 74.2325 205.432 73.3308C204.878 72.4291 204.176 71.6636 203.366 71.0784C202.495 70.478 201.533 70.0727 200.681 69.4647C199.833 68.8915 199.157 68.0295 198.744 66.9953C198.401 66.0803 198.125 65.1339 197.917 64.1657C197.736 63.3396 197.487 62.5354 197.175 61.7638C196.963 61.2056 196.651 60.7062 196.26 60.2986C195.87 59.891 195.409 59.5845 194.909 59.3995C194.534 59.2898 194.144 59.2618 193.76 59.3169C193.76 59.3169 193.857 59.2569 194.057 59.2119C194.349 59.1429 194.649 59.1429 194.941 59.2119C195.474 59.3791 195.969 59.6793 196.391 60.0915C196.814 60.5037 197.154 61.0181 197.388 61.5987C197.72 62.3799 197.986 63.1969 198.182 64.0381C198.396 64.9851 198.679 65.9091 199.028 66.8002C199.415 67.7645 200.049 68.5666 200.842 69.0969C201.656 69.6824 202.617 70.0802 203.528 70.7107C204.373 71.3273 205.104 72.1344 205.678 73.0844C206.251 74.0344 206.655 75.1081 206.866 76.2424C207.216 78.0852 207.134 80.0038 206.627 81.7966C206.301 82.9982 205.827 84.1384 205.219 85.1817C205.061 85.4658 204.888 85.739 204.703 85.9999C204.58 86.1875 204.509 86.2776 204.496 86.2701Z" fill="#455A64"/>
<path d="M176.593 88.0855C176.593 88.0855 176.522 88.0255 176.419 87.8754C176.27 87.6592 176.134 87.431 176.012 87.1923C175.56 86.3034 175.266 85.3183 175.147 84.2951C174.945 82.7674 175.124 81.2044 175.664 79.7917C176.005 78.9889 176.394 78.214 176.826 77.4724C177.282 76.7128 177.568 75.8332 177.659 74.9129C177.768 73.0215 177.013 71.2577 176.91 69.5313C176.748 68.0055 176.919 66.4568 177.407 65.0279C177.742 64.0741 178.248 63.2144 178.892 62.506C179.062 62.312 179.246 62.1339 179.44 61.973C179.505 61.9093 179.577 61.8563 179.653 61.8154C179.653 61.8154 179.402 62.0931 179.008 62.611C178.423 63.3444 177.963 64.2002 177.652 65.133C177.214 66.5241 177.073 68.0177 177.239 69.4863C177.344 70.3581 177.499 71.2207 177.704 72.0683C177.946 73.002 178.053 73.976 178.02 74.9505C177.922 75.9293 177.618 76.865 177.136 77.6751C176.707 78.3961 176.319 79.1482 175.973 79.9268C175.444 81.2736 175.247 82.7655 175.405 84.2351C175.506 85.2294 175.757 86.195 176.148 87.0873C176.413 87.7478 176.619 88.048 176.593 88.0855Z" fill="#455A64"/>
<path d="M188.42 51.8186C187.602 51.9399 186.793 52.1331 185.999 52.3965C184.106 53.1011 182.466 54.516 181.338 56.4196C180.289 58.383 179.714 60.6386 179.672 62.9496C179.68 63.9087 179.758 64.8654 179.905 65.8092C179.792 65.5756 179.714 65.322 179.672 65.0587C179.521 64.3641 179.441 63.6511 179.434 62.9346C179.406 60.5488 179.968 58.2041 181.054 56.1794C182.219 54.1999 183.944 52.7577 185.928 52.1038C186.522 51.9076 187.133 51.7917 187.749 51.7585C187.974 51.7384 188.201 51.7586 188.42 51.8186Z" fill="#455A64"/>
<path d="M184.069 61.4401C183.981 61.2384 183.926 61.0195 183.907 60.7946C183.811 60.1807 183.787 59.5545 183.836 58.9332C183.906 57.8992 184.157 56.8928 184.574 55.9758C184.991 55.0588 185.564 54.2506 186.26 53.601C186.955 52.9514 187.758 52.474 188.618 52.1983C189.478 51.9227 190.377 51.8544 191.261 51.9979C191.791 52.0744 192.31 52.2334 192.804 52.4707C192.992 52.5417 193.168 52.6538 193.32 52.801C192.64 52.5522 191.942 52.3764 191.235 52.2756C189.524 52.0669 187.812 52.6527 186.47 53.9053C185.129 55.1579 184.268 56.9759 184.075 58.9632C184.01 59.787 184.008 60.6158 184.069 61.4401Z" fill="#455A64"/>
<path d="M213.471 168.127L206.492 136.761L208.906 124.489L212.386 101.454C212.386 101.454 209.19 96.3726 200.913 95.8847L200.358 91.2236L186.187 91.8016L185.922 96.2074C183.818 96.8149 181.847 97.9309 180.139 99.4828C178.43 101.035 177.022 102.988 176.006 105.214L165.941 127.221L138.412 143.238L142.047 153.153C142.047 153.153 169.679 140.979 172.016 139.786C173.572 138.998 175.244 135.665 176.723 132.092C177.827 138.232 178.969 143.096 178.969 143.096L178.73 167.159L213.471 168.127Z" fill="#FCD34D"/>
<path d="M201.126 104.456C201.126 104.456 200.765 104.576 200.126 104.801C199.486 105.027 198.563 105.364 197.427 105.815C196.291 106.265 194.948 106.813 193.392 107.241C192.572 107.485 191.727 107.593 190.881 107.563C189.968 107.437 189.088 107.089 188.298 106.543C187.485 106.04 186.736 105.477 185.974 105.042C185.248 104.608 184.481 104.273 183.688 104.043C182.34 103.652 180.942 103.551 179.563 103.743C178.291 103.962 177.05 104.373 175.87 104.966C175.938 104.897 176.014 104.839 176.096 104.794C176.319 104.642 176.549 104.506 176.787 104.389C177.662 103.94 178.585 103.629 179.531 103.465C181.785 103.08 184.086 103.51 186.122 104.696C186.904 105.154 187.659 105.717 188.459 106.197C189.204 106.715 190.033 107.05 190.893 107.181C191.706 107.21 192.518 107.112 193.308 106.888C194.845 106.49 196.2 105.957 197.343 105.552C198.486 105.147 199.422 104.801 200.08 104.651C200.41 104.561 200.668 104.509 200.842 104.479C200.935 104.449 201.031 104.442 201.126 104.456Z" fill="#FAFAFA"/>
<path d="M205.393 120.376C205.393 120.421 204.851 120.263 203.857 120.203C202.458 120.161 201.063 120.381 199.725 120.856C197.744 121.587 195.818 122.506 193.966 123.603C191.686 124.995 189.24 125.984 186.709 126.538C186.036 126.647 185.356 126.69 184.676 126.665C184.011 126.634 183.351 126.52 182.707 126.328C181.505 125.928 180.362 125.318 179.317 124.519C177.322 123.018 175.637 121.516 173.946 120.894C172.647 120.293 171.213 120.216 169.872 120.676C169.392 120.885 168.935 121.16 168.51 121.494C168.601 121.377 168.703 121.271 168.813 121.179C169.124 120.91 169.465 120.693 169.827 120.533C171.194 120.004 172.676 120.038 174.023 120.631C175.766 121.254 177.503 122.777 179.485 124.211C180.504 124.984 181.619 125.571 182.791 125.952C183.412 126.137 184.048 126.245 184.689 126.275C185.349 126.3 186.01 126.257 186.664 126.148C189.161 125.598 191.577 124.633 193.837 123.28C195.704 122.19 197.648 121.289 199.647 120.586C201.014 120.127 202.438 119.947 203.857 120.053C204.239 120.087 204.619 120.155 204.993 120.256C205.129 120.282 205.263 120.323 205.393 120.376Z" fill="#FAFAFA"/>
<path d="M179.556 109.402C179.556 109.402 179.556 109.515 179.491 109.725C179.427 109.935 179.362 110.235 179.246 110.626C179.02 111.376 178.658 112.517 178.194 113.876C177.729 115.234 177.161 116.878 176.651 118.679C176.382 119.635 176.166 120.611 176.005 121.599C175.814 122.647 175.74 123.719 175.786 124.789C175.914 126.876 176.177 128.948 176.573 130.989C176.909 132.88 177.264 134.569 177.561 135.995C177.858 137.421 178.097 138.57 178.245 139.373C178.323 139.771 178.374 140.123 178.407 140.296C178.433 140.403 178.444 140.515 178.439 140.626C178.306 140.231 178.198 139.824 178.116 139.41L177.322 136.085C176.999 134.667 176.618 132.978 176.263 131.086C175.845 129.032 175.57 126.941 175.443 124.834C175.395 123.731 175.474 122.626 175.676 121.547C175.836 120.546 176.051 119.558 176.321 118.589C176.851 116.743 177.451 115.137 177.942 113.793C178.433 112.45 178.826 111.354 179.091 110.596C179.221 110.185 179.376 109.786 179.556 109.402Z" fill="#263238"/>
<path d="M163.791 143.531C163.623 143.558 163.452 143.535 163.294 143.463C162.859 143.305 162.456 143.05 162.106 142.713C161.582 142.216 161.127 141.629 160.756 140.971C160.337 140.14 160.045 139.231 159.891 138.284C159.735 137.376 159.519 136.483 159.246 135.612C159.002 134.92 158.635 134.295 158.167 133.781C157.725 133.32 157.182 133.009 156.599 132.88C156.599 132.88 156.773 132.82 157.096 132.88C157.55 132.985 157.973 133.225 158.322 133.578C158.844 134.093 159.257 134.74 159.53 135.47C159.838 136.351 160.076 137.263 160.24 138.194C160.388 139.1 160.66 139.972 161.047 140.776C161.384 141.418 161.802 141.997 162.286 142.495C162.606 142.84 162.969 143.123 163.365 143.336C163.623 143.463 163.797 143.493 163.791 143.531Z" fill="#FAFAFA"/>
<path d="M148.019 150.526C147.96 150.526 148.019 149.865 147.876 148.815C147.714 147.449 147.399 146.115 146.94 144.844C146.494 143.57 145.903 142.371 145.184 141.279C144.629 140.438 144.203 140.003 144.242 139.95C144.679 140.244 145.063 140.634 145.372 141.099C146.16 142.172 146.794 143.386 147.25 144.694C147.727 145.994 148.017 147.376 148.109 148.785C148.173 149.366 148.142 149.957 148.019 150.526Z" fill="#FAFAFA"/>
<path d="M206.582 136.476C206.582 136.476 206.175 136.476 205.445 136.581C204.412 136.697 203.39 136.921 202.392 137.249C201.1 137.647 199.654 138.27 198.014 138.96C196.24 139.761 194.402 140.357 192.527 140.739C189.101 141.347 185.599 140.997 182.313 139.718C181.323 139.326 180.361 138.847 179.434 138.285C179.104 138.082 178.859 137.909 178.691 137.797C178.523 137.684 178.439 137.587 178.439 137.587C178.794 137.751 179.141 137.936 179.479 138.142C180.421 138.646 181.389 139.083 182.378 139.448C185.647 140.64 189.107 140.948 192.494 140.349C194.349 139.968 196.168 139.387 197.93 138.615C199.57 137.947 201.062 137.339 202.353 136.971C203.366 136.662 204.405 136.478 205.452 136.423C205.736 136.403 206.02 136.403 206.304 136.423C206.398 136.426 206.491 136.444 206.582 136.476Z" fill="#FAFAFA"/>
<g opacity="0.3">
<path opacity="0.3" d="M186.923 96.2217C188.788 97.4359 190.888 98.0791 193.026 98.0909C195.164 98.1027 197.269 97.4828 199.144 96.2892C195.047 96.5244 190.945 96.5419 186.839 96.3418" fill="black"/>
</g>
<path d="M200.816 95.787C200.639 95.8922 200.45 95.968 200.255 96.0122C199.736 96.1876 199.208 96.3181 198.673 96.4025C196.909 96.6686 195.128 96.739 193.353 96.6127C191.274 96.5076 189.408 96.365 188.053 96.3575C186.697 96.35 185.857 96.4025 185.857 96.3575C186.045 96.2857 186.241 96.2453 186.438 96.2374C186.819 96.1773 187.368 96.1323 188.053 96.1023C189.415 96.0422 191.281 96.1398 193.366 96.2449C195.126 96.367 196.891 96.3344 198.647 96.1473C199.99 95.9597 200.803 95.7195 200.816 95.787Z" fill="#263238"/>
<path d="M192.126 130.381C192.507 131.259 214.839 151.967 221.243 157.889C221.466 158.096 221.651 158.352 221.789 158.642C221.926 158.932 222.013 159.25 222.044 159.58C222.075 159.909 222.05 160.242 221.97 160.56C221.89 160.878 221.757 161.174 221.579 161.432L206.678 182.936C206.322 183.453 205.804 183.785 205.238 183.859C204.672 183.934 204.103 183.745 203.657 183.334L175.114 157.064C174.885 156.853 174.695 156.59 174.556 156.291C174.417 155.993 174.331 155.664 174.305 155.326C174.278 154.987 174.311 154.646 174.401 154.323C174.492 154 174.638 153.702 174.83 153.446L192.126 130.381Z" fill="#263238"/>
<path d="M191.784 126.711C192.177 127.619 216.091 149.776 221.514 154.79C221.798 155.056 221.98 155.443 222.02 155.865C222.06 156.287 221.955 156.71 221.727 157.042L205.851 179.964C205.622 180.295 205.29 180.506 204.927 180.552C204.564 180.599 204.2 180.476 203.915 180.212L174.126 152.756C173.98 152.621 173.858 152.454 173.769 152.263C173.68 152.072 173.625 151.863 173.608 151.646C173.59 151.43 173.61 151.212 173.667 151.006C173.724 150.799 173.817 150.608 173.939 150.444L191.784 126.711Z" fill="#FCD34D"/>
<path opacity="0.4" d="M191.784 126.711C192.178 127.627 216.549 150.196 221.662 154.933C221.785 155.046 221.887 155.186 221.963 155.345C222.038 155.505 222.086 155.68 222.102 155.861C222.119 156.041 222.105 156.224 222.06 156.399C222.016 156.573 221.942 156.736 221.843 156.876L205.703 180.144C205.505 180.43 205.219 180.613 204.906 180.654C204.592 180.694 204.278 180.589 204.031 180.362L173.946 152.591C173.818 152.475 173.713 152.33 173.636 152.166C173.558 152.001 173.511 151.82 173.495 151.633C173.48 151.446 173.498 151.258 173.548 151.079C173.597 150.9 173.678 150.735 173.784 150.594L191.784 126.711Z" fill="black"/>
<path d="M194.25 127.116C201.823 134.449 222.295 153.386 222.295 153.386L206.426 176.301C205.967 176.959 205.304 177.381 204.579 177.476C203.855 177.572 203.127 177.333 202.553 176.811L175.011 151.427C174.716 151.154 174.471 150.815 174.292 150.429C174.113 150.044 174.003 149.62 173.969 149.184C173.934 148.747 173.976 148.308 174.092 147.891C174.208 147.474 174.396 147.088 174.643 146.758L189.021 127.626C189.665 126.768 190.571 126.235 191.547 126.139C192.523 126.044 193.492 126.394 194.25 127.116Z" fill="#455A64"/>
<path d="M213.212 144.941L213.612 148.184L220.869 155.427L222.296 153.363L213.212 144.941Z" fill="#FAFAFA"/>
<path d="M191.997 176.946L198.841 170.311L195.516 161.109L190.906 165.973C189.825 166.307 188.721 166.53 187.607 166.641C187.034 166.708 186.455 166.657 185.896 166.491C185.198 166.32 184.522 166.039 183.888 165.658C183.34 165.23 182.636 165.808 182.843 166.453C183.049 167.099 184.534 168.315 186.626 168.705C188.505 169.043 186.38 170.657 185.173 171.512C185.067 171.587 184.988 171.706 184.952 171.844C184.917 171.983 184.926 172.132 184.98 172.263C185.606 173.914 188.072 179.326 191.997 176.946Z" fill="#FFBE9D"/>
<path d="M202.856 111.796C202.346 103.54 208.938 95.1636 212.786 102.106C217.008 109.717 226.26 127.626 228.539 139.785C229.604 145.452 200.384 172.473 198.582 174.139C198.531 174.191 198.059 173.441 198.021 173.388L190.796 164.682C190.764 164.629 192.494 162.573 192.539 162.52L213.115 139.087C213.129 139.064 213.137 139.037 213.137 139.008C213.137 138.98 213.129 138.952 213.115 138.93C212.424 137.466 203.341 118.199 202.856 111.991V111.796Z" fill="#FCD34D"/>
<path d="M219.112 138.929C219.067 139.08 217.705 138.577 215.968 138.532C214.232 138.487 212.85 138.869 212.811 138.712C212.773 138.554 214.161 137.916 215.988 137.961C217.815 138.006 219.112 138.802 219.112 138.929Z" fill="#263238"/>
<path d="M217.822 141.572C217.712 141.677 216.879 140.603 215.543 139.815C214.207 139.027 212.961 138.832 212.993 138.667C213.025 138.502 214.329 138.464 215.756 139.335C217.183 140.206 217.919 141.504 217.822 141.572Z" fill="#263238"/>
<path d="M213.115 139.088C213.025 138.951 212.95 138.802 212.889 138.645L212.302 137.354L210.21 132.573C208.454 128.482 206.059 122.898 203.418 116.728C202.035 113.858 201.206 110.671 200.991 107.391C200.81 104.389 201.559 101.544 202.927 99.8852C203.54 99.1213 204.308 98.5484 205.161 98.2189C205.8 97.9661 206.477 97.8714 207.15 97.9412C207.573 97.9833 207.987 98.105 208.376 98.3015C208.512 98.3691 208.602 98.4441 208.667 98.4816C208.731 98.5192 208.764 98.5492 208.757 98.5567C208.245 98.2977 207.7 98.1404 207.143 98.0913C206.484 98.0452 205.825 98.1603 205.206 98.4291C204.393 98.7653 203.663 99.3299 203.082 100.073C201.791 101.717 201.068 104.456 201.262 107.406C201.51 110.629 202.346 113.753 203.715 116.57C206.33 122.755 208.693 128.362 210.423 132.468C211.256 134.479 211.934 136.115 212.418 137.301L212.947 138.63C213.013 138.777 213.069 138.93 213.115 139.088Z" fill="#263238"/>
<g opacity="0.3">
<path opacity="0.3" d="M201.345 107.158C200.596 114.476 200.054 121.877 200.635 129.21C200.945 133.075 204.464 137.917 207.233 140.086L206.491 136.761C206.898 134.607 208.253 127.799 208.253 127.799C208.253 127.799 205.729 121.99 204.722 119.865C202.785 115.981 201.631 111.636 201.345 107.158Z" fill="black"/>
</g>
<path d="M226.479 132.505C226.479 132.505 226.337 132.693 226.034 132.985C225.885 133.128 225.692 133.293 225.459 133.473C225.227 133.653 224.969 133.864 224.665 134.066C223.958 134.55 223.22 134.97 222.457 135.32C221.522 135.746 220.559 136.084 219.578 136.333C218.595 136.573 217.598 136.718 216.595 136.768C215.773 136.805 214.95 136.76 214.135 136.633C213.822 136.59 213.512 136.525 213.206 136.438C212.973 136.39 212.745 136.323 212.521 136.235C212.321 136.188 212.129 136.102 211.953 135.98C211.953 135.913 212.792 136.205 214.168 136.355C214.97 136.442 215.777 136.462 216.582 136.416C217.565 136.336 218.542 136.18 219.507 135.95C220.472 135.704 221.421 135.38 222.347 134.982C223.101 134.651 223.837 134.265 224.549 133.826C225.763 133.083 226.441 132.452 226.479 132.505Z" fill="#FAFAFA"/>
<path d="M214.484 157.657C214.22 156.973 214.004 156.265 213.838 155.54C213.385 153.825 212.818 152.153 212.14 150.541C211.761 149.663 211.314 148.826 210.804 148.042C210.388 147.408 209.904 146.838 209.364 146.346C208.435 145.512 207.737 145.19 207.77 145.122C207.944 145.15 208.112 145.214 208.267 145.31C208.702 145.531 209.118 145.802 209.506 146.12C210.085 146.601 210.604 147.172 211.049 147.817C211.585 148.608 212.051 149.46 212.437 150.361C213.13 151.993 213.675 153.703 214.064 155.465C214.267 156.177 214.408 156.912 214.484 157.657Z" fill="#FAFAFA"/>
<path d="M206.846 165.95C206.255 165.792 205.686 165.54 205.155 165.2C203.842 164.467 202.621 163.531 201.526 162.415C200.431 161.298 199.469 160.015 198.666 158.602C198.309 158.036 198.026 157.411 197.827 156.748C197.872 156.748 198.215 157.409 198.867 158.444C200.546 161.151 202.734 163.377 205.265 164.952C206.201 165.582 206.846 165.89 206.846 165.95Z" fill="#FAFAFA"/>
<path d="M214.09 104.561C213.937 104.682 213.767 104.769 213.586 104.816C213.112 104.986 212.626 105.107 212.134 105.176C210.888 105.394 209.145 105.266 207.272 105.386C206.393 105.43 205.523 105.619 204.69 105.949C204.017 106.225 203.393 106.642 202.85 107.18C202.364 107.701 201.956 108.312 201.643 108.989C201.655 108.775 201.71 108.566 201.804 108.381C202.019 107.852 202.32 107.376 202.688 106.978C203.235 106.381 203.878 105.916 204.58 105.612C205.436 105.255 206.332 105.048 207.24 104.996C209.177 104.876 210.875 105.041 212.101 104.899C213.328 104.756 214.071 104.486 214.09 104.561Z" fill="#FAFAFA"/>
<path d="M220.759 118.529C220.711 118.757 220.614 118.967 220.475 119.137C220.13 119.624 219.686 120.003 219.184 120.241C218.434 120.562 217.646 120.747 216.847 120.789C215.894 120.869 214.946 121.012 214.006 121.216C212.301 121.606 210.638 122.215 209.048 123.033C207.828 123.663 207.111 124.151 207.111 124.099C207.25 123.936 207.409 123.8 207.583 123.693C208.033 123.361 208.498 123.058 208.977 122.785C210.558 121.877 212.236 121.221 213.968 120.834C215.995 120.323 217.906 120.556 219.133 119.978C219.783 119.686 220.347 119.183 220.759 118.529Z" fill="#FAFAFA"/>
<path d="M61.2041 43.9072C62.5247 44.0249 63.8112 44.4519 64.9862 45.1627C66.1611 45.8734 67.2003 46.8531 68.0411 48.0429C69.7022 50.4336 70.8705 53.2348 71.4563 56.2317C72.7476 61.9585 71.876 68.7062 70.4298 74.3805C65.1165 72.1288 61.882 65.4787 60.4229 61.9961C58.1181 56.4793 56.8269 44.898 61.2364 43.9072" fill="#FCD34D"/>
<path d="M78.0088 81.391C77.2225 79.9409 76.7787 78.2756 76.722 76.5626C76.6654 74.8497 76.9978 73.1496 77.686 71.6336C78.4 70.1332 79.3637 68.8131 80.5209 67.75C81.678 66.6869 83.0056 65.9021 84.4262 65.4413C85.7174 64.991 87.241 64.8108 88.3644 65.704C88.8664 66.1591 89.2558 66.7607 89.4928 67.4476C89.7298 68.1345 89.8061 68.8822 89.7137 69.6145C89.5035 71.0797 88.9646 72.4544 88.1513 73.6001C85.5302 77.6532 82.3409 81.0157 78.0088 81.391Z" fill="#FCD34D"/>
<g opacity="0.3">
<path opacity="0.3" d="M78.0088 81.391C77.2225 79.9409 76.7787 78.2756 76.722 76.5626C76.6654 74.8497 76.9978 73.1496 77.686 71.6336C78.4 70.1332 79.3637 68.8131 80.5209 67.75C81.678 66.6869 83.0056 65.9021 84.4262 65.4413C85.7174 64.991 87.241 64.8108 88.3644 65.704C88.8664 66.1591 89.2558 66.7607 89.4928 67.4476C89.7298 68.1345 89.8061 68.8822 89.7137 69.6145C89.5035 71.0797 88.9646 72.4544 88.1513 73.6001C85.5302 77.6532 82.3409 81.0157 78.0088 81.391Z" fill="white"/>
</g>
<path d="M72.3407 87.4633C70.6862 84.4026 68.4283 81.8441 65.754 79.9998C63.0797 78.1555 60.0659 77.0784 56.9623 76.8577C55.3806 76.7676 53.4954 77.1204 52.824 78.7791C52.1525 80.4379 53.1209 82.3669 54.2185 83.6954C56.5504 86.4119 59.5216 88.2656 62.7579 89.0229C65.9942 89.7802 69.3509 89.4073 72.4053 87.9511" fill="#FCD34D"/>
<g opacity="0.3">
<path opacity="0.3" d="M72.3407 87.4633C70.6862 84.4026 68.4283 81.8441 65.754 79.9998C63.0797 78.1555 60.0659 77.0784 56.9623 76.8577C55.3806 76.7676 53.4954 77.1204 52.824 78.7791C52.1525 80.4379 53.1209 82.3669 54.2185 83.6954C56.5504 86.4119 59.5216 88.2656 62.7579 89.0229C65.9942 89.7802 69.3509 89.4073 72.4053 87.9511" fill="white"/>
</g>
<path d="M78.0547 101.056C77.9496 100.659 77.8761 100.252 77.8352 99.8399C77.719 99.0518 77.5576 97.9109 77.3962 96.4998C76.9098 92.8109 76.8381 89.0642 77.1832 85.3538C77.5551 81.6143 78.7811 78.0586 80.734 75.0559C81.3341 74.1611 82.0257 73.3546 82.7935 72.6541C83.0007 72.4613 83.2162 72.2809 83.4391 72.1137C83.5137 72.0473 83.5964 71.9942 83.6844 71.9561C82.6638 72.9241 81.7372 74.0189 80.9212 75.2211C79.0609 78.2255 77.8879 81.7303 77.5124 85.4063C77.1799 89.087 77.2211 92.8003 77.6351 96.4698C77.7707 97.8283 77.8804 98.9617 77.9644 99.8174C78.0198 100.227 78.05 100.641 78.0547 101.056Z" fill="#263238"/>
<path d="M62.876 52.6289C62.9543 52.7807 63.0234 52.9387 63.0826 53.1018C63.2181 53.4545 63.3989 53.9124 63.6184 54.4903C64.0768 55.6912 64.7224 57.4476 65.5101 59.6243C67.0789 63.9701 69.1771 70.0122 71.3657 76.7448C73.5543 83.4775 75.4202 89.6247 76.7178 94.0981C77.3634 96.3498 77.8799 98.1437 78.2221 99.3971C78.377 99.9976 78.5062 100.485 78.603 100.853C78.6588 101.017 78.6978 101.189 78.7192 101.364C78.6449 101.209 78.5844 101.045 78.5384 100.876C78.4287 100.515 78.2802 100.043 78.093 99.4497C77.7056 98.1662 77.1568 96.3798 76.4919 94.1957C75.1361 89.7523 73.2638 83.6201 71.0558 76.8949C68.8479 70.1698 66.8013 64.1352 65.2906 59.7368L63.4958 54.5579C63.3021 53.9724 63.1407 53.4996 63.018 53.1393C62.9544 52.9759 62.9067 52.8047 62.876 52.6289Z" fill="#263238"/>
<path d="M59.4806 81.6011C59.8216 81.5933 60.1626 81.6159 60.5006 81.6687C60.8977 81.7039 61.2923 81.7691 61.6821 81.8638C62.2067 81.9623 62.7262 82.0951 63.238 82.2616L64.1289 82.5468C64.4388 82.6519 64.7745 82.802 65.078 82.9296C65.7701 83.2246 66.4489 83.5603 67.1116 83.9354C70.1693 85.6664 72.8441 88.1907 74.93 91.3135C75.3883 92.0641 75.8403 92.7321 76.2212 93.4301C76.402 93.7754 76.5892 94.0982 76.7377 94.4284L77.1638 95.3891C77.4478 95.9896 77.6286 96.575 77.8094 97.0704C77.9677 97.4975 78.1014 97.9363 78.2097 98.3839C78.3258 98.7579 78.4164 99.1418 78.4808 99.5323C78.4033 99.5323 78.0289 97.9186 76.9443 95.5167C76.8022 95.2165 76.6602 94.9013 76.5053 94.5785C76.3503 94.2558 76.1631 93.948 75.9758 93.6103C75.5763 92.8944 75.1454 92.203 74.6846 91.5387C72.6009 88.4892 69.9703 86.0047 66.9761 84.2581C66.2788 83.8829 65.6267 83.5076 64.9747 83.2374C64.6583 83.1023 64.3291 82.9446 64.0515 82.8321L63.1734 82.5243C60.9396 81.7812 59.4676 81.6912 59.4806 81.6011Z" fill="#263238"/>
<path d="M67.9443 95.5088H87.0737V108.524C87.0737 110.97 86.2378 113.317 84.7497 115.046C83.2617 116.776 81.2436 117.748 79.1392 117.748H75.8789C73.7745 117.748 71.7563 116.776 70.2683 115.046C68.7803 113.317 67.9443 110.97 67.9443 108.524V95.5088Z" fill="#FCD34D"/>
<path opacity="0.3" d="M67.9443 95.5088H87.0737V108.524C87.0737 110.97 86.2378 113.317 84.7497 115.046C83.2617 116.776 81.2436 117.748 79.1392 117.748H75.8789C73.7745 117.748 71.7563 116.776 70.2683 115.046C68.7803 113.317 67.9443 110.97 67.9443 108.524V95.5088Z" fill="black"/>
<path d="M80.8696 95.5547C80.8278 95.7873 80.7537 96.0104 80.6501 96.2152C80.4068 96.7927 80.1217 97.3451 79.7979 97.8665C78.7332 99.6074 77.3225 101.024 75.6859 101.995C74.0493 102.965 72.2352 103.462 70.3979 103.443C69.8461 103.443 69.2953 103.388 68.7516 103.278C68.5486 103.256 68.3502 103.195 68.1641 103.098C68.1641 103.03 69.0163 103.226 70.3914 103.173C72.1807 103.111 73.9358 102.588 75.5301 101.642C77.1244 100.696 78.5182 99.3498 79.6107 97.7013C80.45 96.4554 80.8115 95.5547 80.8696 95.5547Z" fill="#FAFAFA"/>
<path d="M86.8923 110.566C86.6713 110.559 86.4529 110.508 86.2467 110.416C85.6963 110.211 85.1678 109.934 84.6714 109.59C82.9997 108.451 81.733 106.655 81.0997 104.526C80.4664 102.397 80.5081 100.075 81.2174 97.9785C81.4272 97.3532 81.6957 96.7566 82.0179 96.1996C82.1293 95.9901 82.2664 95.8005 82.4247 95.6367C82.0496 96.4226 81.7217 97.2377 81.4433 98.0761C80.8207 100.117 80.8138 102.344 81.424 104.39C82.0341 106.436 83.2248 108.18 84.8005 109.335C85.4725 109.801 86.1714 110.212 86.8923 110.566Z" fill="#FAFAFA"/>
<path d="M81.9927 117.141C81.9748 116.03 81.8404 114.926 81.5924 113.853C81.2812 112.71 80.7981 111.64 80.1656 110.693C79.3885 109.539 78.4287 108.569 77.3378 107.834C75.3206 106.521 72.9944 105.995 70.701 106.333C69.7525 106.516 68.8146 106.766 67.8926 107.083C68.1164 106.928 68.3547 106.802 68.6028 106.708C69.2711 106.422 69.9636 106.218 70.6687 106.1C73.0201 105.662 75.4299 106.162 77.5057 107.519C78.6367 108.284 79.6245 109.305 80.4109 110.521C81.0532 111.51 81.5306 112.63 81.8184 113.823C82.0095 114.625 82.0986 115.454 82.0831 116.285C82.0833 116.574 82.053 116.861 81.9927 117.141Z" fill="#FAFAFA"/>
<path d="M84.7169 117.749H24.501V320.952H84.7169V117.749Z" fill="#263238"/>
<path d="M117.043 117.749H51.1133V320.952H117.043V117.749Z" fill="#455A64"/>
<path d="M114.099 175.423H55.3418V217.372H114.099V175.423Z" fill="#455A64"/>
<path d="M75.1426 274.484H95.2662V275.543C95.2705 275.759 95.2374 275.974 95.1688 276.175C95.1002 276.376 94.9974 276.559 94.8667 276.713C94.736 276.868 94.58 276.989 94.408 277.072C94.2359 277.155 94.0513 277.196 93.8652 277.194H76.5371C76.169 277.194 75.8159 277.024 75.5556 276.721C75.2953 276.419 75.149 276.008 75.149 275.58V274.522L75.1426 274.484Z" fill="#263238"/>
<path d="M113.97 274.484C113.97 274.484 113.97 274.732 113.97 275.235C113.97 275.737 113.97 276.466 113.97 277.411C113.97 279.348 113.97 282.17 113.97 285.795C113.97 293.098 114.015 303.599 114.041 316.456V316.606H113.911L55.1611 316.651H54.9609V316.456C54.9609 301.61 54.9609 287.446 54.9609 274.559V274.379H55.1159L97.5065 274.424H109.605H112.833H113.653H113.924H113.634H112.795H109.567L97.4291 274.484L55.1417 274.612L55.2967 274.431C55.2967 287.319 55.2967 301.452 55.2967 316.328L55.1288 316.133L113.879 316.171L113.744 316.328C113.744 303.509 113.802 293.061 113.815 285.765C113.815 282.125 113.815 279.288 113.847 277.344C113.847 276.383 113.847 275.647 113.847 275.137C113.957 274.747 113.97 274.484 113.97 274.484Z" fill="#263238"/>
<path d="M94.4853 284.729H76.9893V290.224H94.4853V284.729Z" fill="#E0E0E0"/>
<path d="M114.099 222.116H55.3418V264.066H114.099V222.116Z" fill="#455A64"/>
<path d="M75.0653 227.558H95.1889V228.616C95.1889 229.044 95.0426 229.454 94.7823 229.757C94.522 230.06 94.1689 230.23 93.8008 230.23H76.434C76.0658 230.23 75.7128 230.06 75.4524 229.757C75.1921 229.454 75.0459 229.044 75.0459 228.616V227.558H75.0653Z" fill="#263238"/>
<path d="M114.525 227.558C114.525 227.558 114.525 227.805 114.525 228.308C114.525 228.811 114.525 229.539 114.525 230.485C114.525 232.421 114.525 235.244 114.557 238.869C114.557 246.172 114.602 256.672 114.628 269.53V269.68H114.525L55.7744 269.687H55.5742V269.492C55.5742 254.646 55.5742 240.483 55.5742 227.595V227.415H55.7292L98.1198 227.46L110.219 227.498H113.447H114.266H114.525H114.234H113.395H110.167L98.0294 227.558L55.7421 227.693L55.897 227.505C55.897 240.392 55.897 254.526 55.897 269.402L55.7292 269.207L114.48 269.245L114.344 269.402C114.376 256.582 114.402 246.134 114.415 238.839C114.415 235.198 114.415 232.361 114.415 230.417C114.415 229.457 114.415 228.721 114.415 228.211C114.525 227.828 114.525 227.558 114.525 227.558Z" fill="#263238"/>
<path d="M93.8778 237.48H76.3818V242.975H93.8778V237.48Z" fill="#E0E0E0"/>
<path d="M75.2783 123.326H95.4019V124.384C95.4019 124.812 95.2557 125.223 94.9954 125.526C94.7351 125.828 94.382 125.998 94.0139 125.998H76.6664C76.2982 125.998 75.9452 125.828 75.6849 125.526C75.4246 125.223 75.2783 124.812 75.2783 124.384V123.326Z" fill="#263238"/>
<path d="M114.099 123.326C114.099 123.326 114.099 123.566 114.099 124.076C114.099 124.587 114.099 125.307 114.099 126.261C114.099 128.189 114.099 131.019 114.131 134.644C114.131 141.94 114.17 152.441 114.202 165.298V165.448H114.066L55.3161 165.485H55.1289V165.29C55.1289 150.444 55.1289 136.288 55.1289 123.401V123.221H55.2839L97.668 123.266H109.773H113.001H113.821H114.092H113.802H112.969H109.741L97.6099 123.326L55.3226 123.461L55.4775 123.281C55.4775 136.168 55.4775 150.301 55.4775 165.17L55.3097 164.975L114.06 165.02L113.931 165.17C113.931 152.35 113.983 141.902 114.002 134.607C114.002 130.974 114.002 128.137 114.034 126.193C114.034 125.232 114.034 124.497 114.034 123.986C114.034 123.476 114.099 123.326 114.099 123.326Z" fill="#263238"/>
<path d="M93.7743 132.228H76.2783V137.722H93.7743V132.228Z" fill="#E0E0E0"/>
<path d="M55.5293 189.024V173.262C55.5293 172.609 55.7524 171.983 56.1495 171.521C56.5467 171.059 57.0853 170.8 57.6469 170.8H93.7622C94.3153 170.8 94.8457 171.055 95.2368 171.51C95.6278 171.965 95.8475 172.581 95.8475 173.224V188.986L55.5293 189.024Z" fill="#FCD34D"/>
<path opacity="0.3" d="M55.5293 189.024V173.262C55.5293 172.609 55.7524 171.983 56.1495 171.521C56.5467 171.059 57.0853 170.8 57.6469 170.8H93.7622C94.3153 170.8 94.8457 171.055 95.2368 171.51C95.6278 171.965 95.8475 172.581 95.8475 173.224V188.986L55.5293 189.024Z" fill="black"/>
<path d="M59.2217 189.024V175.168C59.2216 175.103 59.2429 175.04 59.2813 174.993C59.3198 174.945 59.3723 174.917 59.4283 174.913H95.8471V189.024H59.2217Z" fill="#FAFAFA"/>
<path d="M104.053 172.256L103.013 189.023H63.8184L64.8642 173.464C64.9675 171.963 65.8585 170.822 66.9237 170.83L85.9886 170.95C85.9556 170.506 86.0717 170.066 86.3125 169.72C86.5533 169.374 86.9 169.15 87.2798 169.096H102C103.207 169.111 104.156 170.559 104.053 172.256Z" fill="#FCD34D"/>
<path d="M71.5791 187.395V171.633C71.5791 171.309 71.6341 170.988 71.7409 170.689C71.8477 170.39 72.0043 170.118 72.2016 169.889C72.3989 169.661 72.6331 169.479 72.8908 169.356C73.1485 169.233 73.4245 169.17 73.7032 169.171H109.819C110.372 169.171 110.902 169.426 111.293 169.881C111.684 170.336 111.904 170.952 111.904 171.595V187.402L71.5791 187.395Z" fill="#FCD34D"/>
<path opacity="0.3" d="M71.5791 187.395V171.633C71.5791 171.309 71.6341 170.988 71.7409 170.689C71.8477 170.39 72.0043 170.118 72.2016 169.889C72.3989 169.661 72.6331 169.479 72.8908 169.356C73.1485 169.233 73.4245 169.17 73.7032 169.171H109.819C110.372 169.171 110.902 169.426 111.293 169.881C111.684 170.336 111.904 170.952 111.904 171.595V187.402L71.5791 187.395Z" fill="black"/>
<path d="M75.2784 187.395V173.532C75.2776 173.5 75.2823 173.468 75.2923 173.438C75.3022 173.408 75.3173 173.38 75.3366 173.357C75.3559 173.334 75.3789 173.316 75.4044 173.303C75.4299 173.291 75.4573 173.284 75.485 173.284H111.904V187.395H75.2784Z" fill="#FAFAFA"/>
<path d="M120.109 170.612L119.044 187.395H79.8682L80.9528 171.828C80.9506 171.17 81.161 170.535 81.5423 170.048C81.9237 169.562 82.4483 169.26 83.0123 169.201L102.077 169.314C102.044 168.871 102.16 168.43 102.401 168.084C102.642 167.738 102.989 167.515 103.368 167.46H118.069C119.263 167.46 120.212 168.924 120.109 170.612Z" fill="#FCD34D"/>
<path d="M93.917 188.303V172.541C93.9162 172.217 93.9703 171.896 94.0763 171.596C94.1824 171.297 94.3382 171.024 94.5349 170.795C94.7317 170.566 94.9654 170.384 95.2227 170.259C95.4801 170.135 95.756 170.071 96.0346 170.071H132.15C132.424 170.071 132.696 170.134 132.949 170.257C133.203 170.379 133.433 170.558 133.627 170.784C133.82 171.01 133.974 171.278 134.078 171.573C134.183 171.868 134.236 172.184 134.235 172.503V188.303H93.917Z" fill="#FCD34D"/>
<path opacity="0.3" d="M93.917 188.303V172.541C93.9162 172.217 93.9703 171.896 94.0763 171.596C94.1824 171.297 94.3382 171.024 94.5349 170.795C94.7317 170.566 94.9654 170.384 95.2227 170.259C95.4801 170.135 95.756 170.071 96.0346 170.071H132.15C132.424 170.071 132.696 170.134 132.949 170.257C133.203 170.379 133.433 170.558 133.627 170.784C133.82 171.01 133.974 171.278 134.078 171.573C134.183 171.868 134.236 172.184 134.235 172.503V188.303H93.917Z" fill="black"/>
<path d="M97.6163 188.303V174.448C97.6145 174.383 97.6345 174.32 97.6718 174.273C97.7092 174.225 97.7611 174.196 97.8165 174.192H134.235V188.303H97.6163Z" fill="#FAFAFA"/>
<path d="M136.391 170.582H99.4492V195.756H136.391V170.582Z" fill="#E0E0E0"/>
<path d="M139.432 159.406H102.206V186.247H139.432V159.406Z" fill="#F5F5F5"/>
<path d="M108.992 184.55C108.895 184.55 108.824 179.911 108.824 174.192C108.824 168.473 108.895 163.834 108.992 163.834C109.089 163.834 109.16 168.473 109.16 174.192C109.16 179.911 109.082 184.55 108.992 184.55Z" fill="#263238"/>
<path d="M111.633 184.55C111.542 184.55 111.465 179.911 111.465 174.192C111.465 168.473 111.542 163.834 111.633 163.834C111.723 163.834 111.801 168.473 111.801 174.192C111.801 179.911 111.73 184.55 111.633 184.55Z" fill="#263238"/>
<path d="M114.524 184.55C114.427 184.55 114.356 179.911 114.356 174.192C114.356 168.473 114.427 163.834 114.524 163.834C114.621 163.834 114.692 168.473 114.692 174.192C114.692 179.911 114.608 184.55 114.524 184.55Z" fill="#263238"/>
<path d="M117.397 184.55C117.307 184.55 117.229 179.911 117.229 174.192C117.229 168.473 117.307 163.834 117.397 163.834C117.488 163.834 117.565 168.473 117.565 174.192C117.565 179.911 117.488 184.55 117.397 184.55Z" fill="#263238"/>
<path d="M120.277 184.55C120.187 184.55 120.109 179.911 120.109 174.192C120.109 168.473 120.187 163.834 120.277 163.834C120.368 163.834 120.445 168.473 120.445 174.192C120.445 179.911 120.374 184.55 120.277 184.55Z" fill="#263238"/>
<path d="M123.163 184.55C123.066 184.55 122.995 179.911 122.995 174.192C122.995 168.473 123.066 163.834 123.163 163.834C123.26 163.834 123.331 168.473 123.331 174.192C123.331 179.911 123.253 184.55 123.163 184.55Z" fill="#263238"/>
<path d="M126.042 184.55C125.951 184.55 125.874 179.911 125.874 174.192C125.874 168.473 125.951 163.834 126.042 163.834C126.132 163.834 126.21 168.473 126.21 174.192C126.21 179.911 126.145 184.55 126.042 184.55Z" fill="#263238"/>
<path d="M128.922 184.55C128.831 184.55 128.754 179.911 128.754 174.192C128.754 168.473 128.831 163.834 128.922 163.834C129.012 163.834 129.09 168.473 129.09 174.192C129.09 179.911 129.019 184.55 128.922 184.55Z" fill="#263238"/>
<path d="M131.807 184.55C131.71 184.55 131.633 179.911 131.633 174.192C131.633 168.473 131.71 163.834 131.807 163.834C131.904 163.834 131.975 168.473 131.975 174.192C131.975 179.911 131.898 184.55 131.807 184.55Z" fill="#263238"/>
<path d="M134.687 184.55C134.591 184.55 134.52 179.911 134.52 174.192C134.52 168.473 134.591 163.834 134.687 163.834C134.784 163.834 134.855 168.473 134.855 174.192C134.855 179.911 134.778 184.55 134.687 184.55Z" fill="#263238"/>
<path d="M142.44 174.5L141.407 188.303H102.206L103.258 175.491C103.307 174.897 103.544 174.345 103.924 173.944C104.303 173.543 104.798 173.321 105.311 173.322L124.383 173.419C124.383 173.021 124.519 172.639 124.761 172.358C125.003 172.076 125.331 171.918 125.674 171.918H140.374C140.66 171.915 140.943 171.981 141.205 172.112C141.467 172.243 141.703 172.436 141.897 172.679C142.092 172.922 142.241 173.21 142.334 173.523C142.428 173.837 142.464 174.169 142.44 174.5Z" fill="#FCD34D"/>
<path d="M113.95 180.632H55.1934V222.581H113.95V180.632Z" fill="#263238"/>
<path d="M149.504 180.632H90.7471V222.581H149.504V180.632Z" fill="#455A64"/>
<path d="M149.504 222.402C149.504 222.402 149.504 222.139 149.504 221.651C149.504 221.163 149.504 220.413 149.504 219.459C149.504 217.538 149.504 214.723 149.504 211.113C149.504 203.893 149.459 193.505 149.433 180.775L149.562 180.933L90.8116 180.97L90.9795 180.775C90.9795 195.531 90.9795 209.604 90.9795 222.409L90.8245 222.229L133.086 222.319L145.217 222.364H148.445H149.278H149.568H149.297H148.477H145.249L133.151 222.417L90.7858 222.499H90.6309V222.402C90.6309 209.597 90.6309 195.524 90.6309 180.767V180.572H90.8052L149.556 180.617H149.691V180.767C149.691 193.527 149.633 203.953 149.62 211.196C149.62 214.791 149.62 217.598 149.588 219.512C149.588 220.458 149.588 221.178 149.588 221.674C149.517 222.139 149.504 222.402 149.504 222.402Z" fill="#263238"/>
<path d="M111.891 180.632H132.014V181.555C132.014 181.983 131.868 182.393 131.608 182.696C131.347 182.999 130.994 183.169 130.626 183.169H113.279C112.911 183.169 112.557 182.999 112.297 182.696C112.037 182.393 111.891 181.983 111.891 181.555V180.632Z" fill="#263238"/>
<path d="M131.078 190.037H113.582V195.531H131.078V190.037Z" fill="#E0E0E0"/>
<path d="M130.349 154.49C129.802 157.112 129.476 159.789 129.374 162.484C129.374 162.829 129.374 163.234 129.632 163.422C129.891 163.609 130.278 163.092 130.491 162.784C130.904 162.236 132.428 159.166 132.428 159.166C133.498 159.052 134.495 158.486 135.229 157.574C135.963 156.662 136.384 155.468 136.411 154.22" fill="#FFBE9D"/>
<path d="M136.391 154.22C136.414 154.404 136.414 154.591 136.391 154.775C136.351 155.293 136.24 155.799 136.062 156.276C135.783 157.014 135.358 157.664 134.822 158.175C134.128 158.817 133.295 159.222 132.414 159.346L132.53 159.256C132.046 160.232 131.51 161.298 130.904 162.379C130.807 162.536 130.723 162.694 130.607 162.859C130.49 163.024 130.406 163.144 130.284 163.294C130.159 163.469 129.989 163.593 129.8 163.647C129.687 163.66 129.575 163.63 129.478 163.563C129.381 163.495 129.306 163.393 129.264 163.272C129.158 162.905 129.131 162.513 129.186 162.131C129.186 161.786 129.225 161.448 129.251 161.118C129.335 159.944 129.471 158.777 129.658 157.62C129.812 156.637 129.974 155.848 130.103 155.308C130.15 155.023 130.228 154.745 130.335 154.482C130.329 154.772 130.292 155.059 130.226 155.338C130.142 155.894 130.013 156.682 129.89 157.672C129.767 158.663 129.638 159.834 129.561 161.14L129.503 162.153C129.461 162.47 129.48 162.793 129.561 163.099C129.606 163.219 129.696 163.287 129.748 163.272C129.863 163.219 129.965 163.134 130.045 163.024L130.348 162.604C130.445 162.462 130.536 162.314 130.619 162.161C131.22 161.095 131.762 160.029 132.259 159.068L132.298 158.986H132.376C133.203 158.883 133.991 158.519 134.655 157.935C135.175 157.471 135.595 156.872 135.881 156.186C136.119 155.557 136.29 154.897 136.391 154.22Z" fill="#EB996E"/>
</svg>
