<svg width="306" height="356" viewBox="0 0 306 356" fill="none" xmlns="http://www.w3.org/2000/svg">
<g filter="url(#filter0_dd_1505_230199)">
<path d="M152.882 347.633C235.108 347.633 301.765 304.38 301.765 251.025C301.765 197.67 235.108 154.417 152.882 154.417C70.6569 154.417 4 197.67 4 251.025C4 304.38 70.6569 347.633 152.882 347.633Z" fill="#F5F5F5" fill-opacity="0.2"/>
<path d="M94.7023 244.046L155.9 202.309C156.316 202.062 156.774 201.933 157.24 201.933C157.705 201.933 158.164 202.062 158.579 202.309L203.208 232.725C203.371 232.789 203.512 232.912 203.612 233.076C203.711 233.24 203.765 233.437 203.765 233.639C203.765 233.841 203.711 234.038 203.612 234.202C203.512 234.366 203.371 234.488 203.208 234.553L142.01 276.259C141.595 276.507 141.136 276.636 140.671 276.636C140.206 276.636 139.747 276.507 139.332 276.259L94.7023 245.843C94.5489 245.773 94.4172 245.649 94.3243 245.489C94.2314 245.329 94.1816 245.139 94.1816 244.945C94.1816 244.75 94.2314 244.561 94.3243 244.4C94.4172 244.24 94.5489 244.117 94.7023 244.046Z" fill="#E0E0E0"/>
<path d="M246.263 278.712C268.895 278.712 287.241 266.209 287.241 250.786C287.241 235.364 268.895 222.861 246.263 222.861C223.632 222.861 205.286 235.364 205.286 250.786C205.286 266.209 223.632 278.712 246.263 278.712Z" fill="#E0E0E0"/>
<path d="M77.5003 291.19C76.7975 291.199 76.1046 290.994 75.488 290.596L25.6645 256.663C25.2999 256.462 24.9914 256.142 24.7753 255.741C24.5591 255.34 24.4443 254.875 24.4443 254.4C24.4443 253.925 24.5591 253.459 24.7753 253.058C24.9914 252.657 25.2999 252.338 25.6645 252.136L65.9558 224.659C66.5787 224.273 67.2714 224.072 67.9746 224.072C68.6778 224.072 69.3705 224.273 69.9934 224.659L119.817 258.591C120.181 258.794 120.489 259.115 120.705 259.516C120.921 259.918 121.035 260.383 121.035 260.859C121.035 261.334 120.921 261.8 120.705 262.201C120.489 262.603 120.181 262.923 119.817 263.126L79.5191 290.596C78.9001 290.994 78.2051 291.199 77.5003 291.19Z" fill="#E0E0E0"/>
<path d="M36.3733 233.827C36.3733 233.827 37.1051 222.552 33.8384 212.943C30.5717 203.334 25.0575 196.555 19.184 194.658C13.3105 192.761 7.42397 198.144 13.1145 204.02C18.8051 209.897 29.3565 216.961 31.8784 234.791L36.3733 233.827Z" fill="black"/>
<path d="M35.0929 230.565H35.1452C35.187 230.556 35.2268 230.537 35.2623 230.509C35.2978 230.481 35.3283 230.446 35.352 230.404C35.3757 230.362 35.3922 230.316 35.4004 230.266C35.4087 230.217 35.4085 230.167 35.4 230.117C32.068 210.413 21.3337 200.087 16.12 197.372C16.0433 197.344 15.9603 197.35 15.887 197.389C15.8137 197.428 15.7553 197.498 15.7229 197.585C15.6905 197.672 15.6865 197.77 15.7115 197.86C15.7366 197.95 15.789 198.027 15.8587 198.074C20.9613 200.727 31.4865 210.876 34.7663 230.264C34.7804 230.352 34.8214 230.432 34.8815 230.487C34.9416 230.542 35.0168 230.57 35.0929 230.565Z" fill="white"/>
<path d="M9.07028 225.576C9.32508 226.856 10.3182 227.719 11.259 228.437C12.1998 229.154 13.219 229.917 13.5848 231.159C14.3296 233.665 11.9972 236.434 12.827 238.871C13.0286 239.379 13.3156 239.832 13.6705 240.205C14.0255 240.578 14.4409 240.861 14.8915 241.038C15.6232 241.37 16.3942 241.547 17.1521 241.809C17.5195 241.884 17.8904 241.933 18.2627 241.956C19.3718 241.919 20.4608 242.309 21.3661 243.066C22.725 244.424 22.823 246.799 23.4633 248.75C23.8681 249.911 24.4813 250.955 25.2607 251.81C26.04 252.665 26.967 253.31 27.9778 253.701C29.6569 254.364 32.316 254.472 32.9105 253.701C33.3613 253.092 32.6819 250.801 32.7929 250.007C33.0603 247.967 33.1696 245.901 33.1196 243.838C33.0582 242.895 33.0956 241.947 33.2307 241.015C33.4093 239.987 33.5791 238.946 33.7403 237.892C33.9951 236.21 34.4655 234.413 34.1192 232.694C33.7337 230.804 32.0808 230.38 31.7345 228.545C31.5908 227.773 31.5777 227.049 31.4471 226.308C31.2299 225.216 30.7648 224.215 30.1018 223.412C29.4387 222.609 28.6028 222.035 27.6838 221.75C24.8222 220.925 21.8038 223.108 18.9291 222.205C18.2023 221.917 17.4891 221.582 16.7927 221.203C14.5387 220.162 11.7032 220.339 10.0046 222.383C9.6423 222.787 9.36815 223.288 9.20547 223.844C9.04279 224.4 8.99641 224.994 9.07028 225.576Z" fill="#455A64"/>
<path d="M32.329 248.303C32.3948 248.295 32.4557 248.258 32.4994 248.199C32.543 248.14 32.5662 248.064 32.5642 247.986C31.4274 229.385 16.0479 223.262 12.3108 222.745C12.2441 222.736 12.1773 222.759 12.1247 222.808C12.0721 222.857 12.038 222.929 12.0298 223.007C12.0262 223.046 12.0291 223.085 12.0383 223.122C12.0476 223.159 12.063 223.194 12.0836 223.224C12.1043 223.254 12.1298 223.279 12.1587 223.297C12.1876 223.316 12.2193 223.327 12.252 223.331C15.9172 223.84 30.9635 229.825 32.0742 248.01C32.0742 248.049 32.0808 248.087 32.0937 248.123C32.1066 248.16 32.1255 248.192 32.1492 248.219C32.173 248.247 32.2011 248.268 32.232 248.282C32.2629 248.297 32.2959 248.304 32.329 248.303Z" fill="white"/>
<path d="M16.1983 235.377C16.2501 235.379 16.301 235.36 16.3421 235.323C18.044 234.16 19.9421 233.455 21.9012 233.256C23.8604 233.058 25.8325 233.371 27.6775 234.174C27.7376 234.187 27.7997 234.174 27.8524 234.138C27.9052 234.101 27.9451 234.044 27.965 233.976C27.9848 233.907 27.9831 233.833 27.9603 233.766C27.9375 233.699 27.8951 233.644 27.8408 233.611C25.9251 232.78 23.8776 232.459 21.8445 232.671C19.8115 232.883 17.8433 233.623 16.0807 234.837C16.0536 234.859 16.0304 234.887 16.0124 234.919C15.9944 234.951 15.9821 234.987 15.976 235.025C15.9699 235.063 15.9703 235.102 15.977 235.14C15.9838 235.178 15.9968 235.214 16.0154 235.246C16.0353 235.283 16.0622 235.314 16.0939 235.337C16.1256 235.359 16.1614 235.373 16.1983 235.377Z" fill="white"/>
<path d="M38.4111 125.921L41.1159 127.764L108.645 81.7388L105.947 79.9033L38.4111 125.921Z" fill="#F5F5F5"/>
<path d="M74.8809 28.8969V102.917L77.5791 101.073V27.0537L74.8809 28.8969Z" fill="#EBEBEB"/>
<path d="M73.5283 27.9707L74.8807 28.8961V102.916L73.5283 101.99V27.9707Z" fill="#E0E0E0"/>
<path d="M74.8807 28.8965L77.579 27.0534L76.2331 26.1279L73.5283 27.9711L74.8807 28.8965Z" fill="#FAFAFA"/>
<path d="M111.343 2.19727L38.4111 51.9242V133.286L111.343 83.5819V2.19727ZM108.645 81.7388L41.1159 127.764V53.7288L108.645 7.71905V81.7388Z" fill="#EBEBEB"/>
<path d="M108.645 81.7395L105.947 79.904L105.94 9.56289L108.645 7.71973V81.7395Z" fill="#E0E0E0"/>
<path d="M111.343 2.19766L108.645 0.354492L35.7129 50.0583L38.4112 51.9015L111.343 2.19766Z" fill="#F5F5F5"/>
<path d="M35.7129 50.0586L38.4112 51.9018V133.286L35.7129 131.443V50.0586Z" fill="#E0E0E0"/>
<path opacity="0.1" d="M74.8809 30.7319L77.5726 28.8965V30.7396L74.8809 32.5751V30.7319Z" fill="black"/>
<path opacity="0.1" d="M74.8807 32.5756L73.5283 31.6502L74.8807 30.7324V32.5756Z" fill="black"/>
<path d="M246.701 61.9502C241.964 63.8011 240.821 64.2175 237.554 70.2329C234.405 76.0169 231.158 86.698 228.342 95.2738C223.116 93.5231 212.087 90.4846 208.435 87.9859C204.783 85.4872 205.168 83.7597 203.672 82.1479C201.961 80.2893 200.164 75.8318 198.766 78.2919C197.818 79.9423 199.772 81.0528 199.648 83.1428C199.524 85.2327 194.166 80.2816 191.919 78.4307C190.429 77.1968 186.973 81.0528 188.365 85.2404C189.586 88.9422 191.553 91.2944 195.074 93.045C198.792 94.9036 200.732 95.8367 205.404 98.3123C210.284 100.896 230.394 111.423 232.38 109.934C236.908 107.297 241.056 90.7545 243.8 83.6132C246.544 76.4719 244.708 69.0684 246.701 61.9502Z" fill="#FFA8A7"/>
<path d="M247.845 61.2412C245.813 64.3954 246.649 63.1229 246.022 67.9815C245.519 71.9069 238.535 109.626 232.217 111.223C229.44 111.909 209.429 101.105 204.574 97.9426C206.214 95.0892 207.841 91.5648 208.409 87.9633C214.224 90.647 224.253 93.2923 227.853 94.611C229.519 89.1278 231.557 83.498 233.471 77.9608C237.11 67.4262 239.449 62.6679 247.845 61.2412Z" fill="#FCD34D"/>
<path opacity="0.2" d="M247.845 61.2412C245.813 64.3954 246.649 63.1229 246.022 67.9815C245.519 71.9069 238.535 109.626 232.217 111.223C229.44 111.909 209.429 101.105 204.574 97.9426C206.214 95.0892 207.841 91.5648 208.409 87.9633C214.224 90.647 224.253 93.2923 227.853 94.611C229.519 89.1278 231.557 83.498 233.471 77.9608C237.11 67.4262 239.449 62.6679 247.845 61.2412Z" fill="black"/>
<path d="M274.984 232.301H267.189V248.056H274.984V232.301Z" fill="#FFA8A7"/>
<path d="M246.015 238.255L237.502 238.602L237.077 220.394L246.714 220.023L246.015 238.255Z" fill="#FFA8A7"/>
<path d="M274.03 125.096C274.03 133.472 274.52 182.165 274.52 182.165C274.69 184.571 276.656 188.859 276.813 197.543C277.035 210.137 275.389 239.789 275.389 239.789C274.106 240.534 272.701 240.938 271.271 240.971C269.842 241.004 268.424 240.667 267.118 239.982C267.118 239.982 261.283 198.036 259.931 185.574C258.768 174.692 255.449 146.243 255.449 146.243L250.425 183.214C250.977 187.64 251.117 192.124 250.843 196.587C250.497 202.355 246.799 231.005 246.799 231.005C243.583 232.257 240.116 232.295 236.881 231.113C236.881 231.113 236.104 186.461 236.019 181.178C235.921 175.147 238.149 123.276 238.149 123.276L274.03 125.096Z" fill="black"/>
<path d="M267.19 243.506V242.195C266.772 242.195 266.536 242.673 266.354 243.861C266.241 244.736 266.091 245.603 265.903 246.46C265.553 248.07 265.096 249.646 264.537 251.172C263.433 254.38 262.512 255.575 259.964 259.323C259.369 260.21 258.004 261.637 257.547 262.616C257.089 263.596 256.893 266.357 257.71 266.989C260.65 269.303 265.125 269.372 268.287 268.277C269.464 267.886 270.521 267.104 271.332 266.023C272.143 264.943 272.674 263.611 272.861 262.184C272.978 261.336 272.939 260.472 273.018 259.616C273.296 257.674 273.969 255.841 274.978 254.272C275.562 253.368 276.064 252.393 276.474 251.364C277.127 249.467 276.604 247.339 276.186 245.457C275.827 243.83 275.435 242.041 274.965 242.195V243.182C274.396 243.953 272.828 244.655 271.044 244.724C269.953 244.802 267.183 244.539 267.19 243.506Z" fill="#FCD34D"/>
<path opacity="0.6" d="M267.19 243.506V242.195C266.772 242.195 266.536 242.673 266.354 243.861C266.241 244.736 266.091 245.603 265.903 246.46C265.553 248.07 265.096 249.646 264.537 251.172C263.433 254.38 262.512 255.575 259.964 259.323C259.369 260.21 258.004 261.637 257.547 262.616C257.089 263.596 256.893 266.357 257.71 266.989C260.65 269.303 265.125 269.372 268.287 268.277C269.464 267.886 270.521 267.104 271.332 266.023C272.143 264.943 272.674 263.611 272.861 262.184C272.978 261.336 272.939 260.472 273.018 259.616C273.296 257.674 273.969 255.841 274.978 254.272C275.562 253.368 276.064 252.393 276.474 251.364C277.127 249.467 276.604 247.339 276.186 245.457C275.827 243.83 275.435 242.041 274.965 242.195V243.182C274.396 243.953 272.828 244.655 271.044 244.724C269.953 244.802 267.183 244.539 267.19 243.506Z" fill="black"/>
<path d="M237.417 235.47C236.973 235.47 236.613 236.241 235.64 237.468C234.182 239.206 232.488 240.644 230.629 241.725C227.441 243.606 221.247 246.506 218.438 247.994C216.687 248.928 216.772 251.426 218.581 252.845C220.391 254.264 224.768 255.298 230.015 253.91C232.876 253.138 236.6 250.054 238.959 250.2C241.317 250.347 245.721 250.331 247.452 248.912C249.184 247.493 248.491 244.478 248.001 241.879C247.465 239.041 246.93 234.622 246.133 234.815L246.093 235.871C245.068 237.707 239.697 238.37 237.45 237.02L237.417 235.47Z" fill="#FCD34D"/>
<path opacity="0.6" d="M237.417 235.47C236.973 235.47 236.613 236.241 235.64 237.468C234.182 239.206 232.488 240.644 230.629 241.725C227.441 243.606 221.247 246.506 218.438 247.994C216.687 248.928 216.772 251.426 218.581 252.845C220.391 254.264 224.768 255.298 230.015 253.91C232.876 253.138 236.6 250.054 238.959 250.2C241.317 250.347 245.721 250.331 247.452 248.912C249.184 247.493 248.491 244.478 248.001 241.879C247.465 239.041 246.93 234.622 246.133 234.815L246.093 235.871C245.068 237.707 239.697 238.37 237.45 237.02L237.417 235.47Z" fill="black"/>
<path d="M255.469 146.25C255.469 146.25 248.838 143.697 244.428 138.669C244.428 138.669 246.427 143.08 252.366 147.191L250.942 179.581L255.469 146.25Z" fill="#263238"/>
<path d="M261.147 60.8243C263.881 61.5617 266.577 62.4835 269.222 63.5852C271.234 64.4335 272.319 66.67 272.75 68.9219C274.122 76.0632 274.364 91.0476 274.364 91.0476L274.442 125.929C269.32 130.332 248.309 132.569 237.516 123.284C237.516 123.284 238.822 81.7315 238.822 75.2688C238.822 68.8062 241.867 61.0325 250.269 60.4541L261.147 60.8243Z" fill="#FCD34D"/>
<path opacity="0.4" d="M261.147 60.8243C263.881 61.5617 266.577 62.4835 269.222 63.5852C271.234 64.4335 272.319 66.67 272.75 68.9219C274.122 76.0632 274.364 91.0476 274.364 91.0476L274.442 125.929C269.32 130.332 248.309 132.569 237.516 123.284C237.516 123.284 238.822 81.7315 238.822 75.2688C238.822 68.8062 241.867 61.0325 250.269 60.4541L261.147 60.8243Z" fill="black"/>
<path d="M301.987 101.613C301.997 101.498 301.982 101.381 301.943 101.274C301.904 101.168 301.843 101.075 301.765 101.004L301.706 100.958L300.523 100.148C300.431 100.1 300.329 100.081 300.228 100.093C300.128 100.106 300.031 100.148 299.949 100.217L276.226 116.343L275.573 113.058C275.519 112.837 275.398 112.648 275.233 112.526L274.005 111.685C273.891 111.606 273.761 111.564 273.629 111.564C273.497 111.564 273.367 111.606 273.253 111.685L263.159 118.572C262.92 118.755 262.721 119.002 262.578 119.293C262.435 119.583 262.352 119.91 262.336 120.245V159.931C262.326 160.047 262.341 160.164 262.378 160.272C262.416 160.379 262.475 160.474 262.552 160.548L263.812 161.435C263.904 161.478 264.004 161.493 264.102 161.479C264.2 161.466 264.293 161.424 264.374 161.358L301.177 136.271C301.416 136.088 301.614 135.841 301.757 135.55C301.9 135.259 301.984 134.933 302 134.597L301.987 101.613Z" fill="#FCD34D"/>
<path opacity="0.5" d="M275.193 112.51C275.079 112.439 274.951 112.404 274.822 112.411C274.694 112.418 274.569 112.465 274.461 112.549L264.38 119.412C264.141 119.597 263.941 119.845 263.799 120.137L262.57 119.297C262.708 119 262.908 118.75 263.152 118.572L273.233 111.7C273.347 111.621 273.476 111.579 273.608 111.579C273.741 111.579 273.87 111.621 273.984 111.7L275.193 112.51Z" fill="white"/>
<path opacity="0.5" d="M301.706 100.957C301.615 100.928 301.521 100.921 301.429 100.939C301.336 100.956 301.248 100.997 301.17 101.058L277.447 117.207C277.351 117.283 277.241 117.33 277.127 117.345C277.012 117.359 276.896 117.341 276.788 117.291C276.681 117.24 276.586 117.16 276.51 117.057C276.435 116.954 276.382 116.83 276.356 116.698L276.245 116.343L299.942 100.209C300.05 100.131 300.174 100.086 300.301 100.078C300.376 100.077 300.45 100.098 300.517 100.14L301.706 100.957Z" fill="white"/>
<path d="M301.987 101.613V134.574C301.973 134.911 301.891 135.238 301.749 135.53C301.607 135.823 301.409 136.071 301.17 136.255L264.283 161.435C264.209 161.485 264.126 161.511 264.041 161.511C263.956 161.511 263.873 161.485 263.8 161.435C263.726 161.385 263.665 161.313 263.623 161.227C263.58 161.14 263.558 161.042 263.558 160.941V121.094C263.567 120.758 263.65 120.431 263.799 120.145C263.938 119.852 264.135 119.603 264.374 119.42L274.462 112.549C274.57 112.468 274.695 112.422 274.823 112.415C274.952 112.408 275.079 112.441 275.194 112.51C275.358 112.632 275.479 112.822 275.533 113.042L276.226 116.328L276.33 116.682C276.356 116.816 276.41 116.94 276.485 117.044C276.561 117.148 276.657 117.229 276.765 117.28C276.872 117.331 276.989 117.35 277.105 117.336C277.22 117.322 277.331 117.275 277.428 117.199L301.151 101.042C301.228 100.98 301.317 100.939 301.409 100.923C301.502 100.907 301.597 100.916 301.686 100.95H301.719C301.812 101.019 301.887 101.118 301.934 101.236C301.982 101.353 302 101.484 301.987 101.613Z" fill="#FCD34D"/>
<path d="M294.741 107.073L294.748 101.867L297.368 100.078V105.284L294.741 107.073Z" fill="#455A64"/>
<path opacity="0.2" d="M263.857 161.435H263.818L262.551 160.571C262.474 160.498 262.413 160.404 262.374 160.296C262.335 160.188 262.32 160.071 262.329 159.955V120.245C262.341 119.91 262.424 119.584 262.57 119.297L263.799 120.137C263.651 120.424 263.57 120.751 263.563 121.086V160.895C263.559 161.01 263.585 161.124 263.638 161.22C263.69 161.317 263.767 161.392 263.857 161.435Z" fill="black"/>
<path d="M288.881 107.513C282.106 74.7526 278.597 64.7039 270.346 64.8273C267.941 68.2283 270.476 78.7937 272.07 83.9376C272.07 83.9376 279.362 104.968 280.721 112.472C281.91 119.073 283.256 127.372 283.171 133.048C283.147 134.054 282.81 135.016 282.223 135.747C280.675 137.729 280.668 139.325 279.669 141.515C278.885 143.235 278.022 143.875 278.264 144.261C278.588 144.668 279.029 144.917 279.501 144.959C279.973 145 280.441 144.831 280.812 144.484C281.55 143.867 282.21 143.13 282.772 142.294C282.598 144.88 282.089 147.418 281.263 149.821L279.492 151.009C279.492 151.009 280.022 153.122 284.19 151.711C288.9 150.122 290.586 149.397 291.083 140.012C291.323 136.54 291.352 133.053 291.168 129.577C290.488 120.639 289.946 112.788 288.881 107.513Z" fill="#FFA8A7"/>
<path d="M269.222 63.5851C269.222 63.5851 275.513 63.4231 277.506 67.0246C279.806 71.1814 282.798 77.6286 286.653 93.8778C290.507 110.127 291.709 121.996 291.879 131.142C291.879 131.142 287.032 133.818 282.556 130.764C282.556 130.764 280.596 116.628 278.813 109.109C277.029 101.59 271.423 85.2866 271.423 85.2866C271.423 85.2866 266.086 74.8986 269.222 63.5851Z" fill="#FCD34D"/>
<path opacity="0.2" d="M269.222 63.5851C269.222 63.5851 275.513 63.4231 277.506 67.0246C279.806 71.1814 282.798 77.6286 286.653 93.8778C290.507 110.127 291.709 121.996 291.879 131.142C291.879 131.142 287.032 133.818 282.556 130.764C282.556 130.764 280.596 116.628 278.813 109.109C277.029 101.59 271.423 85.2866 271.423 85.2866C271.423 85.2866 266.086 74.8986 269.222 63.5851Z" fill="black"/>
<path d="M259.421 33.2623C259.421 35.5655 258.843 37.8169 257.759 39.732C256.675 41.647 255.134 43.1396 253.331 44.021C251.528 44.9023 249.545 45.133 247.631 44.6836C245.717 44.2343 243.96 43.1252 242.58 41.4966C241.2 39.868 240.261 37.7931 239.88 35.5341C239.499 33.2752 239.695 30.9338 240.441 28.8059C241.188 26.678 242.453 24.8593 244.075 23.5797C245.697 22.3002 247.605 21.6172 249.556 21.6172C252.172 21.6172 254.682 22.8441 256.532 25.028C258.382 27.2118 259.421 30.1738 259.421 33.2623Z" fill="#263238"/>
<path d="M266.608 41.5371C266.608 41.5371 265.008 50.4059 264.367 51.8635C263.94 52.7579 263.238 53.4256 262.407 53.7298L262.518 47.4985L266.608 41.5371Z" fill="#263238"/>
<path d="M264.603 28.8426C265.161 28.766 265.726 28.8409 266.256 29.0614C266.786 29.2819 267.266 29.6423 267.66 30.1151C268.967 31.7038 268.242 36.6703 266.609 41.5366L263.597 41.9453L264.603 28.8426Z" fill="#263238"/>
<path d="M262.688 41.9537C263.295 42.3779 264.158 41.0051 264.903 40.0874C265.647 39.1697 268.078 37.9126 269.287 40.928C270.495 43.9434 268.215 48.0616 266.307 48.7711C263.008 49.9896 262.511 47.4986 262.511 47.4986L262.27 61.9509C259.99 65.3982 254.867 69.4547 252.11 68.8917C249.909 68.429 249.425 64.0409 251.529 61.1797V56.9073C250.058 57.1828 248.567 57.2732 247.08 57.1772C244.656 56.7376 243.16 54.478 242.395 51.3778C241.213 46.4035 240.768 42.3779 241.742 32.5914C242.839 21.864 253.41 21.7946 259.121 25.9976C264.831 30.2006 262.688 41.9537 262.688 41.9537Z" fill="#FFA8A7"/>
<path d="M241.958 27.794C243.95 29.7066 245.224 30.7246 249.099 30.8788C251.73 30.9846 254.347 30.3779 256.749 29.1051C256.886 30.1937 257.28 31.2147 257.886 32.0511C258.644 32.9892 259.567 33.7186 260.591 34.1873C260.793 36.123 260.787 38.5986 260.891 40.542C260.924 41.1975 260.891 44.6062 262.237 43.6268C262.676 43.1738 263.062 42.6553 263.387 42.0844C263.859 41.387 264.365 40.7227 264.903 40.0947C265.942 38.9764 264.602 28.8506 264.602 28.8506C264.962 27.9594 265.085 26.9612 264.957 25.9859C264.829 25.0106 264.455 24.1035 263.884 23.3828C262.453 21.5242 260.467 19.2646 253.992 20.1669C249.379 20.8147 244.355 22.4805 240.272 20.1669C239.736 22.8969 240.527 26.4213 241.958 27.794Z" fill="#263238"/>
<path d="M264.596 29.6297L268.241 27.3161C268.125 27.0258 267.959 26.7665 267.756 26.5537C267.552 26.341 267.313 26.1792 267.055 26.0783C266.797 25.9774 266.524 25.9394 266.253 25.9665C265.981 25.9937 265.718 26.0855 265.478 26.2364C264.989 26.5592 264.624 27.0921 264.46 27.7242C264.296 28.3563 264.344 29.0388 264.596 29.6297Z" fill="#263238"/>
<path d="M251.543 56.8913C251.543 56.8913 256.952 55.6034 258.847 54.4158C259.961 53.7215 260.872 52.6464 261.46 51.3311C261.172 52.6368 260.666 53.8613 259.971 54.9325C258.586 57.0224 251.536 58.5571 251.536 58.5571L251.543 56.8913Z" fill="#F28F8F"/>
<path d="M252.091 39.6864C252.101 39.9549 252.178 40.214 252.312 40.4315C252.446 40.649 252.631 40.8153 252.844 40.9098C253.057 41.0043 253.289 41.0228 253.511 40.9631C253.733 40.9034 253.935 40.768 254.093 40.5738C254.25 40.3796 254.356 40.1351 254.397 39.8706C254.438 39.6061 254.412 39.3334 254.322 39.0861C254.233 38.8388 254.084 38.628 253.894 38.4797C253.704 38.3314 253.482 38.2522 253.254 38.252C252.939 38.2621 252.64 38.4184 252.423 38.687C252.205 38.9555 252.086 39.3147 252.091 39.6864Z" fill="#263238"/>
<path d="M253.254 35.0436L255.652 36.586C255.825 36.1977 255.863 35.7454 255.76 35.3241C255.656 34.9028 255.418 34.5452 255.096 34.3264C254.937 34.2195 254.761 34.1532 254.579 34.1317C254.397 34.1102 254.214 34.134 254.04 34.2016C253.866 34.2692 253.707 34.3791 253.571 34.5241C253.436 34.6692 253.328 34.8461 253.254 35.0436Z" fill="#263238"/>
<path d="M252 49.0098L249.314 50.1974C249.372 50.4109 249.465 50.6085 249.589 50.7781C249.713 50.9477 249.865 51.0857 250.035 51.1839C250.206 51.282 250.391 51.3381 250.581 51.3488C250.77 51.3596 250.96 51.3246 251.137 51.2462C251.498 51.077 251.789 50.7497 251.95 50.3328C252.11 49.916 252.128 49.4419 252 49.0098Z" fill="#F28F8F"/>
<path d="M242.507 36.1844L244.696 34.187C244.594 34.0103 244.463 33.8602 244.311 33.7463C244.158 33.6323 243.987 33.557 243.808 33.5251C243.629 33.4933 243.447 33.5055 243.273 33.561C243.098 33.6165 242.935 33.7141 242.794 33.8477C242.5 34.118 242.306 34.5122 242.252 34.9478C242.199 35.3834 242.29 35.8265 242.507 36.1844Z" fill="#263238"/>
<path d="M243.003 39.4234C243.012 39.6832 243.086 39.9341 243.214 40.1451C243.343 40.356 243.522 40.5176 243.728 40.6097C243.934 40.7019 244.158 40.7206 244.373 40.6635C244.588 40.6064 244.784 40.476 244.936 40.2885C245.089 40.101 245.191 39.8647 245.231 39.609C245.271 39.3533 245.246 39.0894 245.16 38.8501C245.074 38.6109 244.93 38.4068 244.746 38.2633C244.562 38.1198 244.347 38.0432 244.127 38.043C243.823 38.0511 243.534 38.2008 243.324 38.4595C243.113 38.7182 242.998 39.0647 243.003 39.4234Z" fill="#263238"/>
<path d="M249.014 38.3359L248.629 46.6803L244.938 45.1996L249.014 38.3359Z" fill="#F28F8F"/>
<path d="M247.681 67.9735C248.373 69.9092 249.641 70.6958 251.947 70.9966C253.104 71.0938 254.267 70.9122 255.363 70.4628C256.459 70.0133 257.466 69.3055 258.324 68.3822L255.455 65.0352L251.823 68.2665L251.516 64.665L247.681 67.9735Z" fill="#263238"/>
<path d="M249.491 66.917C249.156 68.082 249.027 69.3155 249.112 70.5416C249.218 71.6361 249.57 72.6773 250.131 73.557C250.497 73.8299 250.911 74.0003 251.342 74.0551C251.772 74.1099 252.207 74.0477 252.614 73.8732C253.353 73.1236 253.946 72.1948 254.353 71.15C254.76 70.1053 254.971 68.9692 254.973 67.8193L251.824 68.2435L249.491 66.917Z" fill="black"/>
<path d="M250.132 73.5566C250.132 73.5566 246.408 97.8572 246.251 99.816C246.094 101.775 248.394 108.747 249.818 108.808C251.242 108.87 254.032 102.561 254.071 100.772C254.11 98.9831 252.614 73.8728 252.614 73.8728L250.132 73.5566Z" fill="black"/>
<path d="M252.614 73.8728C252.213 74.0829 251.772 74.1643 251.336 74.1088C250.9 74.0533 250.485 73.8628 250.131 73.5566L250.072 73.9422C250.43 74.2788 250.852 74.5091 251.301 74.6138C251.75 74.7185 252.213 74.6945 252.653 74.5438L252.614 73.8728Z" fill="#263238"/>
<path d="M251.823 68.2439L262.322 58.7967L262.362 56.3135C262.362 56.3135 264.825 57.0847 265.373 62.1746C263.877 66.2851 261.159 69.7863 257.174 72.4701L254.972 67.8429L251.823 68.2439Z" fill="#FCD34D"/>
<path opacity="0.2" d="M251.823 68.2439L262.322 58.7967L262.362 56.3135C262.362 56.3135 264.825 57.0847 265.373 62.1746C263.877 66.2851 261.159 69.7863 257.174 72.4701L254.972 67.8429L251.823 68.2439Z" fill="black"/>
<path d="M251.542 57.5088C251.542 57.5088 249.073 58.8584 248.021 60.9098C246.969 62.9612 246.976 69.6166 246.976 69.6166L249.491 66.9174L251.823 68.2439C251.601 65.6372 251.529 61.1643 251.529 61.1643L251.542 57.5088Z" fill="#FCD34D"/>
<path opacity="0.2" d="M251.542 57.5088C251.542 57.5088 249.073 58.8584 248.021 60.9098C246.969 62.9612 246.976 69.6166 246.976 69.6166L249.491 66.9174L251.823 68.2439C251.601 65.6372 251.529 61.1643 251.529 61.1643L251.542 57.5088Z" fill="black"/>
<path d="M140.672 270.244L102.014 243.9V100.881L140.672 127.225V270.244Z" fill="#263238"/>
<path d="M140.672 127.224L195.898 89.5898V232.609L140.672 270.243V127.224Z" fill="black"/>
<path d="M195.898 89.5903L140.672 127.225L102.014 100.881L157.24 63.2461L195.898 89.5903Z" fill="#455A64"/>
<path d="M146.192 219.915L190.378 189.808V226.054L191.39 226.748L147.212 256.856L146.192 256.162V219.915Z" fill="#263238"/>
<path d="M147.212 220.61L191.391 190.502V226.748L147.212 256.856V220.61Z" fill="#455A64"/>
<g opacity="0.05">
<path opacity="0.05" d="M147.212 220.61L191.391 190.502V226.748L147.212 256.856V220.61Z" fill="black"/>
</g>
<path d="M164.505 214.948L172.019 209.828C172.992 209.164 173.783 209.473 173.783 210.506C173.711 211.148 173.514 211.76 173.207 212.296C172.899 212.831 172.49 213.275 172.012 213.591L164.505 218.712C163.532 219.383 162.741 219.074 162.741 218.033C162.814 217.393 163.011 216.782 163.317 216.247C163.623 215.712 164.03 215.267 164.505 214.948Z" fill="#263238"/>
<path d="M146.192 176.15L190.378 146.042V182.288L191.39 182.982L147.212 213.09L146.192 212.396V176.15Z" fill="#263238"/>
<path d="M147.212 176.844L191.391 146.736V182.983L147.212 213.09V176.844Z" fill="#455A64"/>
<g opacity="0.05">
<path opacity="0.05" d="M147.212 176.844L191.391 146.736V182.983L147.212 213.09V176.844Z" fill="black"/>
</g>
<path d="M164.505 171.183L172.019 166.062C172.992 165.399 173.783 165.707 173.783 166.741C173.711 167.382 173.514 167.995 173.207 168.53C172.899 169.066 172.49 169.509 172.012 169.825L164.505 174.946C163.532 175.617 162.741 175.309 162.741 174.268C162.814 173.628 163.011 173.016 163.317 172.481C163.623 171.946 164.03 171.502 164.505 171.183Z" fill="#263238"/>
<path d="M146.192 132.384L190.378 102.276V138.515L146.192 168.623V132.384Z" fill="#263238"/>
<path d="M212.467 123.461L187.954 106.765L187.947 138.7L212.46 155.396L212.467 123.461Z" fill="black"/>
<g opacity="0.1">
<path opacity="0.1" d="M212.467 123.461L187.954 106.765L187.947 138.7L212.46 155.396L212.467 123.461Z" fill="black"/>
</g>
<path d="M189.666 105.593L187.947 106.765L212.467 123.461L214.179 122.297L189.666 105.593Z" fill="#455A64"/>
<path d="M196.571 109.118C196.581 108.995 196.564 108.872 196.522 108.76C196.48 108.648 196.413 108.55 196.33 108.478C196.312 108.459 196.292 108.443 196.271 108.431L195.023 107.575C194.926 107.522 194.818 107.5 194.711 107.512C194.604 107.524 194.502 107.57 194.415 107.645L169.451 124.611L168.72 121.148C168.666 120.913 168.537 120.712 168.36 120.585L167.054 119.691C166.934 119.607 166.797 119.563 166.658 119.563C166.519 119.563 166.383 119.607 166.263 119.691L155.64 126.932C155.388 127.125 155.179 127.386 155.029 127.693C154.879 128 154.793 128.345 154.777 128.698V170.505C154.765 170.628 154.781 170.752 154.822 170.866C154.863 170.98 154.929 171.078 155.013 171.153L156.319 172.071C156.416 172.112 156.52 172.126 156.622 172.111C156.724 172.097 156.822 172.054 156.907 171.986L195.689 145.557C195.941 145.363 196.15 145.102 196.3 144.796C196.449 144.489 196.536 144.144 196.552 143.791L196.571 109.118Z" fill="#FCD34D"/>
<path opacity="0.2" d="M168.334 120.6C168.216 120.521 168.084 120.48 167.948 120.48C167.813 120.48 167.68 120.521 167.563 120.6L156.94 127.842C156.684 128.033 156.475 128.299 156.332 128.613L155.025 127.718C155.17 127.406 155.379 127.141 155.633 126.947L166.269 119.791C166.389 119.707 166.526 119.663 166.665 119.663C166.804 119.663 166.94 119.707 167.06 119.791L168.334 120.6Z" fill="black"/>
<path opacity="0.2" d="M196.27 108.431C196.175 108.395 196.075 108.386 195.976 108.403C195.878 108.421 195.784 108.464 195.702 108.531L170.712 125.551C170.61 125.631 170.493 125.681 170.372 125.696C170.251 125.711 170.128 125.691 170.014 125.638C169.901 125.585 169.8 125.5 169.72 125.391C169.64 125.282 169.583 125.152 169.555 125.012L169.444 124.641L194.408 107.675C194.525 107.59 194.657 107.542 194.794 107.536C194.872 107.534 194.949 107.558 195.016 107.606L196.27 108.431Z" fill="black"/>
<path d="M196.571 109.125V143.829C196.556 144.182 196.47 144.527 196.32 144.834C196.17 145.141 195.961 145.402 195.709 145.595L156.829 172.093C156.751 172.146 156.663 172.174 156.573 172.174C156.484 172.173 156.396 172.145 156.318 172.092C156.24 172.039 156.176 171.963 156.132 171.871C156.087 171.779 156.064 171.675 156.064 171.569V129.646C156.084 129.294 156.173 128.951 156.322 128.645C156.471 128.339 156.678 128.077 156.927 127.88L167.55 120.646C167.665 120.559 167.797 120.508 167.934 120.5C168.07 120.492 168.206 120.526 168.328 120.6C168.504 120.726 168.633 120.928 168.687 121.163L169.419 124.626L169.53 124.996C169.557 125.137 169.613 125.268 169.692 125.378C169.772 125.488 169.873 125.573 169.986 125.627C170.1 125.681 170.223 125.701 170.345 125.687C170.467 125.672 170.584 125.623 170.686 125.543L195.676 108.523C195.758 108.456 195.852 108.413 195.951 108.395C196.049 108.378 196.15 108.387 196.245 108.423H196.277C196.375 108.498 196.454 108.603 196.505 108.726C196.557 108.85 196.58 108.987 196.571 109.125Z" fill="#FCD34D"/>
<path opacity="0.3" d="M196.571 109.125V143.829C196.556 144.182 196.47 144.527 196.32 144.834C196.17 145.141 195.961 145.402 195.709 145.595L156.829 172.093C156.751 172.146 156.663 172.174 156.573 172.174C156.484 172.173 156.396 172.145 156.318 172.092C156.24 172.039 156.176 171.963 156.132 171.871C156.087 171.779 156.064 171.675 156.064 171.569V129.646C156.084 129.294 156.173 128.951 156.322 128.645C156.471 128.339 156.678 128.077 156.927 127.88L167.55 120.646C167.665 120.559 167.797 120.508 167.934 120.5C168.07 120.492 168.206 120.526 168.328 120.6C168.504 120.726 168.633 120.928 168.687 121.163L169.419 124.626L169.53 124.996C169.557 125.137 169.613 125.268 169.692 125.378C169.772 125.488 169.873 125.573 169.986 125.627C170.1 125.681 170.223 125.701 170.345 125.687C170.467 125.672 170.584 125.623 170.686 125.543L195.676 108.523C195.758 108.456 195.852 108.413 195.951 108.395C196.049 108.378 196.15 108.387 196.245 108.423H196.277C196.375 108.498 196.454 108.603 196.505 108.726C196.557 108.85 196.58 108.987 196.571 109.125Z" fill="black"/>
<path d="M171.045 127.063V121.58L173.809 119.698V125.181L171.045 127.063Z" fill="#E0E0E0"/>
<path opacity="0.5" d="M156.391 172.147H156.352L155.045 171.229C154.965 171.151 154.902 171.052 154.861 170.939C154.821 170.826 154.803 170.704 154.81 170.581V128.752C154.822 128.397 154.909 128.052 155.065 127.749L156.372 128.644C156.215 128.946 156.128 129.292 156.117 129.646V171.592C156.113 171.706 156.136 171.819 156.185 171.917C156.234 172.015 156.305 172.095 156.391 172.147Z" fill="black"/>
<path d="M200.733 111.986C200.743 111.863 200.726 111.738 200.683 111.625C200.641 111.512 200.575 111.413 200.491 111.338H200.432L199.184 110.475C199.087 110.421 198.979 110.399 198.873 110.412C198.766 110.424 198.664 110.469 198.577 110.544L173.613 127.51L172.881 124.048C172.825 123.814 172.697 123.613 172.522 123.485L171.215 122.59C171.095 122.507 170.959 122.463 170.82 122.463C170.681 122.463 170.544 122.507 170.424 122.59L159.801 129.832C159.55 130.025 159.341 130.286 159.191 130.593C159.041 130.9 158.955 131.244 158.939 131.598V173.412C158.928 173.534 158.944 173.657 158.985 173.769C159.026 173.881 159.091 173.979 159.174 174.052L160.481 174.97C160.577 175.012 160.681 175.026 160.783 175.011C160.886 174.996 160.983 174.953 161.069 174.885L199.851 148.456C200.102 148.263 200.312 148.002 200.462 147.695C200.612 147.388 200.698 147.044 200.713 146.69L200.733 111.986Z" fill="#FCD34D"/>
<path opacity="0.1" d="M172.503 123.461C172.381 123.387 172.245 123.353 172.109 123.361C171.972 123.369 171.84 123.42 171.725 123.507L161.102 130.741C160.848 130.935 160.639 131.2 160.494 131.512L159.188 130.626C159.331 130.311 159.54 130.046 159.795 129.854L170.418 122.613C170.538 122.529 170.675 122.485 170.814 122.485C170.953 122.485 171.089 122.529 171.209 122.613L172.503 123.461Z" fill="black"/>
<path opacity="0.1" d="M200.439 111.308C200.344 111.272 200.244 111.263 200.145 111.28C200.047 111.297 199.953 111.341 199.871 111.408L174.881 128.428C174.779 128.508 174.661 128.557 174.54 128.572C174.418 128.586 174.295 128.566 174.181 128.512C174.067 128.458 173.966 128.373 173.887 128.263C173.807 128.153 173.752 128.022 173.724 127.881L173.613 127.51L198.577 110.544C198.693 110.459 198.826 110.411 198.963 110.405C199.04 110.407 199.117 110.431 199.185 110.475L200.439 111.308Z" fill="black"/>
<path d="M200.733 111.987V146.69C200.717 147.044 200.631 147.388 200.481 147.695C200.331 148.002 200.122 148.263 199.871 148.457L160.991 174.947C160.914 175 160.826 175.028 160.737 175.028C160.648 175.028 160.56 175.001 160.483 174.948C160.406 174.896 160.341 174.821 160.296 174.73C160.251 174.639 160.227 174.536 160.227 174.431V132.477C160.237 132.123 160.325 131.778 160.481 131.475C160.626 131.161 160.835 130.896 161.089 130.704L171.712 123.462C171.83 123.379 171.964 123.335 172.101 123.335C172.238 123.335 172.372 123.379 172.49 123.462C172.667 123.591 172.795 123.795 172.849 124.033L173.581 127.488L173.692 127.866C173.72 128.006 173.776 128.136 173.856 128.245C173.936 128.354 174.037 128.439 174.151 128.492C174.264 128.545 174.387 128.565 174.508 128.549C174.63 128.534 174.746 128.485 174.848 128.405L199.838 111.385C199.926 111.316 200.026 111.273 200.131 111.259C200.236 111.246 200.341 111.263 200.439 111.308H200.472C200.564 111.382 200.636 111.485 200.682 111.604C200.728 111.724 200.746 111.856 200.733 111.987Z" fill="#FCD34D"/>
<path opacity="0.2" d="M200.733 111.987V146.69C200.717 147.044 200.631 147.388 200.481 147.695C200.331 148.002 200.122 148.263 199.871 148.457L160.991 174.947C160.914 175 160.826 175.028 160.737 175.028C160.648 175.028 160.56 175.001 160.483 174.948C160.406 174.896 160.341 174.821 160.296 174.73C160.251 174.639 160.227 174.536 160.227 174.431V132.477C160.237 132.123 160.325 131.778 160.481 131.475C160.626 131.161 160.835 130.896 161.089 130.704L171.712 123.462C171.83 123.379 171.964 123.335 172.101 123.335C172.238 123.335 172.372 123.379 172.49 123.462C172.667 123.591 172.795 123.795 172.849 124.033L173.581 127.488L173.692 127.866C173.72 128.006 173.776 128.136 173.856 128.245C173.936 128.354 174.037 128.439 174.151 128.492C174.264 128.545 174.387 128.565 174.508 128.549C174.63 128.534 174.746 128.485 174.848 128.405L199.838 111.385C199.926 111.316 200.026 111.273 200.131 111.259C200.236 111.246 200.341 111.263 200.439 111.308H200.472C200.564 111.382 200.636 111.485 200.682 111.604C200.728 111.724 200.746 111.856 200.733 111.987Z" fill="black"/>
<path d="M181.172 125.868V120.385L183.929 118.495L183.935 123.986L181.172 125.868Z" fill="#E6E6E6"/>
<path opacity="0.4" d="M160.586 175.008H160.546L159.24 174.098C159.16 174.02 159.097 173.921 159.056 173.808C159.015 173.695 158.997 173.573 159.005 173.451V131.621C159.014 131.266 159.102 130.921 159.259 130.618L160.566 131.505C160.41 131.805 160.322 132.148 160.311 132.5V174.445C160.306 174.561 160.329 174.675 160.377 174.775C160.426 174.875 160.498 174.956 160.586 175.008Z" fill="black"/>
<path d="M204.895 114.847C204.905 114.725 204.888 114.602 204.846 114.49C204.804 114.377 204.737 114.28 204.653 114.207C204.636 114.188 204.616 114.173 204.595 114.161L203.347 113.305C203.248 113.258 203.141 113.241 203.035 113.254C202.929 113.268 202.827 113.312 202.739 113.382L177.775 130.348L177.043 126.893C176.991 126.657 176.862 126.455 176.684 126.33L175.377 125.444C175.259 125.357 175.122 125.311 174.982 125.311C174.842 125.311 174.706 125.357 174.587 125.444L163.964 132.677C163.712 132.871 163.503 133.132 163.353 133.439C163.204 133.746 163.117 134.09 163.101 134.443V176.258C163.094 176.38 163.112 176.503 163.152 176.615C163.193 176.728 163.256 176.828 163.336 176.906L164.643 177.816C164.739 177.863 164.843 177.88 164.947 177.865C165.05 177.85 165.148 177.804 165.231 177.731L204.013 151.31C204.264 151.115 204.472 150.854 204.622 150.547C204.772 150.241 204.859 149.897 204.876 149.544L204.895 114.847Z" fill="#FCD34D"/>
<path d="M176.664 126.331C176.543 126.256 176.407 126.22 176.271 126.227C176.134 126.234 176.001 126.283 175.886 126.369L165.263 133.603C165.011 133.799 164.802 134.063 164.655 134.374L163.349 133.487C163.492 133.173 163.701 132.908 163.956 132.716L174.579 125.482C174.698 125.396 174.835 125.35 174.975 125.35C175.114 125.35 175.251 125.396 175.37 125.482L176.664 126.331Z" fill="#FCD34D"/>
<path d="M204.595 114.161C204.5 114.126 204.399 114.116 204.301 114.133C204.202 114.151 204.108 114.195 204.026 114.261L179.036 131.282C178.934 131.361 178.818 131.411 178.696 131.426C178.575 131.441 178.452 131.421 178.338 131.368C178.225 131.315 178.124 131.23 178.044 131.121C177.964 131.012 177.908 130.882 177.88 130.742L177.769 130.364L202.733 113.398C202.847 113.309 202.981 113.261 203.118 113.259C203.195 113.258 203.271 113.279 203.34 113.321L204.595 114.161Z" fill="#FCD34D"/>
<path d="M204.895 114.847V149.551C204.879 149.905 204.793 150.249 204.643 150.556C204.493 150.863 204.284 151.124 204.032 151.317L165.159 177.839C165.082 177.891 164.994 177.919 164.905 177.919C164.816 177.92 164.728 177.892 164.651 177.84C164.574 177.788 164.509 177.712 164.464 177.621C164.419 177.531 164.395 177.427 164.395 177.322V135.377C164.414 135.024 164.503 134.682 164.652 134.375C164.802 134.069 165.008 133.808 165.257 133.611L175.88 126.369C175.996 126.284 176.128 126.236 176.265 126.229C176.401 126.222 176.536 126.257 176.658 126.33C176.836 126.455 176.965 126.657 177.017 126.893L177.749 130.356L177.86 130.726C177.888 130.867 177.944 130.997 178.024 131.106C178.104 131.215 178.205 131.299 178.319 131.352C178.432 131.405 178.555 131.425 178.676 131.41C178.798 131.395 178.914 131.346 179.016 131.266L204.006 114.246C204.088 114.179 204.182 114.135 204.281 114.118C204.379 114.1 204.48 114.11 204.575 114.145H204.607C204.707 114.218 204.787 114.323 204.838 114.447C204.889 114.571 204.909 114.71 204.895 114.847Z" fill="#FCD34D"/>
<path opacity="0.1" d="M204.895 114.847V149.551C204.879 149.905 204.793 150.249 204.643 150.556C204.493 150.863 204.284 151.124 204.032 151.317L165.159 177.839C165.082 177.891 164.994 177.919 164.905 177.919C164.816 177.92 164.728 177.892 164.651 177.84C164.574 177.788 164.509 177.712 164.464 177.621C164.419 177.531 164.395 177.427 164.395 177.322V135.377C164.414 135.024 164.503 134.682 164.652 134.375C164.802 134.069 165.008 133.808 165.257 133.611L175.88 126.369C175.996 126.284 176.128 126.236 176.265 126.229C176.401 126.222 176.536 126.257 176.658 126.33C176.836 126.455 176.965 126.657 177.017 126.893L177.749 130.356L177.86 130.726C177.888 130.867 177.944 130.997 178.024 131.106C178.104 131.215 178.205 131.299 178.319 131.352C178.432 131.405 178.555 131.425 178.676 131.41C178.798 131.395 178.914 131.346 179.016 131.266L204.006 114.246C204.088 114.179 204.182 114.135 204.281 114.118C204.379 114.1 204.48 114.11 204.575 114.145H204.607C204.707 114.218 204.787 114.323 204.838 114.447C204.889 114.571 204.909 114.71 204.895 114.847Z" fill="black"/>
<path d="M191.292 124.665L191.299 119.182L194.056 117.3V122.783L191.292 124.665Z" fill="#F0F0F0"/>
<path opacity="0.3" d="M164.715 177.877H164.675L163.369 176.96C163.289 176.882 163.226 176.782 163.185 176.669C163.144 176.557 163.126 176.434 163.133 176.312V134.482C163.145 134.128 163.233 133.783 163.388 133.479L164.695 134.366C164.539 134.669 164.451 135.014 164.44 135.369V177.322C164.438 177.436 164.463 177.547 164.511 177.645C164.56 177.743 164.63 177.824 164.715 177.877Z" fill="black"/>
<path d="M209.056 117.708C209.066 117.587 209.049 117.465 209.008 117.353C208.967 117.241 208.903 117.143 208.821 117.068L208.756 117.022L207.508 116.166C207.411 116.112 207.303 116.091 207.196 116.103C207.089 116.115 206.987 116.161 206.9 116.235L181.936 133.202L181.205 129.739C181.15 129.504 181.022 129.302 180.845 129.176L179.539 128.282C179.419 128.197 179.283 128.152 179.143 128.152C179.004 128.152 178.867 128.197 178.748 128.282L168.125 135.523C167.874 135.715 167.665 135.975 167.515 136.28C167.365 136.586 167.279 136.929 167.262 137.281V179.173C167.255 179.295 167.273 179.418 167.314 179.53C167.354 179.643 167.418 179.743 167.498 179.821L168.804 180.739C168.9 180.784 169.005 180.8 169.107 180.785C169.21 180.771 169.308 180.725 169.392 180.654L208.174 154.225C208.426 154.031 208.635 153.77 208.784 153.463C208.934 153.157 209.021 152.812 209.037 152.459L209.056 117.708Z" fill="#FCD34D"/>
<path opacity="0.5" d="M180.838 129.192C180.717 129.118 180.582 129.083 180.445 129.09C180.309 129.097 180.177 129.145 180.061 129.23L169.438 136.472C169.183 136.663 168.973 136.929 168.83 137.243L167.523 136.348C167.669 136.036 167.877 135.771 168.131 135.577L178.754 128.343C178.874 128.26 179.011 128.216 179.15 128.216C179.289 128.216 179.425 128.26 179.545 128.343L180.838 129.192Z" fill="white"/>
<path opacity="0.5" d="M208.756 117.022C208.661 116.986 208.56 116.977 208.462 116.994C208.363 117.011 208.269 117.055 208.187 117.122L183.197 134.142C183.095 134.222 182.979 134.271 182.857 134.286C182.736 134.301 182.613 134.282 182.5 134.229C182.386 134.176 182.285 134.091 182.205 133.982C182.125 133.873 182.069 133.743 182.041 133.602L181.93 133.232L206.894 116.266C207.01 116.181 207.143 116.133 207.279 116.127C207.357 116.125 207.434 116.149 207.501 116.196L208.756 117.022Z" fill="white"/>
<path d="M209.056 117.716V152.42C209.041 152.774 208.955 153.118 208.805 153.425C208.655 153.732 208.446 153.993 208.194 154.186L169.327 180.715C169.249 180.768 169.161 180.796 169.071 180.796C168.982 180.796 168.894 180.768 168.816 180.714C168.738 180.661 168.674 180.585 168.63 180.493C168.585 180.401 168.562 180.297 168.563 180.191V138.238C168.582 137.885 168.671 137.543 168.82 137.236C168.97 136.93 169.176 136.669 169.425 136.472L180.048 129.238C180.163 129.15 180.295 129.1 180.432 129.091C180.568 129.083 180.704 129.118 180.826 129.191C181.002 129.318 181.131 129.519 181.185 129.754L181.917 133.217L182.028 133.587C182.055 133.728 182.111 133.859 182.19 133.969C182.27 134.079 182.371 134.165 182.485 134.218C182.598 134.272 182.721 134.293 182.843 134.278C182.965 134.264 183.082 134.214 183.184 134.135L208.174 117.107C208.257 117.041 208.351 116.999 208.449 116.983C208.548 116.967 208.648 116.977 208.743 117.014H208.775C208.871 117.091 208.947 117.197 208.996 117.32C209.045 117.444 209.066 117.58 209.056 117.716Z" fill="#FCD34D"/>
<path d="M201.419 123.462V117.986L204.183 116.097V121.58L201.419 123.462Z" fill="#FAFAFA"/>
<path opacity="0.2" d="M168.877 180.716H168.837L167.531 179.798C167.451 179.72 167.388 179.62 167.347 179.508C167.306 179.395 167.288 179.272 167.296 179.15V137.343C167.307 136.989 167.395 136.644 167.55 136.341L168.857 137.235C168.701 137.538 168.613 137.884 168.602 138.238V180.183C168.602 180.293 168.627 180.401 168.676 180.495C168.724 180.589 168.794 180.666 168.877 180.716Z" fill="black"/>
<path d="M171.725 151.225L147.212 134.536L147.205 166.464L171.718 183.16L171.725 151.225Z" fill="black"/>
<path d="M148.923 133.363L147.205 134.528L171.725 151.224L173.437 150.06L148.923 133.363Z" fill="#455A64"/>
<path d="M171.229 149.444L215.407 119.336V155.582L171.229 185.69V149.444Z" fill="#455A64"/>
<path d="M188.548 143.782L196.061 138.662C197.035 137.998 197.825 138.307 197.825 139.34C197.754 139.98 197.557 140.592 197.251 141.128C196.945 141.663 196.537 142.107 196.061 142.425L188.541 147.554C187.568 148.217 186.777 147.916 186.777 146.875C186.849 146.233 187.046 145.619 187.353 145.082C187.661 144.545 188.07 144.1 188.548 143.782Z" fill="#263238"/>
<path d="M171.228 149.443L169.758 148.44V184.687L171.228 185.689V149.443Z" fill="#263238"/>
<path d="M169.758 148.441L213.936 118.333L215.406 119.336L171.228 149.443L169.758 148.441Z" fill="black"/>
<path d="M77.5068 285.166V251.951L114.068 227.033V260.249L77.5068 285.166Z" fill="#FCD34D"/>
<path d="M77.5069 251.951L31.8125 220.802V254.025L77.5069 285.166V251.951Z" fill="#FCD34D"/>
<path opacity="0.15" d="M77.5069 251.951L31.8125 220.802V254.025L77.5069 285.166V251.951Z" fill="black"/>
<path d="M77.5064 251.951L115.152 226.286L68.3663 194.396L30.7275 220.062L77.5064 251.951Z" fill="#FCD34D"/>
<path opacity="0.45" d="M77.5064 251.951L115.152 226.286L68.3663 194.396L30.7275 220.062L77.5064 251.951Z" fill="white"/>
<path d="M77.5068 251.951V260.256L115.152 234.599V226.285L77.5068 251.951Z" fill="#FCD34D"/>
<path opacity="0.2" d="M77.5068 260.257L114.068 235.34V237.168L77.5068 262.077V260.257Z" fill="black"/>
<path d="M30.7275 220.062L77.5064 251.951V260.256L30.7275 228.367V220.062Z" fill="#FCD34D"/>
<path opacity="0.2" d="M30.7275 220.062L77.5064 251.951V260.256L30.7275 228.367V220.062Z" fill="black"/>
<path opacity="0.2" d="M77.5069 260.257L31.8125 229.108V230.936L77.5069 262.077V260.257Z" fill="black"/>
<path d="M89.5474 256.994L102.033 248.511C102.568 248.141 103.006 248.442 103.006 249.174V257.835C102.988 258.234 102.89 258.622 102.721 258.967C102.552 259.313 102.316 259.607 102.033 259.825L89.5474 268.308C89.0051 268.67 88.5674 268.377 88.5674 267.645V258.992C88.5853 258.591 88.6835 258.201 88.8538 257.854C89.0242 257.507 89.2619 257.212 89.5474 256.994Z" fill="#455A64"/>
<path d="M90.3447 257.982L101.236 250.563C101.589 250.324 101.889 250.517 101.889 251.01V257.543C101.875 257.808 101.808 258.066 101.695 258.297C101.581 258.527 101.424 258.723 101.236 258.869L90.3447 266.319C89.9854 266.566 89.6914 266.365 89.6914 265.879V259.347C89.6993 259.074 89.7627 258.808 89.8765 258.57C89.9902 258.333 90.1509 258.131 90.3447 257.982Z" fill="#F5F5F5"/>
<g opacity="0.5">
<path opacity="0.5" d="M90.678 259.71C90.6511 259.71 90.6246 259.702 90.6015 259.686C90.5784 259.669 90.5596 259.645 90.5474 259.617C90.5366 259.596 90.5295 259.573 90.5263 259.549C90.5231 259.525 90.524 259.501 90.5288 259.477C90.5337 259.453 90.5424 259.431 90.5546 259.412C90.5667 259.392 90.5821 259.375 90.5996 259.363L100.883 252.36C100.901 252.347 100.92 252.339 100.941 252.335C100.961 252.331 100.982 252.332 101.002 252.338C101.022 252.344 101.041 252.354 101.057 252.369C101.074 252.383 101.088 252.401 101.099 252.422C101.12 252.466 101.126 252.518 101.115 252.567C101.104 252.616 101.077 252.658 101.04 252.684L90.763 259.687C90.7367 259.702 90.7075 259.71 90.678 259.71Z" fill="#455A64"/>
<path opacity="0.5" d="M90.678 261.313C90.6511 261.314 90.6246 261.306 90.6015 261.289C90.5784 261.273 90.5596 261.249 90.5474 261.221C90.5366 261.2 90.5295 261.177 90.5263 261.153C90.5231 261.129 90.524 261.104 90.5288 261.081C90.5337 261.057 90.5424 261.035 90.5546 261.015C90.5667 260.996 90.5821 260.979 90.5996 260.966L100.85 253.979C100.868 253.967 100.888 253.958 100.908 253.954C100.928 253.951 100.949 253.952 100.969 253.957C100.989 253.963 101.008 253.973 101.025 253.988C101.041 254.002 101.055 254.02 101.066 254.041C101.088 254.085 101.093 254.137 101.082 254.186C101.071 254.235 101.044 254.277 101.007 254.303L90.7303 261.306C90.7133 261.311 90.6957 261.314 90.678 261.313Z" fill="#455A64"/>
<path opacity="0.5" d="M90.678 262.918C90.6511 262.918 90.6246 262.91 90.6015 262.893C90.5784 262.877 90.5596 262.853 90.5474 262.825C90.5366 262.804 90.5295 262.781 90.5263 262.757C90.5231 262.733 90.524 262.709 90.5288 262.685C90.5337 262.661 90.5424 262.639 90.5546 262.62C90.5667 262.6 90.5821 262.583 90.5996 262.571L100.883 255.568C100.901 255.555 100.92 255.547 100.941 255.543C100.961 255.539 100.982 255.54 101.002 255.546C101.022 255.552 101.041 255.562 101.057 255.577C101.074 255.591 101.088 255.609 101.099 255.63C101.12 255.674 101.126 255.726 101.115 255.775C101.104 255.824 101.077 255.866 101.04 255.892L90.763 262.894C90.7367 262.91 90.7075 262.918 90.678 262.918Z" fill="#455A64"/>
<path opacity="0.5" d="M90.678 264.522C90.6511 264.522 90.6246 264.514 90.6015 264.497C90.5784 264.481 90.5596 264.457 90.5474 264.429C90.5366 264.408 90.5295 264.385 90.5263 264.361C90.5231 264.337 90.524 264.313 90.5288 264.289C90.5337 264.265 90.5424 264.243 90.5546 264.223C90.5667 264.204 90.5821 264.187 90.5996 264.174L100.883 257.172C100.92 257.147 100.963 257.141 101.003 257.154C101.044 257.167 101.078 257.198 101.099 257.241C101.12 257.284 101.125 257.335 101.114 257.383C101.103 257.431 101.076 257.471 101.04 257.496L90.763 264.498C90.7367 264.514 90.7075 264.522 90.678 264.522Z" fill="#455A64"/>
</g>
<path opacity="0.1" d="M112.094 224.204L77.5066 247.772L33.7853 217.957L32.7139 218.705L77.5066 249.129L113.172 224.936L112.094 224.204Z" fill="black"/>
<path d="M77.5068 247.772V214.556L114.068 189.639V222.854L77.5068 247.772Z" fill="#FCD34D"/>
<path d="M77.5069 214.556L31.8125 183.407V216.63L77.5069 247.771V214.556Z" fill="#FCD34D"/>
<path opacity="0.15" d="M77.5069 214.556L31.8125 183.407V216.63L77.5069 247.771V214.556Z" fill="black"/>
<path d="M77.5064 214.556L115.152 188.89L68.3663 157.001L30.7275 182.666L77.5064 214.556Z" fill="#FCD34D"/>
<path opacity="0.6" d="M77.5064 214.556L115.152 188.89L68.3663 157.001L30.7275 182.666L77.5064 214.556Z" fill="white"/>
<path d="M77.5068 214.555V222.853L115.152 197.203V188.89L77.5068 214.555Z" fill="#FCD34D"/>
<path opacity="0.2" d="M77.5068 222.854L114.068 197.944V199.772L77.5068 224.682V222.854Z" fill="black"/>
<path d="M30.7275 182.667L77.5064 214.556V222.854L30.7275 190.973V182.667Z" fill="#FCD34D"/>
<path opacity="0.2" d="M30.7275 182.667L77.5064 214.556V222.854L30.7275 190.973V182.667Z" fill="black"/>
<path opacity="0.2" d="M77.5069 222.854L31.8125 191.713V193.541L77.5069 224.682V222.854Z" fill="black"/>
<path d="M89.5474 219.599L102.033 211.116C102.568 210.745 103.006 211.046 103.006 211.779V220.493C102.988 220.892 102.89 221.28 102.721 221.626C102.552 221.972 102.316 222.265 102.033 222.483L89.5474 230.966C89.0051 231.329 88.5674 231.036 88.5674 230.303V221.588C88.5863 221.189 88.6849 220.801 88.8553 220.455C89.0256 220.109 89.2627 219.816 89.5474 219.599Z" fill="#455A64"/>
<path d="M90.3447 220.587L101.236 213.168C101.589 212.929 101.889 213.121 101.889 213.615V220.147C101.875 220.413 101.808 220.671 101.695 220.901C101.581 221.131 101.424 221.327 101.236 221.473L90.3447 228.892C89.9854 229.139 89.6914 228.939 89.6914 228.453V221.921C89.7034 221.653 89.7688 221.393 89.8823 221.161C89.9959 220.929 90.1544 220.732 90.3447 220.587Z" fill="#F5F5F5"/>
<g opacity="0.5">
<path opacity="0.5" d="M90.678 222.314C90.6511 222.315 90.6246 222.306 90.6015 222.29C90.5784 222.274 90.5596 222.25 90.5474 222.222C90.5366 222.201 90.5295 222.178 90.5263 222.154C90.5231 222.13 90.524 222.105 90.5288 222.081C90.5337 222.058 90.5424 222.036 90.5546 222.016C90.5667 221.996 90.5821 221.98 90.5996 221.967L100.883 214.965C100.901 214.952 100.92 214.943 100.941 214.94C100.961 214.936 100.982 214.937 101.002 214.943C101.022 214.948 101.041 214.959 101.057 214.973C101.074 214.987 101.088 215.006 101.099 215.026C101.11 215.047 101.118 215.071 101.121 215.095C101.124 215.12 101.123 215.145 101.117 215.169C101.112 215.193 101.102 215.215 101.089 215.235C101.075 215.254 101.059 215.27 101.04 215.281L90.763 222.291C90.7367 222.307 90.7075 222.315 90.678 222.314Z" fill="#455A64"/>
<path opacity="0.5" d="M90.678 223.903C90.6511 223.904 90.6246 223.895 90.6015 223.879C90.5784 223.862 90.5596 223.839 90.5474 223.81C90.5366 223.79 90.5295 223.767 90.5263 223.743C90.5231 223.719 90.524 223.694 90.5288 223.67C90.5337 223.647 90.5424 223.625 90.5546 223.605C90.5667 223.585 90.5821 223.569 90.5996 223.556L100.883 216.553C100.901 216.541 100.92 216.532 100.941 216.529C100.961 216.525 100.982 216.526 101.002 216.532C101.022 216.537 101.041 216.548 101.057 216.562C101.074 216.576 101.088 216.594 101.099 216.615C101.12 216.659 101.126 216.711 101.115 216.761C101.104 216.81 101.077 216.852 101.04 216.877L90.7303 223.903C90.713 223.906 90.6954 223.906 90.678 223.903Z" fill="#455A64"/>
<path opacity="0.5" d="M90.678 225.522C90.6511 225.523 90.6246 225.514 90.6015 225.498C90.5784 225.482 90.5596 225.458 90.5474 225.43C90.5366 225.409 90.5295 225.386 90.5263 225.362C90.5231 225.338 90.524 225.313 90.5288 225.29C90.5337 225.266 90.5424 225.244 90.5546 225.224C90.5667 225.204 90.5821 225.188 90.5996 225.175L100.883 218.173C100.901 218.16 100.92 218.151 100.941 218.148C100.961 218.144 100.982 218.145 101.002 218.151C101.022 218.156 101.041 218.167 101.057 218.181C101.074 218.195 101.088 218.214 101.099 218.234C101.12 218.278 101.126 218.331 101.115 218.38C101.104 218.429 101.077 218.471 101.04 218.496L90.763 225.499C90.7367 225.515 90.7075 225.523 90.678 225.522Z" fill="#455A64"/>
<path opacity="0.5" d="M90.678 227.126C90.6511 227.127 90.6246 227.118 90.6015 227.102C90.5784 227.085 90.5596 227.062 90.5474 227.033C90.5366 227.013 90.5295 226.99 90.5263 226.966C90.5231 226.942 90.524 226.917 90.5288 226.893C90.5337 226.87 90.5424 226.848 90.5546 226.828C90.5667 226.808 90.5821 226.792 90.5996 226.779L100.883 219.777C100.92 219.752 100.963 219.746 101.003 219.759C101.044 219.772 101.078 219.803 101.099 219.846C101.12 219.889 101.125 219.94 101.114 219.988C101.103 220.035 101.076 220.076 101.04 220.1L90.763 227.103C90.7367 227.119 90.7075 227.126 90.678 227.126Z" fill="#455A64"/>
</g>
</g>
<defs>
<filter id="filter0_dd_1505_230199" x="0" y="0.354492" width="306" height="355.279" filterUnits="userSpaceOnUse" color-interpolation-filters="sRGB">
<feFlood flood-opacity="0" result="BackgroundImageFix"/>
<feColorMatrix in="SourceAlpha" type="matrix" values="0 0 0 0 0 0 0 0 0 0 0 0 0 0 0 0 0 0 127 0" result="hardAlpha"/>
<feOffset dy="4"/>
<feGaussianBlur stdDeviation="2"/>
<feComposite in2="hardAlpha" operator="out"/>
<feColorMatrix type="matrix" values="0 0 0 0 0 0 0 0 0 0 0 0 0 0 0 0 0 0 0.25 0"/>
<feBlend mode="normal" in2="BackgroundImageFix" result="effect1_dropShadow_1505_230199"/>
<feColorMatrix in="SourceAlpha" type="matrix" values="0 0 0 0 0 0 0 0 0 0 0 0 0 0 0 0 0 0 127 0" result="hardAlpha"/>
<feOffset dy="4"/>
<feGaussianBlur stdDeviation="2"/>
<feComposite in2="hardAlpha" operator="out"/>
<feColorMatrix type="matrix" values="0 0 0 0 0 0 0 0 0 0 0 0 0 0 0 0 0 0 0.25 0"/>
<feBlend mode="normal" in2="effect1_dropShadow_1505_230199" result="effect2_dropShadow_1505_230199"/>
<feBlend mode="normal" in="SourceGraphic" in2="effect2_dropShadow_1505_230199" result="shape"/>
</filter>
</defs>
</svg>
