<svg width="306" height="338" viewBox="0 0 306 338" fill="none" xmlns="http://www.w3.org/2000/svg">
<g filter="url(#filter0_d_1505_228827)">
<path d="M259.125 6.03613H168.365V199.951H259.125V6.03613Z" fill="#EBEBEB"/>
<path d="M254.566 11.6572H171.993V194.17H254.566V11.6572Z" fill="#FAFAFA"/>
<path d="M254.567 13.8071L171.993 138.725V11.6572H254.567V13.8071Z" fill="#F5F5F5"/>
<path d="M256.361 64.1611H171.993V66.1037H256.361V64.1611Z" fill="#EBEBEB"/>
<path d="M256.361 107.62H171.993V109.563H256.361V107.62Z" fill="#EBEBEB"/>
<path d="M256.361 151.087H171.993V153.029H256.361V151.087Z" fill="#EBEBEB"/>
<path d="M211.194 65.136V199.345H215.365V65.136H211.194Z" fill="#EBEBEB"/>
<path d="M189.786 11.6572H187.895V65.1288H189.786V11.6572Z" fill="#EBEBEB"/>
<path d="M206.081 11.6572H204.189V65.1288H206.081V11.6572Z" fill="#EBEBEB"/>
<path d="M222.383 11.6572H220.491V65.1288H222.383V11.6572Z" fill="#EBEBEB"/>
<path d="M238.685 11.6572H236.793V65.1288H238.685V11.6572Z" fill="#EBEBEB"/>
<path d="M168.365 2.74219H164.523V201.141H168.365V2.74219Z" fill="#F5F5F5"/>
<path d="M262.966 201.694L259.125 199.944V2.74219H262.966V201.694Z" fill="#E0E0E0"/>
<path d="M262.959 0.746094H164.523V6.03641H262.959V0.746094Z" fill="#E0E0E0"/>
<path d="M265.568 202.347H161.806V207.276H265.568V202.347Z" fill="#E0E0E0"/>
<path d="M259.125 199.943L265.561 202.347H161.806L168.365 199.943H259.125Z" fill="#EBEBEB"/>
<path d="M168.668 327.495C179.495 319.763 182.769 304.023 183.195 289.664C183.266 287.269 183.634 284.765 182.801 282.592C181.968 280.419 179.818 278.799 177.959 279.659C176.416 280.366 175.647 282.377 174.731 284.021C173.483 286.206 171.742 287.928 169.708 288.988C168.378 289.672 166.764 290.025 165.55 289.088C163.884 287.814 163.846 284.942 163.994 282.569C164.278 278.142 164.56 273.711 164.84 269.278C165.099 266.911 165.034 264.51 164.646 262.168C164.156 259.865 162.91 257.646 161.044 256.855C159.178 256.064 156.75 257.177 156.208 259.473C156.077 260.451 156.002 261.439 155.982 262.429C155.866 263.412 155.421 264.472 154.614 264.679C153.807 264.886 153.038 264.157 152.483 263.412C150.546 260.84 149.339 257.63 148.209 254.444C147.079 251.257 145.988 248.009 144.271 245.23C142.554 242.45 140.081 240.162 137.227 239.732C134.374 239.302 131.204 241.16 130.287 244.439C129.37 247.718 130.81 251.273 132.443 254.129C134.861 258.378 137.784 262.187 141.12 265.439C141.779 265.943 142.284 266.686 142.56 267.558C142.902 269.178 141.546 270.63 140.204 271.06C138.673 271.528 137.072 271.213 135.497 271.298C133.922 271.382 132.192 272.066 131.501 273.77C130.539 276.135 132.101 278.822 133.683 280.634C136.857 284.253 140.53 287.196 144.542 289.334C145.982 290.102 147.492 290.785 148.609 292.106C149.726 293.427 150.314 295.63 149.5 297.25C148.687 298.87 146.815 299.247 145.291 298.786C143.767 298.325 142.45 297.212 141.023 296.429C138.344 294.97 134.787 294.893 132.863 297.58C132.27 298.508 131.865 299.586 131.68 300.73C131.495 301.874 131.536 303.053 131.798 304.176C132.338 306.419 133.253 308.508 134.49 310.319C138.48 316.903 143.87 322.107 150.107 325.399C156.324 328.547 162.193 329.745 168.688 327.51" fill="#F5F5F5"/>
<path d="M166.706 328.186C166.596 322.474 167.442 325.637 166.06 318.266C164.518 310.299 162.591 302.443 160.289 294.74C159.682 292.692 159.088 290.665 158.507 288.658C157.919 286.67 157.332 284.696 156.667 282.808C155.372 279.179 153.908 275.639 152.283 272.204C150.753 268.91 149.204 265.854 147.764 262.99C146.324 260.126 144.878 257.523 143.496 255.204C141.343 251.524 138.944 248.055 136.324 244.831C135.4 243.687 134.658 242.834 134.148 242.259L133.567 241.614C133.503 241.538 133.434 241.468 133.36 241.406C133.413 241.493 133.474 241.573 133.541 241.644L134.096 242.32C134.587 242.919 135.31 243.794 136.22 244.954C138.792 248.213 141.153 251.699 143.283 255.381C144.646 257.684 146.047 260.333 147.506 263.182C148.965 266.031 150.501 269.094 152.025 272.396C153.631 275.824 155.079 279.354 156.363 282.969C157.009 284.85 157.603 286.808 158.19 288.804L159.972 294.878C162.274 302.565 164.214 310.399 165.783 318.343C167.158 325.691 166.338 322.497 166.474 328.186" fill="#E0E0E0"/>
<path d="M156.576 282.777C156.694 282.458 156.781 282.123 156.834 281.779C156.976 281.134 157.157 280.19 157.364 279.015C157.79 276.665 158.274 273.41 158.804 269.801C159.333 266.192 159.856 262.96 160.301 260.625C160.527 259.466 160.715 258.522 160.85 257.869C160.937 257.536 160.995 257.194 161.024 256.848C160.889 257.157 160.785 257.484 160.715 257.823C160.534 258.46 160.308 259.358 160.069 260.556C159.552 262.86 158.984 266.123 158.461 269.724C157.938 273.325 157.486 276.489 157.131 278.938C156.964 280.044 156.821 280.981 156.712 281.725C156.634 282.069 156.589 282.422 156.576 282.777V282.777Z" fill="#E0E0E0"/>
<path d="M131.204 274.984C131.537 275.101 131.879 275.178 132.224 275.214C132.87 275.337 133.825 275.514 134.994 275.775C137.331 276.266 140.54 277.088 144.032 278.178C147.525 279.268 150.676 280.428 152.922 281.342C154.052 281.787 154.956 282.179 155.582 282.44C155.898 282.603 156.227 282.729 156.564 282.816C156.269 282.602 155.957 282.422 155.634 282.278C155.021 281.964 154.13 281.511 153.006 281.042C150.772 280.052 147.641 278.846 144.123 277.748C141.125 276.799 138.089 276.03 135.026 275.445C133.845 275.23 132.889 275.099 132.224 275.03C131.886 274.976 131.545 274.961 131.204 274.984Z" fill="#E0E0E0"/>
<path d="M165.796 317.675C165.877 317.566 165.944 317.445 165.996 317.314L166.5 316.247C166.932 315.318 167.533 313.943 168.256 312.246C169.695 308.845 171.568 304.077 173.575 298.779C175.583 293.481 177.41 288.689 178.792 285.257L180.438 281.203L180.884 280.097C180.944 279.971 180.988 279.833 181.013 279.69C180.94 279.804 180.875 279.925 180.819 280.051L180.316 281.119C179.877 282.055 179.283 283.422 178.56 285.119C177.113 288.52 175.241 293.296 173.24 298.594C171.238 303.892 169.405 308.676 168.023 312.108L166.37 316.17L165.931 317.276C165.872 317.401 165.826 317.535 165.796 317.675V317.675Z" fill="#E0E0E0"/>
<path d="M132.398 301.766C132.5 301.848 132.611 301.913 132.728 301.958L133.696 302.441L137.247 304.161C140.268 305.612 144.42 307.663 149.003 309.943C153.587 312.223 157.758 314.228 160.805 315.602C162.329 316.285 163.562 316.83 164.421 317.184L165.415 317.583C165.529 317.637 165.648 317.673 165.77 317.69C165.668 317.61 165.557 317.545 165.441 317.499L164.472 317.022L160.896 315.31C157.881 313.859 153.729 311.809 149.139 309.528C144.549 307.248 140.391 305.244 137.344 303.869C135.82 303.186 134.587 302.641 133.722 302.295L132.728 301.858C132.622 301.81 132.511 301.779 132.398 301.766Z" fill="#E0E0E0"/>
<path d="M118.021 30.2002H93.6104V39.5447H118.021V30.2002Z" fill="#F5F5F5"/>
<path d="M140.913 48.8887H116.503V58.2332H140.913V48.8887Z" fill="#FAFAFA"/>
<path d="M127.285 48.8887C127.28 48.83 127.28 48.7709 127.285 48.7121V48.2284C127.285 47.7754 127.285 47.1611 127.285 46.3779C127.285 44.7501 127.253 42.4313 127.227 39.5442L127.337 39.6748L103.449 39.7439C103.52 39.6517 103.275 39.9435 103.611 39.5442V48.8887L103.443 48.6968L120.461 48.7812L125.477 48.835H126.827H127.311C127.165 48.8458 127.018 48.8458 126.872 48.835H125.581L120.61 48.8887L103.43 48.9809H103.269V44.2203C103.269 43.4525 103.269 42.6847 103.269 41.8554V39.5596C103.604 39.1603 103.365 39.4444 103.443 39.36L127.33 39.4291H127.44V39.5596C127.44 42.485 127.395 44.8269 127.382 46.4701C127.382 47.2379 127.382 47.8445 127.382 48.2898C127.382 48.7352 127.292 48.8964 127.285 48.8887Z" fill="#E0E0E0"/>
<path d="M293.664 109.97H269.254V119.314H293.664V109.97Z" fill="#FAFAFA"/>
<path d="M301.877 109.732C301.872 109.673 301.872 109.614 301.877 109.555C301.877 109.425 301.877 109.264 301.877 109.072C301.877 108.619 301.877 108.004 301.877 107.221C301.877 105.593 301.845 103.282 301.819 100.388L301.929 100.518L278.041 100.587C278.112 100.495 277.867 100.787 278.203 100.388V109.717L278.035 109.525L295.098 109.609L300.108 109.671H301.464H301.948C301.8 109.682 301.651 109.682 301.503 109.671H300.211L295.24 109.724L277.99 109.901H277.828V105.148C277.828 104.38 277.828 103.574 277.828 102.776V100.38C278.164 99.9806 277.925 100.265 278.002 100.18L301.89 100.249H302V100.38C302 103.305 301.955 105.647 301.942 107.29C301.942 108.058 301.942 108.665 301.942 109.11C301.942 109.555 301.877 109.74 301.877 109.732Z" fill="#E0E0E0"/>
<path d="M283.393 215.2H258.982V224.545H283.393V215.2Z" fill="#F5F5F5"/>
<path d="M291.889 224.223H267.479V233.567H291.889V224.223Z" fill="#FAFAFA"/>
<path d="M276.388 242.735C276.383 242.679 276.383 242.622 276.388 242.566V242.075C276.388 241.622 276.388 241.008 276.388 240.224C276.388 238.597 276.356 236.285 276.33 233.391L276.44 233.521L252.552 233.59C252.623 233.506 252.378 233.79 252.714 233.391V242.735L252.546 242.543L269.609 242.635L274.619 242.689H275.975H276.459C276.311 242.698 276.162 242.698 276.014 242.689H274.722L269.751 242.743L252.572 242.835H252.41V238.074C252.41 237.307 252.41 236.5 252.41 235.702V233.306C252.746 232.907 252.507 233.199 252.584 233.106L276.472 233.176H276.582V233.306C276.582 236.232 276.537 238.573 276.524 240.217C276.524 240.984 276.524 241.599 276.524 242.044C276.524 242.489 276.395 242.774 276.388 242.735Z" fill="#E0E0E0"/>
<path d="M37.2483 88.5938H12.8379V97.9383H37.2483V88.5938Z" fill="#FAFAFA"/>
<path d="M48.0363 88.5937C48.0363 88.5937 48.0363 88.5246 48.0363 88.4171C48.0363 88.3096 48.0363 88.1253 48.0363 87.9334C48.0363 87.4803 48.0363 86.8584 48.0363 86.0752C48.0363 84.4551 47.9975 82.1362 47.9717 79.2415L48.0815 79.372L24.194 79.4411L24.3618 79.2492V84.0251C24.3618 85.5608 24.3618 87.0964 24.3618 88.5937L24.2004 88.3941L41.2638 88.4862L46.2738 88.5399H47.6295C47.7885 88.5224 47.9484 88.5224 48.1073 88.5399C47.9611 88.5512 47.8145 88.5512 47.6683 88.5399H46.3771L41.4059 88.5937L24.2327 88.6858H24.0713V88.4939C24.0713 87.012 24.0713 85.4916 24.0713 83.9253V79.1494C24.407 78.7424 24.1617 79.0342 24.2391 78.9421L48.1267 79.0112H48.1525V79.1417C48.1525 82.0671 48.1008 84.409 48.0879 86.0522C48.0879 86.82 48.0879 87.4266 48.0879 87.8719C48.0935 88.1141 48.0762 88.3562 48.0363 88.5937V88.5937Z" fill="#E0E0E0"/>
<path d="M298.901 328.961C298.901 329.069 232.881 329.161 151.457 329.161C70.0328 329.161 4 329.069 4 328.961C4 328.854 70.007 328.731 151.451 328.731C232.894 328.731 298.901 328.854 298.901 328.961Z" fill="#263238"/>
<path d="M275.097 290.179L274.232 309.19C274.215 309.516 274.096 309.823 273.897 310.048C273.698 310.273 273.435 310.4 273.16 310.404L244.398 310.657C244.112 310.657 243.838 310.524 243.634 310.285C243.429 310.047 243.312 309.723 243.307 309.382L243.217 294.579C243.217 294.238 243.33 293.911 243.532 293.669C243.734 293.427 244.008 293.291 244.295 293.289H261.985C262.27 293.285 262.543 293.15 262.746 292.912L265.8 289.281C266 289.041 266.272 288.906 266.556 288.904L274.012 288.843C274.159 288.841 274.304 288.874 274.439 288.941C274.574 289.008 274.696 289.107 274.797 289.232C274.899 289.357 274.978 289.506 275.03 289.669C275.081 289.831 275.104 290.005 275.097 290.179V290.179Z" fill="#FCD34D"/>
<path opacity="0.3" d="M275.097 290.179L274.232 309.19C274.215 309.516 274.096 309.823 273.897 310.048C273.698 310.273 273.435 310.4 273.16 310.404L244.398 310.657C244.112 310.657 243.838 310.524 243.634 310.285C243.429 310.047 243.312 309.723 243.307 309.382L243.217 294.579C243.217 294.238 243.33 293.911 243.532 293.669C243.734 293.427 244.008 293.291 244.295 293.289H261.985C262.27 293.285 262.543 293.15 262.746 292.912L265.8 289.281C266 289.041 266.272 288.906 266.556 288.904L274.012 288.843C274.159 288.841 274.304 288.874 274.439 288.941C274.574 289.008 274.696 289.107 274.797 289.232C274.899 289.357 274.978 289.506 275.03 289.669C275.081 289.831 275.104 290.005 275.097 290.179V290.179Z" fill="black"/>
<path d="M243.333 313.387L274.761 313.113L274.623 290.778L243.196 291.052L243.333 313.387Z" fill="#F5F5F5"/>
<path d="M277.137 292.759L274.884 316.071C274.868 316.276 274.79 316.467 274.664 316.609C274.538 316.75 274.373 316.832 274.2 316.838L243.572 317.099C243.395 317.104 243.223 317.026 243.093 316.883C242.963 316.74 242.885 316.542 242.875 316.332L241.19 293.036C241.181 292.923 241.192 292.808 241.222 292.701C241.252 292.593 241.301 292.494 241.366 292.41C241.43 292.326 241.509 292.259 241.596 292.213C241.684 292.168 241.778 292.145 241.874 292.145L276.446 291.838C276.544 291.838 276.641 291.863 276.73 291.911C276.82 291.959 276.899 292.028 276.965 292.115C277.03 292.202 277.079 292.304 277.108 292.415C277.138 292.526 277.148 292.644 277.137 292.759Z" fill="#FCD34D"/>
<path d="M283.561 286.593L282.696 305.604C282.679 305.93 282.56 306.237 282.361 306.462C282.162 306.687 281.899 306.814 281.624 306.818L252.862 307.063C252.721 307.065 252.58 307.034 252.449 306.972C252.317 306.909 252.197 306.816 252.096 306.699C251.995 306.581 251.914 306.441 251.858 306.286C251.802 306.131 251.773 305.965 251.771 305.796L251.681 290.993C251.68 290.824 251.707 290.656 251.761 290.5C251.815 290.343 251.894 290.201 251.994 290.081C252.094 289.961 252.214 289.866 252.345 289.801C252.476 289.736 252.617 289.703 252.759 289.703H270.449C270.733 289.704 271.007 289.572 271.21 289.334L274.264 285.702C274.464 285.463 274.736 285.328 275.019 285.326L282.476 285.265C282.622 285.264 282.766 285.297 282.9 285.364C283.034 285.431 283.155 285.53 283.257 285.654C283.358 285.778 283.437 285.925 283.49 286.086C283.542 286.248 283.566 286.42 283.561 286.593V286.593Z" fill="#FCD34D"/>
<path opacity="0.3" d="M283.561 286.593L282.696 305.604C282.679 305.93 282.56 306.237 282.361 306.462C282.162 306.687 281.899 306.814 281.624 306.818L252.862 307.063C252.721 307.065 252.58 307.034 252.449 306.972C252.317 306.909 252.197 306.816 252.096 306.699C251.995 306.581 251.914 306.441 251.858 306.286C251.802 306.131 251.773 305.965 251.771 305.796L251.681 290.993C251.68 290.824 251.707 290.656 251.761 290.5C251.815 290.343 251.894 290.201 251.994 290.081C252.094 289.961 252.214 289.866 252.345 289.801C252.476 289.736 252.617 289.703 252.759 289.703H270.449C270.733 289.704 271.007 289.572 271.21 289.334L274.264 285.702C274.464 285.463 274.736 285.328 275.019 285.326L282.476 285.265C282.622 285.264 282.766 285.297 282.9 285.364C283.034 285.431 283.155 285.53 283.257 285.654C283.358 285.778 283.437 285.925 283.49 286.086C283.542 286.248 283.566 286.42 283.561 286.593V286.593Z" fill="black"/>
<path d="M251.8 309.798L283.228 309.524L283.09 287.189L251.662 287.463L251.8 309.798Z" fill="#F5F5F5"/>
<path d="M285.601 289.173L283.341 312.484C283.331 312.692 283.255 312.887 283.128 313.03C283 313.173 282.832 313.252 282.657 313.252L252.029 313.521C251.853 313.523 251.682 313.445 251.552 313.302C251.422 313.159 251.344 312.963 251.332 312.753L249.647 289.472C249.639 289.359 249.651 289.244 249.682 289.137C249.713 289.029 249.763 288.93 249.828 288.846C249.893 288.762 249.971 288.696 250.059 288.65C250.147 288.604 250.242 288.581 250.338 288.582L284.904 288.274C285 288.274 285.096 288.298 285.185 288.343C285.273 288.389 285.353 288.457 285.418 288.541C285.484 288.626 285.534 288.725 285.565 288.834C285.597 288.943 285.609 289.058 285.601 289.173V289.173Z" fill="#FCD34D"/>
<path opacity="0.3" d="M285.601 289.173L283.341 312.484C283.331 312.692 283.255 312.887 283.128 313.03C283 313.173 282.832 313.252 282.657 313.252L252.029 313.521C251.853 313.523 251.682 313.445 251.552 313.302C251.422 313.159 251.344 312.963 251.332 312.753L249.647 289.472C249.639 289.359 249.651 289.244 249.682 289.137C249.713 289.029 249.763 288.93 249.828 288.846C249.893 288.762 249.971 288.696 250.059 288.65C250.147 288.604 250.242 288.581 250.338 288.582L284.904 288.274C285 288.274 285.096 288.298 285.185 288.343C285.273 288.389 285.353 288.457 285.418 288.541C285.484 288.626 285.534 288.725 285.565 288.834C285.597 288.943 285.609 289.058 285.601 289.173V289.173Z" fill="black"/>
<path d="M293.096 291.046L292.231 310.05C292.216 310.377 292.097 310.686 291.898 310.913C291.699 311.139 291.435 311.267 291.159 311.271L262.398 311.517C262.111 311.519 261.835 311.386 261.631 311.147C261.426 310.908 261.31 310.583 261.306 310.242L261.203 295.446C261.203 295.105 261.317 294.778 261.519 294.536C261.721 294.295 261.995 294.158 262.281 294.156H279.971C280.113 294.158 280.253 294.126 280.384 294.061C280.515 293.996 280.634 293.901 280.733 293.78L283.787 290.156C283.987 289.916 284.258 289.781 284.542 289.779L291.999 289.71C292.146 289.707 292.292 289.739 292.428 289.806C292.564 289.872 292.687 289.971 292.79 290.096C292.893 290.221 292.973 290.37 293.026 290.534C293.078 290.697 293.102 290.871 293.096 291.046V291.046Z" fill="#FCD34D"/>
<path d="M261.328 314.251L292.756 313.977L292.618 291.641L261.191 291.915L261.328 314.251Z" fill="#F5F5F5"/>
<path d="M295.137 293.626L292.884 316.938C292.864 317.137 292.783 317.321 292.657 317.455C292.531 317.589 292.369 317.665 292.2 317.667L261.565 317.936C261.389 317.938 261.219 317.86 261.091 317.717C260.962 317.573 260.885 317.377 260.875 317.168L259.19 293.887C259.181 293.774 259.192 293.659 259.222 293.551C259.252 293.443 259.301 293.343 259.365 293.259C259.43 293.174 259.508 293.107 259.596 293.06C259.683 293.014 259.778 292.99 259.874 292.989L294.44 292.689C294.539 292.688 294.638 292.713 294.729 292.761C294.82 292.809 294.902 292.88 294.968 292.969C295.034 293.058 295.083 293.162 295.112 293.276C295.142 293.389 295.15 293.509 295.137 293.626V293.626Z" fill="#FCD34D"/>
<path d="M259.183 296.798V329.131H298.41V296.798H259.183ZM271.985 302.626C271.985 301.992 272.197 301.385 272.573 300.937C272.95 300.489 273.46 300.238 273.993 300.238H283.6C283.872 300.219 284.145 300.267 284.402 300.379C284.659 300.49 284.894 300.663 285.092 300.886C285.291 301.109 285.449 301.378 285.557 301.677C285.665 301.975 285.721 302.297 285.721 302.622C285.721 302.947 285.665 303.268 285.557 303.567C285.449 303.865 285.291 304.134 285.092 304.358C284.894 304.581 284.659 304.753 284.402 304.865C284.145 304.976 283.872 305.024 283.6 305.006H273.993C273.461 305.006 272.952 304.755 272.575 304.309C272.199 303.863 271.987 303.258 271.985 302.626Z" fill="#455A64"/>
<path d="M238.039 296.798V329.131H259.183V296.798H238.039Z" fill="#263238"/>
<path d="M164.098 304.707L162.051 318.751C162.051 318.751 149.365 320.993 148.777 323.542L171.516 329.239L175.46 307.525L164.098 304.707Z" fill="#FCD34D"/>
<g opacity="0.6">
<path opacity="0.6" d="M169.289 319.334C169.492 319.469 169.647 319.688 169.725 319.949C169.802 320.211 169.796 320.497 169.708 320.754C169.604 321.003 169.423 321.194 169.203 321.289C168.983 321.383 168.741 321.373 168.527 321.261C168.304 321.118 168.135 320.881 168.053 320.596C167.972 320.311 167.984 320 168.088 319.725C168.22 319.475 168.429 319.297 168.671 319.229C168.913 319.161 169.167 319.21 169.379 319.364" fill="white"/>
</g>
<path opacity="0.6" d="M171.516 329.231L171.839 327.027L149.888 322.42C149.888 322.42 148.784 322.689 148.752 323.564L171.516 329.231Z" fill="white"/>
<path d="M161.702 318.52C161.702 318.65 162.232 318.85 162.703 319.41C163.174 319.971 163.348 320.6 163.478 320.57C163.607 320.539 163.555 319.74 162.974 319.072C162.393 318.404 161.702 318.389 161.702 318.52Z" fill="#263238"/>
<path d="M159.114 319.095C159.062 319.211 159.507 319.556 159.759 320.209C160.011 320.861 160.037 321.483 160.153 321.506C160.269 321.529 160.463 320.8 160.108 319.971C159.753 319.141 159.139 318.965 159.114 319.095Z" fill="#263238"/>
<path d="M157.157 322.144C157.254 322.198 157.525 321.584 157.364 320.785C157.202 319.987 156.718 319.572 156.673 319.672C156.628 319.772 156.86 320.24 156.983 320.893C157.105 321.545 157.047 322.106 157.157 322.144Z" fill="#263238"/>
<path d="M162.471 315.379C162.471 315.51 163.039 315.456 163.653 315.664C164.266 315.871 164.724 316.232 164.802 316.132C164.879 316.032 164.492 315.441 163.756 315.211C163.02 314.98 162.426 315.264 162.471 315.379Z" fill="#263238"/>
<path opacity="0.3" d="M163.691 307.494L163.323 309.99L174.525 312.669L174.938 310.435L163.691 307.494Z" fill="black"/>
<path d="M162.929 312.554C163.279 312.768 163.672 312.866 164.065 312.838C164.498 312.853 164.932 312.807 165.356 312.7C165.602 312.635 165.843 312.55 166.079 312.446C166.223 312.397 166.358 312.319 166.48 312.216C166.57 312.141 166.637 312.032 166.669 311.907C166.702 311.782 166.699 311.648 166.66 311.525C166.619 311.42 166.558 311.327 166.482 311.254C166.406 311.181 166.317 311.129 166.221 311.103C166.077 311.068 165.929 311.055 165.782 311.064C165.528 311.074 165.275 311.113 165.027 311.18C164.606 311.285 164.203 311.472 163.833 311.732C163.187 312.185 162.929 312.631 162.967 312.669C163.006 312.708 163.335 312.377 163.962 312.032C164.322 311.827 164.704 311.683 165.098 311.602C165.328 311.556 165.562 311.53 165.795 311.525C166.047 311.525 166.254 311.563 166.292 311.702C166.331 311.84 166.292 311.778 166.241 311.848C166.15 311.922 166.049 311.979 165.944 312.016C165.733 312.118 165.517 312.206 165.298 312.278C164.907 312.396 164.507 312.471 164.104 312.5C163.711 312.486 163.319 312.504 162.929 312.554V312.554Z" fill="#263238"/>
<path d="M163.071 312.784C163.35 312.447 163.535 312.015 163.6 311.548C163.711 311.047 163.748 310.528 163.71 310.012C163.684 309.708 163.634 309.407 163.561 309.114C163.533 308.921 163.463 308.74 163.358 308.589C163.252 308.438 163.116 308.322 162.961 308.254C162.86 308.229 162.755 308.24 162.658 308.285C162.562 308.33 162.479 308.407 162.419 308.507C162.331 308.651 162.262 308.809 162.212 308.976C162.119 309.269 162.065 309.577 162.051 309.889C162.021 310.417 162.104 310.945 162.29 311.425C162.606 312.239 163.045 312.508 163.058 312.469C163.071 312.431 162.767 312.062 162.548 311.302C162.42 310.864 162.373 310.397 162.412 309.936C162.433 309.671 162.487 309.412 162.574 309.168C162.658 308.891 162.793 308.684 162.877 308.73C162.961 308.776 163.142 309.022 163.193 309.275C163.265 309.538 163.317 309.808 163.348 310.081C163.401 310.548 163.401 311.02 163.348 311.487C163.187 312.285 162.98 312.746 163.071 312.784Z" fill="#263238"/>
<path d="M241.357 305.022L236.438 297.382L236.186 296.99L227.793 304.4L235.54 314.535L235.256 324.793C230.937 326.122 230.285 328.686 230.285 328.686H239.265L247.426 309.997L241.357 305.022Z" fill="#FCD34D"/>
<path opacity="0.6" d="M247.452 309.989L239.292 328.678L230.312 328.686L231.325 327.081L238.627 326.597L246.155 308.93L247.452 309.989Z" fill="white"/>
<path d="M235.334 320.094C235.405 320.201 235.921 319.848 236.625 319.871C237.329 319.894 237.833 320.239 237.916 320.132C238 320.024 237.49 319.41 236.625 319.402C235.76 319.395 235.257 320.009 235.334 320.094Z" fill="#263238"/>
<path d="M235.482 317.544C235.573 317.621 235.966 316.991 236.683 316.822C237.4 316.654 237.974 317.045 238.032 316.938C238.09 316.83 237.961 316.707 237.71 316.546C237.37 316.337 236.982 316.272 236.607 316.361C236.233 316.451 235.895 316.689 235.65 317.037C235.476 317.306 235.437 317.514 235.482 317.544Z" fill="#263238"/>
<path d="M235.418 314.282C235.515 314.336 235.825 313.721 236.451 313.46C237.077 313.199 237.639 313.46 237.684 313.33C237.729 313.199 237.593 313.122 237.342 313.015C237.009 312.88 236.648 312.882 236.316 313.021C235.984 313.161 235.702 313.429 235.515 313.783C235.379 314.059 235.379 314.259 235.418 314.282Z" fill="#263238"/>
<path d="M233.016 311.748C233.12 311.794 233.372 311.188 233.933 310.758C234.495 310.328 235.044 310.259 235.05 310.128C235.057 309.998 234.405 309.821 233.714 310.366C233.023 310.911 232.907 311.733 233.016 311.748Z" fill="#263238"/>
<path d="M231.841 309.536C232.148 309.212 232.412 308.834 232.622 308.415L233.384 307.133C233.556 306.868 233.695 306.576 233.797 306.265C233.825 306.159 233.835 306.047 233.827 305.936C233.818 305.825 233.79 305.718 233.746 305.62C233.694 305.506 233.614 305.413 233.518 305.353C233.421 305.293 233.312 305.268 233.203 305.282C232.888 305.354 232.596 305.533 232.364 305.797C232.154 306.023 231.97 306.282 231.815 306.565C231.564 307.028 231.405 307.553 231.35 308.1C231.256 308.599 231.327 309.122 231.55 309.559C231.552 309.089 231.576 308.62 231.622 308.154C231.752 307.377 232.1 306.676 232.609 306.165C232.791 305.967 233.014 305.829 233.255 305.766C233.288 305.758 233.323 305.763 233.354 305.78C233.385 305.796 233.411 305.824 233.429 305.858C233.462 305.957 233.462 306.067 233.429 306.165C233.341 306.437 233.227 306.694 233.087 306.933L232.396 308.269C232.157 308.655 231.97 309.082 231.841 309.536V309.536Z" fill="#263238"/>
<path d="M231.505 309.875C231.551 309.875 231.505 309.306 231.028 308.669C230.697 308.242 230.259 307.955 229.778 307.852C229.298 307.75 228.803 307.837 228.368 308.101C228.322 308.147 228.285 308.204 228.26 308.269C228.236 308.335 228.224 308.406 228.226 308.477C228.23 308.601 228.269 308.72 228.336 308.815C228.426 308.949 228.535 309.063 228.658 309.153C228.861 309.322 229.077 309.466 229.304 309.583C229.678 309.787 230.077 309.919 230.485 309.974C230.857 310.075 231.246 310.032 231.596 309.852C231.596 309.775 231.17 309.813 230.531 309.652C230.16 309.556 229.801 309.401 229.465 309.191C229.274 309.07 229.093 308.929 228.923 308.769C228.835 308.705 228.757 308.625 228.691 308.531C228.645 308.439 228.658 308.462 228.691 308.439C228.769 308.38 228.857 308.341 228.949 308.324C229.059 308.292 229.171 308.271 229.285 308.262C229.501 308.24 229.719 308.258 229.93 308.316C230.289 308.41 230.622 308.611 230.899 308.899C231.325 309.414 231.46 309.905 231.505 309.875Z" fill="#263238"/>
<path opacity="0.6" d="M241.351 310.934C241.94 310.934 242.417 310.367 242.417 309.667C242.417 308.968 241.94 308.4 241.351 308.4C240.763 308.4 240.286 308.968 240.286 309.667C240.286 310.367 240.763 310.934 241.351 310.934Z" fill="white"/>
<path opacity="0.3" d="M228.588 305.42L230.312 307.67L237.562 299.124L236.555 297.565L228.588 305.42Z" fill="black"/>
<path d="M184.725 167.895C184.725 167.895 176.332 201.772 168.83 240.071C164.311 263.29 160.018 306.496 160.018 306.496L179.941 311.717L188.482 256.173L197.598 223.294C200.73 212.913 205.23 205.327 210.691 199.706C216.631 189.725 219.73 178.307 218.536 166.152L184.725 167.895Z" fill="#263238"/>
<path d="M183.085 173.293L190.529 246.236C191.252 253.277 192.253 260.057 196.275 265.302L226.418 307.816L241.351 291.876L209.4 239.925L214.952 166.689L183.692 173.032" fill="#263238"/>
<path d="M209.704 239.38C209.762 239.51 208.412 240.309 207.121 241.898C205.83 243.487 205.255 245.131 205.146 245.069C205.036 245.008 205.494 243.219 206.824 241.568C208.154 239.917 209.678 239.257 209.704 239.38Z" fill="#455A64"/>
<path d="M209.251 239.925C209.251 240.063 208.057 240.017 206.624 240.186C205.19 240.355 204.041 240.662 203.996 240.523C204.789 240.008 205.675 239.727 206.579 239.702C208.063 239.525 209.264 239.794 209.251 239.925Z" fill="#455A64"/>
<path d="M217.638 182.722C217.618 183.001 217.581 183.278 217.528 183.551C217.476 183.843 217.425 184.173 217.36 184.557C217.295 184.941 217.16 185.401 217.037 185.901C216.256 188.729 215.143 191.412 213.732 193.871C211.989 197.026 209.568 200.459 206.992 204.344C205.638 206.364 204.387 208.48 203.247 210.678C202.05 213.059 200.961 215.514 199.987 218.034C197.979 223.225 196.358 228.323 194.983 232.999C193.608 237.675 192.465 241.921 191.497 245.492C190.529 249.062 189.767 251.903 189.211 253.938C188.94 254.898 188.721 255.665 188.566 256.241C188.497 256.505 188.41 256.762 188.308 257.009C188.347 256.73 188.406 256.455 188.482 256.188L189.057 253.884L191.213 245.377C192.143 241.798 193.259 237.529 194.615 232.838C195.971 228.146 197.585 223.025 199.599 217.811C200.583 215.276 201.685 212.808 202.898 210.417C204.047 208.202 205.313 206.076 206.688 204.052C209.271 200.167 211.724 196.773 213.48 193.671C214.902 191.252 216.046 188.618 216.882 185.839C217.011 185.34 217.147 184.902 217.237 184.511C217.328 184.119 217.386 183.804 217.444 183.528C217.49 183.253 217.555 182.984 217.638 182.722V182.722Z" fill="#455A64"/>
<path d="M145.64 146.833L140.404 150.073L131.32 155.379C130.707 155.631 130.191 156.139 129.867 156.807L126.536 163.779H132.908L134.606 160.378C135.675 160.832 136.835 160.881 137.928 160.518C139.021 160.155 139.992 159.398 140.707 158.351L149.959 154.511L145.64 146.833Z" fill="#FFBE9D"/>
<path d="M206.463 61.2508C206.832 60.3172 207.44 59.5456 208.199 59.0455C208.958 58.5453 209.83 58.342 210.691 58.4644C211.553 58.5867 212.36 59.0285 212.999 59.7271C213.637 60.4257 214.075 61.3456 214.249 62.3565C214.307 63.3318 214.452 64.297 214.681 65.2359C214.925 65.8384 215.334 66.3242 215.841 66.6131C216.348 66.9021 216.923 66.9769 217.471 66.8253C217.144 67.5562 216.64 68.153 216.024 68.5375C216.103 68.4768 216.193 68.4392 216.287 68.4278C216.38 68.4165 216.475 68.4316 216.562 68.4721C216.65 68.5126 216.728 68.5772 216.791 68.6607C216.853 68.7441 216.898 68.844 216.922 68.9522C216.951 69.1777 216.924 69.4087 216.842 69.6153C216.76 69.822 216.628 69.9948 216.463 70.1116C216.128 70.3346 215.756 70.4682 215.372 70.5032C213.532 70.8333 211.499 70.9178 209.949 69.7353C208.258 68.4377 207.509 65.996 206.876 63.7309" fill="#263238"/>
<path d="M188.837 54.9092C186.9 55.1088 185.286 56.8057 184.163 58.6946C183.04 60.5834 182.258 62.7487 181.083 64.5915C180.205 65.9659 179.088 67.2098 178.656 68.8529C177.965 71.4789 179.179 74.5041 178.217 76.9996C177.668 78.4124 176.519 79.3722 175.951 80.7696C175.241 82.5126 175.563 84.6088 175.996 86.4515C176.212 87.7802 176.764 88.9989 177.578 89.9452C178.311 90.5429 179.155 90.9197 180.037 91.0432C186.654 92.4902 193.485 91.4851 199.606 88.1638" fill="#263238"/>
<path d="M203.964 68.0467C203.937 66.4485 203.64 64.873 203.091 63.4138C202.542 61.9547 201.752 60.6417 200.768 59.5529C199.784 58.4641 198.626 57.6218 197.363 57.076C196.099 56.5302 194.757 56.292 193.414 56.3757C188.049 56.6982 183.924 62.1959 183.892 68.5842C183.892 74.1817 183.95 79.8175 184.221 81.8216C185.028 87.8644 188.295 89.7072 189.586 90.2063C190.045 90.318 190.512 90.3721 190.98 90.3675V90.3675C190.99 90.3693 190.998 90.375 191.004 90.3834C191.01 90.3919 191.013 90.4026 191.013 90.4136L190.735 97.5621C190.78 102.169 193.414 105.893 197.32 105.893C201.226 105.893 203.809 101.877 203.834 97.2165L203.964 68.0467Z" fill="#FFBE9D"/>
<path d="M185.81 71.7167C185.809 71.9701 185.892 72.2136 186.041 72.3956C186.189 72.5776 186.391 72.6839 186.604 72.6919C186.708 72.7023 186.812 72.6878 186.911 72.649C187.01 72.6103 187.101 72.5482 187.18 72.4665C187.258 72.3848 187.322 72.2851 187.367 72.1734C187.412 72.0617 187.438 71.9403 187.443 71.8165C187.446 71.5625 187.366 71.3171 187.218 71.1332C187.071 70.9493 186.869 70.8417 186.655 70.8337C186.551 70.8243 186.446 70.8398 186.346 70.8794C186.247 70.9189 186.155 70.9816 186.076 71.0638C185.998 71.1461 185.933 71.2462 185.888 71.3583C185.842 71.4704 185.815 71.5922 185.81 71.7167Z" fill="#263238"/>
<path d="M185.286 70.0196C185.383 70.1501 186.003 69.6049 186.888 69.6049C187.772 69.6049 188.411 70.1271 188.508 70.0042C188.605 69.8814 188.45 69.7201 188.166 69.4744C187.787 69.1604 187.336 68.9941 186.875 68.9983C186.411 68.99 185.957 69.1626 185.583 69.4898C185.325 69.7355 185.235 69.9735 185.286 70.0196Z" fill="#263238"/>
<path d="M194.422 71.7167C194.419 71.97 194.499 72.2146 194.647 72.3973C194.794 72.5799 194.997 72.6858 195.21 72.6919C195.313 72.7023 195.418 72.6878 195.517 72.649C195.616 72.6103 195.707 72.5482 195.786 72.4665C195.864 72.3848 195.928 72.2851 195.973 72.1734C196.018 72.0617 196.044 71.9403 196.049 71.8165C196.052 71.5625 195.972 71.3171 195.824 71.1332C195.677 70.9493 195.475 70.8417 195.261 70.8337C195.157 70.8243 195.052 70.8399 194.953 70.8795C194.854 70.9191 194.763 70.9819 194.685 71.0643C194.606 71.1466 194.543 71.2467 194.498 71.3588C194.453 71.4709 194.427 71.5926 194.422 71.7167V71.7167Z" fill="#263238"/>
<path d="M193.937 70.2194C194.041 70.3422 194.66 69.7971 195.538 69.7971C196.416 69.7971 197.062 70.3269 197.159 70.1963C197.256 70.0658 197.107 69.9122 196.823 69.6665C196.443 69.357 195.993 69.1911 195.532 69.1905C195.069 69.1876 194.616 69.3597 194.241 69.6819C193.982 69.9276 193.886 70.1579 193.937 70.2194Z" fill="#263238"/>
<path d="M190.741 77.9828C190.279 77.8057 189.8 77.7024 189.315 77.6757C189.089 77.6757 188.876 77.5912 188.837 77.4146C188.822 77.1469 188.874 76.88 188.985 76.6468L189.631 74.612C190.554 71.7173 191.226 69.3294 191.122 69.291C190.392 70.9521 189.774 72.6801 189.276 74.4585C189.05 75.1726 188.843 75.8559 188.63 76.5086C188.489 76.8295 188.448 77.1993 188.514 77.5528C188.547 77.6465 188.597 77.7303 188.661 77.798C188.725 77.8658 188.8 77.9158 188.882 77.9444C189.009 77.9834 189.139 78.0066 189.269 78.0135C189.759 78.0792 190.254 78.0688 190.741 77.9828Z" fill="#263238"/>
<path d="M191.026 90.3677C191.026 90.3677 194.428 90.6978 198.676 87.6572C198.676 87.6572 197.333 93.032 190.929 92.2642L191.026 90.3677Z" fill="#EB996E"/>
<path d="M191.117 80.5009C191.285 80.2521 191.503 80.0577 191.752 79.9356C192 79.8135 192.27 79.7676 192.537 79.8022C192.731 79.8244 192.919 79.8921 193.091 80.0015C193.263 80.1109 193.415 80.2598 193.538 80.4395C193.655 80.615 193.724 80.8287 193.737 81.0522C193.749 81.2757 193.705 81.4985 193.609 81.6911C193.467 81.88 193.282 82.0139 193.076 82.0756C192.869 82.1372 192.653 82.1236 192.453 82.0366C192.039 81.8736 191.657 81.6124 191.33 81.2688C191.23 81.1863 191.145 81.0821 191.078 80.9616C191.046 80.9033 191.029 80.8353 191.029 80.7658C191.029 80.6964 191.046 80.6284 191.078 80.57" fill="#EB996E"/>
<path d="M193.33 78.7043C193.188 78.7043 193.188 79.833 192.368 80.6392C191.549 81.4454 190.535 81.3225 190.528 81.4761C190.522 81.6296 190.754 81.6987 191.174 81.7141C191.733 81.7208 192.276 81.4954 192.711 81.0768C193.126 80.6725 193.393 80.0912 193.453 79.4567C193.505 78.9807 193.414 78.6966 193.33 78.7043Z" fill="#263238"/>
<path d="M193.544 68.3846C193.628 68.6687 194.506 68.5305 195.539 68.684C196.572 68.8376 197.411 69.1601 197.547 68.9067C197.605 68.7838 197.463 68.5151 197.127 68.2464C196.677 67.9077 196.169 67.6951 195.64 67.6246C195.111 67.5541 194.575 67.6276 194.073 67.8394C193.693 68.0237 193.505 68.2464 193.544 68.3846Z" fill="#263238"/>
<path d="M185.609 67.8774C185.764 68.1155 186.371 67.8774 187.1 67.8774C187.83 67.8774 188.443 68.0387 188.585 67.7853C188.65 67.6624 188.585 67.4244 188.282 67.2017C187.92 66.93 187.497 66.7935 187.069 66.8099C186.641 66.8263 186.227 66.9949 185.88 67.2939C185.622 67.5166 185.538 67.7623 185.609 67.8774Z" fill="#263238"/>
<path d="M182.723 67.2711C184.014 69.0064 187.243 67.2711 189.076 65.5742C190.228 66.1901 191.537 66.2476 192.725 65.7343C193.912 65.221 194.884 64.1775 195.435 62.8254C196.804 64.361 199.077 63.3936 199.696 61.2897C200.316 59.1859 199.496 56.5369 198.108 55.0166C196.727 53.6113 194.968 52.8405 193.15 52.8436C191.052 52.7247 188.972 53.3382 187.164 54.6084C185.356 55.8785 183.9 57.75 182.975 59.9921C182.11 62.1804 181.774 64.983 182.723 67.2634" fill="#263238"/>
<path d="M197.785 54.9093C201.472 53.3736 205.675 57.2512 206.449 60.3993C207.792 65.8585 207.243 66.6647 208.425 69.1909C209.2 70.834 211.343 72.2622 212.299 73.9437C213.351 75.7251 213.745 78.9807 213.428 81.1306C213.164 82.9427 211.801 88.1025 211.801 88.1025C211.801 88.1025 206.139 88.8703 203.15 88.4864C202.384 88.4414 201.638 88.1781 200.975 87.7186C200.329 87.2272 201.233 84.9851 201.026 84.1328C200.426 81.7142 198.696 80.5547 198.844 78.0363C199.038 74.6962 201.155 74.1971 200.703 70.8494C200.465 69.0911 197.947 66.9488 197.533 65.2443C197.12 63.5397 195.519 57.6044 197.759 54.9247" fill="#263238"/>
<path d="M207.205 65.3203C207.108 65.3203 207.172 64.1839 206.985 62.8402C206.798 61.4964 206.456 60.4445 206.546 60.3984C206.989 61.085 207.255 61.9088 207.314 62.7711C207.491 63.615 207.453 64.5022 207.205 65.3203V65.3203Z" fill="#FCD34D"/>
<path d="M206.863 63.4475C206.863 63.4475 206.734 63.555 206.469 63.6318C206.094 63.7423 205.706 63.7863 205.32 63.7623C204.741 63.7275 204.174 63.5607 203.648 63.2709C203.006 62.9121 202.439 62.3875 201.989 61.7352C201.576 61.0937 201.104 60.5091 200.581 59.9922C200.145 59.6074 199.656 59.3164 199.135 59.1323C198.641 58.9865 198.138 58.8839 197.631 58.8251C197.762 58.7535 197.906 58.7219 198.051 58.733C198.434 58.7073 198.819 58.7487 199.193 58.8558C199.755 59.0169 200.287 59.3007 200.762 59.6928C201.313 60.2029 201.809 60.7908 202.241 61.4435C203.013 62.5678 204.126 63.2873 205.339 63.4475C205.847 63.488 206.356 63.488 206.863 63.4475Z" fill="#455A64"/>
<path d="M216.954 68.7303C216.828 68.8795 216.665 68.9764 216.489 69.0067C216.012 69.1248 215.516 69.0463 215.082 68.784C214.445 68.3936 213.93 67.7688 213.616 67.0027C213.229 66.1811 212.971 65.1983 212.609 64.2615C212.321 63.3662 211.783 62.6155 211.085 62.1346C210.491 61.8071 209.819 61.7391 209.187 61.9427C208.599 62.1616 208.07 62.5647 207.657 63.1098C207.708 62.9108 207.802 62.731 207.928 62.5877C208.246 62.1594 208.657 61.8433 209.116 61.674C209.805 61.4066 210.552 61.4504 211.215 61.7968C211.993 62.2996 212.595 63.1164 212.912 64.1003C213.3 65.0754 213.558 66.0429 213.887 66.8338C214.157 67.5491 214.608 68.1455 215.179 68.5383C215.57 68.8051 216.022 68.918 216.47 68.8608C216.773 68.8071 216.935 68.6996 216.954 68.7303Z" fill="#455A64"/>
<path d="M206.876 62.7564C206.876 62.7564 206.715 62.8485 206.411 62.8178C205.976 62.7565 205.565 62.5517 205.223 62.2266C204.727 61.7507 204.315 61.1638 204.009 60.499C203.665 59.7139 203.254 58.9729 202.783 58.2876C202.321 57.7171 201.761 57.271 201.142 56.9796C200.523 56.6882 199.858 56.5582 199.193 56.5984C198.634 56.6627 198.082 56.7965 197.547 56.9977C197.547 56.9977 197.67 56.8595 197.941 56.7059C198.332 56.5002 198.748 56.3706 199.174 56.322C199.885 56.2323 200.604 56.3379 201.276 56.6308C201.947 56.9237 202.554 57.3959 203.047 58.0112C203.534 58.721 203.952 59.4937 204.293 60.3147C204.565 60.9545 204.935 61.5276 205.385 62.0039C205.804 62.4318 206.325 62.6946 206.876 62.7564V62.7564Z" fill="#455A64"/>
<path d="M208.496 88.8855C208.496 88.8855 208.729 88.4632 209.142 87.6953C209.695 86.6116 210.129 85.4477 210.433 84.2324C210.892 82.4433 210.947 80.5422 210.594 78.7194C210.381 77.6147 209.986 76.5711 209.432 75.6487C208.878 74.7263 208.176 73.9433 207.366 73.3446C206.495 72.7303 205.533 72.3157 204.681 71.6938C203.833 71.1074 203.157 70.2256 202.744 69.1676C202.401 68.2316 202.125 67.2634 201.917 66.2729C201.736 65.4279 201.487 64.6052 201.175 63.8159C200.963 63.2448 200.651 62.7339 200.26 62.3169C199.87 61.9 199.409 61.5865 198.909 61.3972C198.534 61.285 198.144 61.2563 197.76 61.3127C197.76 61.3127 197.857 61.2513 198.057 61.2052C198.349 61.1347 198.649 61.1347 198.941 61.2052C199.474 61.3764 199.969 61.6835 200.391 62.1051C200.814 62.5268 201.154 63.053 201.388 63.6469C201.72 64.4461 201.986 65.2819 202.182 66.1424C202.396 67.1111 202.679 68.0564 203.028 68.968C203.415 69.9545 204.049 70.775 204.842 71.3175C205.656 71.9164 206.617 72.3234 207.528 72.9684C208.373 73.5992 209.104 74.4248 209.678 75.3966C210.251 76.3685 210.655 77.4669 210.866 78.6273C211.216 80.5124 211.134 82.4751 210.627 84.3092C210.301 85.5384 209.827 86.7048 209.219 87.7721C209.061 88.0627 208.888 88.3422 208.703 88.609C208.58 88.801 208.509 88.8931 208.496 88.8855Z" fill="#455A64"/>
<path d="M180.593 90.7431C180.593 90.7431 180.522 90.6817 180.419 90.5281C180.27 90.307 180.134 90.0735 180.012 89.8294C179.56 88.92 179.266 87.9123 179.147 86.8656C178.945 85.3028 179.124 83.7039 179.664 82.2586C180.005 81.4374 180.394 80.6447 180.826 79.886C181.282 79.1089 181.568 78.2091 181.659 77.2677C181.768 75.3328 181.013 73.5284 180.91 71.7624C180.748 70.2015 180.919 68.6172 181.407 67.1554C181.742 66.1798 182.248 65.3003 182.892 64.5755C183.062 64.3772 183.246 64.1949 183.44 64.0304C183.505 63.9652 183.577 63.9109 183.653 63.8691C183.653 63.8691 183.402 64.1532 183.008 64.683C182.423 65.4332 181.963 66.3087 181.652 67.2629C181.214 68.6861 181.073 70.214 181.239 71.7163C181.344 72.6082 181.499 73.4907 181.704 74.3577C181.946 75.3129 182.053 76.3093 182.02 77.3061C181.922 78.3075 181.618 79.2647 181.136 80.0933C180.707 80.831 180.319 81.6004 179.973 82.3968C179.444 83.7746 179.247 85.3008 179.405 86.8042C179.506 87.8213 179.757 88.8092 180.148 89.7219C180.413 90.3976 180.619 90.7047 180.593 90.7431Z" fill="#455A64"/>
<path d="M192.42 53.6424C191.602 53.7665 190.793 53.9641 189.999 54.2336C188.106 54.9544 186.466 56.4018 185.338 58.3492C184.289 60.3578 183.714 62.6651 183.672 65.0293C183.68 66.0105 183.758 66.9892 183.905 67.9547C183.792 67.7157 183.714 67.4563 183.672 67.1869C183.521 66.4763 183.441 65.7469 183.434 65.0139C183.406 62.5734 183.968 60.1747 185.054 58.1035C186.219 56.0784 187.944 54.6031 189.928 53.9342C190.522 53.7334 191.133 53.6149 191.749 53.581C191.974 53.5604 192.201 53.5811 192.42 53.6424V53.6424Z" fill="#455A64"/>
<path d="M188.069 63.486C187.981 63.2797 187.926 63.0558 187.907 62.8257C187.811 62.1977 187.787 61.5571 187.836 60.9214C187.906 59.8637 188.157 58.8341 188.574 57.896C188.991 56.958 189.564 56.1312 190.26 55.4667C190.955 54.8021 191.758 54.3138 192.618 54.0318C193.478 53.7498 194.377 53.68 195.261 53.8267C195.791 53.9049 196.31 54.0676 196.804 54.3104C196.992 54.3831 197.168 54.4977 197.32 54.6483C196.64 54.3938 195.942 54.2139 195.235 54.1108C193.524 53.8973 191.812 54.4965 190.47 55.778C189.129 57.0594 188.268 58.9192 188.075 60.9522C188.01 61.7949 188.008 62.6428 188.069 63.486Z" fill="#455A64"/>
<path d="M217.471 172.625L210.492 140.537L212.906 127.983L216.386 104.419C216.386 104.419 213.19 99.2204 204.913 98.7213L204.358 93.9531L190.187 94.5444L189.922 99.0515C187.818 99.6729 185.847 100.815 184.139 102.402C182.43 103.99 181.022 105.987 180.006 108.265L169.941 130.778L142.412 147.164L146.047 157.307C146.047 157.307 173.679 144.853 176.016 143.632C177.572 142.825 179.244 139.416 180.723 135.761C181.827 142.042 182.969 147.018 182.969 147.018L182.73 171.634L217.471 172.625Z" fill="#FCD34D"/>
<path d="M205.126 107.49C205.126 107.49 204.765 107.613 204.126 107.843C203.486 108.073 202.563 108.419 201.427 108.88C200.291 109.34 198.948 109.901 197.392 110.339C196.572 110.588 195.727 110.699 194.881 110.669C193.968 110.539 193.088 110.183 192.298 109.624C191.485 109.11 190.736 108.534 189.974 108.089C189.248 107.645 188.481 107.302 187.688 107.068C186.34 106.668 184.942 106.564 183.563 106.76C182.291 106.985 181.05 107.405 179.87 108.012C179.938 107.941 180.014 107.882 180.096 107.835C180.319 107.68 180.549 107.541 180.787 107.421C181.662 106.962 182.585 106.644 183.531 106.476C185.785 106.082 188.086 106.522 190.122 107.736C190.904 108.204 191.659 108.78 192.459 109.271C193.204 109.801 194.033 110.143 194.893 110.277C195.706 110.307 196.518 110.207 197.308 109.978C198.845 109.571 200.2 109.026 201.343 108.611C202.486 108.196 203.422 107.843 204.08 107.689C204.41 107.597 204.668 107.544 204.842 107.513C204.935 107.483 205.031 107.475 205.126 107.49V107.49Z" fill="#FAFAFA"/>
<path d="M209.393 123.775C209.393 123.821 208.851 123.66 207.857 123.599C206.458 123.555 205.063 123.781 203.725 124.267C201.744 125.015 199.818 125.954 197.966 127.077C195.686 128.501 193.24 129.513 190.709 130.079C190.036 130.191 189.356 130.235 188.676 130.21C188.011 130.177 187.351 130.061 186.707 129.864C185.505 129.455 184.362 128.831 183.317 128.014C181.322 126.478 179.637 124.942 177.946 124.305C176.647 123.691 175.213 123.612 173.872 124.082C173.392 124.297 172.935 124.578 172.51 124.919C172.601 124.799 172.703 124.691 172.813 124.597C173.124 124.322 173.465 124.1 173.827 123.937C175.194 123.395 176.676 123.43 178.023 124.036C179.766 124.674 181.503 126.232 183.485 127.699C184.504 128.489 185.619 129.09 186.791 129.48C187.412 129.669 188.048 129.78 188.689 129.81C189.349 129.835 190.01 129.792 190.664 129.68C193.161 129.118 195.577 128.13 197.837 126.747C199.704 125.632 201.648 124.709 203.647 123.99C205.014 123.521 206.438 123.337 207.857 123.445C208.239 123.48 208.619 123.549 208.993 123.652C209.129 123.68 209.263 123.721 209.393 123.775V123.775Z" fill="#FAFAFA"/>
<path d="M183.556 112.55C183.556 112.55 183.556 112.665 183.491 112.88C183.427 113.095 183.362 113.402 183.246 113.801C183.02 114.569 182.658 115.736 182.194 117.126C181.729 118.516 181.161 120.197 180.651 122.04C180.382 123.018 180.166 124.016 180.005 125.027C179.814 126.099 179.74 127.196 179.786 128.29C179.914 130.425 180.177 132.545 180.573 134.632C180.909 136.567 181.264 138.295 181.561 139.754C181.858 141.213 182.097 142.388 182.245 143.209C182.323 143.616 182.374 143.977 182.407 144.154C182.433 144.263 182.444 144.377 182.439 144.491C182.306 144.087 182.198 143.671 182.116 143.247L181.322 139.846C180.999 138.395 180.618 136.667 180.263 134.732C179.845 132.63 179.57 130.491 179.443 128.336C179.395 127.208 179.474 126.077 179.676 124.973C179.836 123.949 180.051 122.939 180.321 121.948C180.851 120.059 181.451 118.416 181.942 117.042C182.433 115.667 182.826 114.546 183.091 113.771C183.221 113.351 183.376 112.943 183.556 112.55Z" fill="#263238"/>
<path d="M167.791 147.463C167.623 147.491 167.452 147.467 167.294 147.394C166.859 147.232 166.456 146.971 166.106 146.626C165.582 146.118 165.127 145.517 164.756 144.845C164.337 143.994 164.045 143.064 163.891 142.096C163.735 141.166 163.519 140.253 163.246 139.362C163.002 138.654 162.635 138.015 162.167 137.489C161.725 137.018 161.182 136.699 160.599 136.567C160.599 136.567 160.773 136.506 161.096 136.567C161.55 136.674 161.973 136.92 162.322 137.281C162.844 137.808 163.257 138.47 163.53 139.216C163.838 140.117 164.076 141.051 164.24 142.004C164.388 142.93 164.66 143.822 165.047 144.645C165.384 145.301 165.802 145.894 166.286 146.403C166.606 146.756 166.969 147.046 167.365 147.263C167.623 147.394 167.797 147.424 167.791 147.463Z" fill="#FAFAFA"/>
<path d="M152.019 154.62C151.96 154.62 152.019 153.944 151.876 152.869C151.714 151.472 151.399 150.107 150.94 148.807C150.494 147.504 149.903 146.278 149.184 145.16C148.629 144.3 148.203 143.855 148.242 143.801C148.679 144.101 149.063 144.5 149.372 144.976C150.16 146.074 150.794 147.315 151.25 148.653C151.727 149.983 152.017 151.397 152.109 152.838C152.173 153.433 152.142 154.038 152.019 154.62V154.62Z" fill="#FAFAFA"/>
<path d="M210.582 140.246C210.582 140.246 210.175 140.246 209.445 140.353C208.412 140.473 207.39 140.701 206.392 141.037C205.1 141.444 203.654 142.081 202.014 142.787C200.24 143.606 198.402 144.216 196.527 144.607C193.101 145.229 189.599 144.871 186.313 143.563C185.323 143.162 184.361 142.672 183.434 142.096C183.104 141.889 182.859 141.712 182.691 141.597C182.523 141.482 182.439 141.382 182.439 141.382C182.794 141.55 183.141 141.74 183.479 141.95C184.421 142.466 185.389 142.913 186.378 143.286C189.647 144.505 193.107 144.821 196.494 144.208C198.349 143.818 200.168 143.224 201.93 142.434C203.57 141.751 205.062 141.129 206.353 140.753C207.366 140.436 208.405 140.248 209.452 140.192C209.736 140.172 210.02 140.172 210.304 140.192C210.398 140.195 210.491 140.213 210.582 140.246V140.246Z" fill="#FAFAFA"/>
<g opacity="0.3">
<path opacity="0.3" d="M190.923 99.0664C192.788 100.308 194.888 100.966 197.026 100.979C199.164 100.991 201.269 100.356 203.144 99.1355C199.047 99.3761 194.945 99.394 190.839 99.1893" fill="black"/>
</g>
<path d="M204.816 98.6213C204.639 98.7289 204.45 98.8064 204.255 98.8516C203.736 99.031 203.208 99.1645 202.673 99.2509C200.909 99.523 199.128 99.595 197.353 99.4658C195.274 99.3583 193.408 99.2125 192.053 99.2048C190.697 99.1971 189.857 99.2509 189.857 99.2048C190.045 99.1314 190.241 99.09 190.438 99.082C190.819 99.0205 191.368 98.9745 192.053 98.9438C193.415 98.8823 195.281 98.9821 197.366 99.0896C199.126 99.2146 200.891 99.1812 202.647 98.9898C203.99 98.7979 204.803 98.5522 204.816 98.6213Z" fill="#263238"/>
<path d="M196.126 134.011C196.507 134.909 218.839 156.093 225.243 162.152C225.466 162.363 225.651 162.624 225.789 162.921C225.926 163.218 226.013 163.544 226.044 163.881C226.075 164.217 226.05 164.558 225.97 164.883C225.89 165.209 225.757 165.512 225.579 165.776L210.678 187.774C210.322 188.303 209.804 188.642 209.238 188.719C208.672 188.795 208.103 188.602 207.657 188.181L179.114 161.307C178.885 161.091 178.695 160.823 178.556 160.517C178.417 160.211 178.331 159.875 178.305 159.529C178.278 159.183 178.311 158.834 178.401 158.503C178.492 158.173 178.638 157.868 178.83 157.606L196.126 134.011Z" fill="#263238"/>
<path d="M195.784 130.256C196.177 131.185 220.091 153.851 225.514 158.98C225.798 159.253 225.98 159.648 226.02 160.08C226.06 160.511 225.955 160.944 225.727 161.284L209.851 184.733C209.622 185.071 209.29 185.288 208.927 185.335C208.564 185.383 208.2 185.257 207.915 184.987L178.126 156.899C177.98 156.762 177.858 156.59 177.769 156.395C177.68 156.2 177.625 155.986 177.608 155.765C177.59 155.544 177.61 155.321 177.667 155.109C177.724 154.898 177.817 154.702 177.939 154.535L195.784 130.256Z" fill="#FCD34D"/>
<path opacity="0.4" d="M195.784 130.256C196.178 131.193 220.549 154.281 225.662 159.126C225.785 159.242 225.887 159.385 225.963 159.548C226.038 159.711 226.086 159.891 226.102 160.076C226.119 160.261 226.105 160.448 226.06 160.626C226.016 160.805 225.942 160.971 225.843 161.115L209.703 184.918C209.505 185.21 209.219 185.397 208.906 185.438C208.592 185.48 208.278 185.373 208.031 185.14L177.946 156.731C177.818 156.612 177.713 156.464 177.636 156.296C177.558 156.127 177.511 155.942 177.495 155.751C177.48 155.56 177.498 155.367 177.548 155.184C177.597 155.001 177.678 154.833 177.784 154.688L195.784 130.256Z" fill="black"/>
<path d="M198.25 130.671C205.823 138.172 226.295 157.545 226.295 157.545L210.426 180.986C209.967 181.659 209.304 182.091 208.579 182.189C207.855 182.287 207.127 182.042 206.553 181.508L179.011 155.54C178.716 155.262 178.471 154.915 178.292 154.52C178.113 154.126 178.003 153.692 177.969 153.246C177.934 152.8 177.976 152.35 178.092 151.923C178.208 151.497 178.396 151.103 178.643 150.765L193.021 131.193C193.665 130.315 194.571 129.769 195.547 129.672C196.523 129.575 197.492 129.933 198.25 130.671V130.671Z" fill="#455A64"/>
<path d="M217.212 148.906L217.612 152.223L224.869 159.633L226.296 157.521L217.212 148.906Z" fill="#FAFAFA"/>
<path d="M195.997 181.646L202.841 174.859L199.516 165.445L194.906 170.421C193.825 170.762 192.721 170.991 191.607 171.104C191.034 171.172 190.455 171.12 189.896 170.951C189.198 170.775 188.522 170.489 187.888 170.098C187.34 169.661 186.636 170.252 186.843 170.912C187.049 171.573 188.534 172.816 190.626 173.216C192.505 173.561 190.38 175.212 189.173 176.087C189.067 176.164 188.988 176.285 188.952 176.427C188.917 176.569 188.926 176.721 188.98 176.855C189.606 178.544 192.072 184.08 195.997 181.646Z" fill="#FFBE9D"/>
<path d="M206.856 114.999C206.346 106.553 212.938 97.9842 216.786 105.087C221.008 112.872 230.26 131.193 232.539 143.632C233.604 149.429 204.384 177.07 202.582 178.775C202.531 178.829 202.059 178.061 202.021 178.007L194.796 169.1C194.764 169.047 196.494 166.943 196.539 166.889L217.115 142.917C217.129 142.894 217.137 142.866 217.137 142.837C217.137 142.808 217.129 142.78 217.115 142.756C216.424 141.259 207.341 121.549 206.856 115.199V114.999Z" fill="#FCD34D"/>
<path d="M223.112 142.756C223.067 142.91 221.705 142.396 219.968 142.35C218.232 142.303 216.85 142.695 216.811 142.534C216.773 142.373 218.161 141.72 219.988 141.766C221.815 141.812 223.112 142.626 223.112 142.756Z" fill="#263238"/>
<path d="M221.822 145.459C221.712 145.566 220.879 144.468 219.543 143.662C218.207 142.856 216.961 142.656 216.993 142.488C217.025 142.319 218.329 142.28 219.756 143.171C221.183 144.062 221.919 145.39 221.822 145.459Z" fill="#263238"/>
<path d="M217.115 142.918C217.025 142.778 216.95 142.626 216.889 142.465L216.302 141.144L214.21 136.253C212.454 132.068 210.059 126.356 207.418 120.044C206.035 117.108 205.206 113.848 204.991 110.492C204.81 107.421 205.559 104.511 206.927 102.814C207.54 102.033 208.308 101.447 209.161 101.11C209.8 100.851 210.477 100.754 211.15 100.826C211.573 100.869 211.987 100.993 212.376 101.194C212.512 101.263 212.602 101.34 212.667 101.378C212.731 101.417 212.764 101.447 212.757 101.455C212.245 101.19 211.7 101.029 211.143 100.979C210.484 100.932 209.825 101.05 209.206 101.325C208.393 101.669 207.663 102.246 207.082 103.006C205.791 104.688 205.068 107.49 205.262 110.508C205.51 113.805 206.346 117.001 207.715 119.883C210.33 126.21 212.693 131.946 214.423 136.146C215.256 138.203 215.934 139.877 216.418 141.09L216.947 142.45C217.013 142.6 217.069 142.757 217.115 142.918V142.918Z" fill="#263238"/>
<g opacity="0.3">
<path opacity="0.3" d="M205.345 110.254C204.596 117.74 204.054 125.311 204.635 132.813C204.945 136.767 208.464 141.719 211.233 143.939L210.491 140.537C210.898 138.333 212.253 131.369 212.253 131.369C212.253 131.369 209.729 125.426 208.722 123.253C206.785 119.279 205.631 114.835 205.345 110.254" fill="black"/>
</g>
<path d="M230.479 136.184C230.479 136.184 230.337 136.376 230.034 136.675C229.885 136.821 229.692 136.99 229.459 137.174C229.227 137.359 228.969 137.574 228.665 137.781C227.958 138.276 227.22 138.705 226.457 139.063C225.522 139.499 224.559 139.846 223.578 140.1C222.595 140.345 221.598 140.494 220.595 140.545C219.773 140.583 218.95 140.536 218.135 140.407C217.822 140.363 217.512 140.296 217.206 140.207C216.973 140.158 216.745 140.089 216.521 140C216.321 139.951 216.129 139.863 215.953 139.739C215.953 139.67 216.792 139.969 218.168 140.123C218.97 140.212 219.777 140.232 220.582 140.184C221.565 140.103 222.542 139.944 223.507 139.708C224.472 139.456 225.421 139.125 226.347 138.718C227.101 138.379 227.837 137.984 228.549 137.535C229.763 136.775 230.441 136.13 230.479 136.184Z" fill="#FAFAFA"/>
<path d="M218.484 161.913C218.22 161.214 218.004 160.49 217.838 159.748C217.385 157.994 216.818 156.284 216.14 154.635C215.761 153.736 215.314 152.88 214.804 152.078C214.388 151.429 213.904 150.846 213.364 150.342C212.435 149.49 211.737 149.16 211.77 149.091C211.944 149.12 212.112 149.184 212.267 149.283C212.702 149.509 213.118 149.787 213.506 150.112C214.085 150.604 214.604 151.188 215.049 151.847C215.585 152.656 216.051 153.529 216.437 154.45C217.13 156.119 217.675 157.869 218.064 159.671C218.267 160.4 218.408 161.151 218.484 161.913V161.913Z" fill="#FAFAFA"/>
<path d="M210.846 170.398C210.255 170.236 209.686 169.978 209.155 169.63C207.842 168.881 206.621 167.923 205.526 166.781C204.431 165.639 203.469 164.327 202.666 162.881C202.309 162.302 202.026 161.663 201.827 160.984C201.872 160.984 202.215 161.66 202.867 162.72C204.546 165.489 206.734 167.765 209.265 169.377C210.201 170.022 210.846 170.336 210.846 170.398Z" fill="#FAFAFA"/>
<path d="M218.09 107.597C217.937 107.721 217.767 107.81 217.586 107.858C217.112 108.033 216.626 108.156 216.134 108.227C214.888 108.45 213.145 108.319 211.272 108.442C210.393 108.486 209.523 108.68 208.69 109.018C208.017 109.299 207.393 109.726 206.85 110.277C206.364 110.809 205.956 111.435 205.643 112.127C205.655 111.908 205.71 111.695 205.804 111.505C206.019 110.964 206.32 110.477 206.688 110.07C207.235 109.459 207.878 108.984 208.58 108.672C209.436 108.307 210.332 108.095 211.24 108.043C213.177 107.92 214.875 108.089 216.101 107.943C217.328 107.797 218.071 107.52 218.09 107.597Z" fill="#FAFAFA"/>
<path d="M224.759 121.887C224.711 122.12 224.614 122.334 224.475 122.509C224.13 123.006 223.686 123.394 223.184 123.637C222.434 123.967 221.646 124.156 220.847 124.198C219.894 124.28 218.946 124.426 218.006 124.636C216.301 125.034 214.638 125.657 213.048 126.494C211.828 127.139 211.111 127.638 211.111 127.584C211.25 127.418 211.409 127.278 211.583 127.169C212.033 126.829 212.498 126.519 212.977 126.24C214.558 125.312 216.236 124.64 217.968 124.244C219.995 123.722 221.906 123.96 223.133 123.369C223.783 123.07 224.347 122.555 224.759 121.887V121.887Z" fill="#FAFAFA"/>
<path d="M65.2041 45.5488C66.5247 45.6692 67.8112 46.1061 68.9862 46.8331C70.1611 47.5602 71.2003 48.5624 72.0411 49.7796C73.7022 52.2252 74.8705 55.0908 75.4563 58.1566C76.7476 64.0151 75.876 70.9179 74.4298 76.7226C69.1165 74.4192 65.882 67.6162 64.4229 64.0535C62.1181 58.4099 60.8269 46.5624 65.2364 45.5488" fill="#FCD34D"/>
<path d="M82.0088 83.8942C81.2225 82.4108 80.7787 80.7071 80.722 78.9548C80.6654 77.2025 80.9978 75.4633 81.686 73.9124C82.4 72.3776 83.3637 71.0271 84.5209 69.9396C85.678 68.852 87.0056 68.0492 88.4262 67.5778C89.7174 67.1171 91.241 66.9328 92.3644 67.8466C92.8664 68.3121 93.2558 68.9276 93.4928 69.6303C93.7298 70.333 93.8061 71.0978 93.7137 71.847C93.5035 73.3458 92.9646 74.7522 92.1513 75.9241C89.5302 80.0704 86.3409 83.5103 82.0088 83.8942" fill="#FCD34D"/>
<g opacity="0.3">
<path opacity="0.3" d="M82.0088 83.8942C81.2225 82.4108 80.7787 80.7071 80.722 78.9548C80.6654 77.2025 80.9978 75.4633 81.686 73.9124C82.4 72.3776 83.3637 71.0271 84.5209 69.9396C85.678 68.852 87.0056 68.0492 88.4262 67.5778C89.7174 67.1171 91.241 66.9328 92.3644 67.8466C92.8664 68.3121 93.2558 68.9276 93.4928 69.6303C93.7298 70.333 93.8061 71.0978 93.7137 71.847C93.5035 73.3458 92.9646 74.7522 92.1513 75.9241C89.5302 80.0704 86.3409 83.5103 82.0088 83.8942" fill="white"/>
</g>
<path d="M76.3407 90.1058C74.6862 86.9748 72.4283 84.3575 69.754 82.4708C67.0797 80.5841 64.0659 79.4822 60.9623 79.2564C59.3806 79.1643 57.4954 79.5251 56.824 81.222C56.1525 82.9189 57.1209 84.8923 58.2185 86.2513C60.5504 89.0303 63.5216 90.9266 66.7579 91.7013C69.9942 92.476 73.3509 92.0945 76.4053 90.6049" fill="#FCD34D"/>
<g opacity="0.3">
<path opacity="0.3" d="M76.3407 90.1058C74.6862 86.9748 72.4283 84.3575 69.754 82.4708C67.0797 80.5841 64.0659 79.4822 60.9623 79.2564C59.3806 79.1643 57.4954 79.5251 56.824 81.222C56.1525 82.9189 57.1209 84.8923 58.2185 86.2513C60.5504 89.0303 63.5216 90.9266 66.7579 91.7013C69.9942 92.476 73.3509 92.0945 76.4053 90.6049" fill="white"/>
</g>
<path d="M82.0547 104.011C81.9496 103.605 81.8761 103.189 81.8352 102.767C81.719 101.961 81.5576 100.794 81.3962 99.3502C80.9098 95.5765 80.8381 91.7436 81.1832 87.9479C81.5551 84.1224 82.7811 80.4851 84.734 77.4133C85.3341 76.498 86.0257 75.6729 86.7935 74.9563C87.0007 74.7591 87.2162 74.5745 87.4391 74.4034C87.5137 74.3355 87.5964 74.2812 87.6844 74.2422C86.6638 75.2325 85.7372 76.3525 84.9212 77.5822C83.0609 80.6557 81.8879 84.2411 81.5124 88.0017C81.1799 91.7669 81.2211 95.5657 81.6351 99.3195C81.7707 100.709 81.8804 101.869 81.9644 102.744C82.0198 103.163 82.05 103.587 82.0547 104.011V104.011Z" fill="#263238"/>
<path d="M66.876 54.4707C66.9543 54.626 67.0234 54.7876 67.0826 54.9544C67.2181 55.3153 67.3989 55.7837 67.6184 56.3749C68.0768 57.6034 68.7224 59.4002 69.5101 61.6269C71.0789 66.0726 73.1771 72.2536 75.3657 79.141C77.5543 86.0284 79.4202 92.317 80.7178 96.8932C81.3634 99.1967 81.8799 101.032 82.2221 102.314C82.377 102.928 82.5062 103.427 82.603 103.804C82.6588 103.972 82.6978 104.147 82.7192 104.326C82.6449 104.167 82.5844 104 82.5384 103.827C82.4287 103.458 82.2802 102.974 82.093 102.368C81.7056 101.055 81.1568 99.2274 80.4919 96.993C79.1361 92.4475 77.2638 86.1743 75.0558 79.2946C72.8479 72.4148 70.8013 66.2415 69.2906 61.742L67.4958 56.444C67.3021 55.8451 67.1407 55.3614 67.018 54.9928C66.9544 54.8257 66.9067 54.6505 66.876 54.4707V54.4707Z" fill="#263238"/>
<path d="M63.4806 84.109C63.8216 84.101 64.1626 84.1241 64.5006 84.1781C64.8977 84.2141 65.2923 84.2808 65.6821 84.3777C66.2067 84.4784 66.7262 84.6143 67.238 84.7846L68.1289 85.0764C68.4388 85.1839 68.7745 85.3375 69.078 85.468C69.7701 85.7698 70.4489 86.1132 71.1116 86.4969C74.1693 88.2677 76.8441 90.85 78.93 94.0446C79.3883 94.8124 79.8403 95.4958 80.2212 96.2099C80.402 96.5631 80.5892 96.8932 80.7377 97.2311L81.1638 98.2139C81.4478 98.8282 81.6286 99.4271 81.8094 99.9338C81.9677 100.371 82.1014 100.82 82.2097 101.278C82.3258 101.66 82.4164 102.053 82.4808 102.452C82.4033 102.452 82.0289 100.801 80.9443 98.3444C80.8022 98.0373 80.6602 97.7148 80.5053 97.3846C80.3503 97.0545 80.1631 96.7397 79.9758 96.3942C79.5763 95.6618 79.1454 94.9545 78.6846 94.2749C76.6009 91.1554 73.9703 88.6137 70.9761 86.8271C70.2788 86.4431 69.6267 86.0592 68.9747 85.7828C68.6583 85.6446 68.3291 85.4834 68.0515 85.3682L67.1734 85.0534C64.9396 84.2932 63.4676 84.2011 63.4806 84.109Z" fill="#263238"/>
<path d="M71.9443 98.3369H91.0737V111.651C91.0737 114.154 90.2378 116.554 88.7497 118.324C87.2617 120.093 85.2436 121.088 83.1392 121.088H79.8789C77.7745 121.088 75.7563 120.093 74.2683 118.324C72.7803 116.554 71.9443 114.154 71.9443 111.651V98.3369Z" fill="#FCD34D"/>
<path opacity="0.3" d="M71.9443 98.3369H91.0737V111.651C91.0737 114.154 90.2378 116.554 88.7497 118.324C87.2617 120.093 85.2436 121.088 83.1392 121.088H79.8789C77.7745 121.088 75.7563 120.093 74.2683 118.324C72.7803 116.554 71.9443 114.154 71.9443 111.651V98.3369Z" fill="black"/>
<path d="M84.8696 98.3828C84.8278 98.6207 84.7537 98.849 84.6501 99.0585C84.4068 99.6493 84.1217 100.214 83.7979 100.748C82.7332 102.529 81.3225 103.977 79.6859 104.971C78.0493 105.964 76.2352 106.472 74.3979 106.453C73.8461 106.452 73.2953 106.396 72.7516 106.284C72.5486 106.261 72.3502 106.198 72.1641 106.1C72.1641 106.03 73.0163 106.23 74.3914 106.176C76.1807 106.113 77.9358 105.578 79.5301 104.61C81.1244 103.642 82.5182 102.265 83.6107 100.579C84.45 99.3042 84.8115 98.3828 84.8696 98.3828Z" fill="#FAFAFA"/>
<path d="M90.8923 113.74C90.6713 113.733 90.4529 113.681 90.2467 113.586C89.6963 113.377 89.1678 113.094 88.6714 112.742C86.9997 111.576 85.733 109.739 85.0997 107.561C84.4664 105.383 84.5081 103.008 85.2174 100.863C85.4272 100.224 85.6957 99.6134 86.0179 99.0436C86.1293 98.8293 86.2664 98.6353 86.4247 98.4678C86.0496 99.2717 85.7217 100.106 85.4433 100.963C84.8207 103.051 84.8138 105.329 85.424 107.422C86.0341 109.515 87.2248 111.299 88.8005 112.481C89.4725 112.957 90.1714 113.378 90.8923 113.74V113.74Z" fill="#FAFAFA"/>
<path d="M85.9927 120.466C85.9748 119.329 85.8404 118.2 85.5924 117.103C85.2812 115.933 84.7981 114.839 84.1656 113.87C83.3885 112.689 82.4287 111.696 81.3378 110.945C79.3206 109.602 76.9944 109.063 74.701 109.409C73.7525 109.596 72.8146 109.853 71.8926 110.177C72.1164 110.018 72.3547 109.889 72.6028 109.793C73.2711 109.5 73.9636 109.291 74.6687 109.171C77.0201 108.722 79.4299 109.234 81.5057 110.622C82.6367 111.405 83.6245 112.449 84.4109 113.693C85.0532 114.705 85.5306 115.851 85.8184 117.072C86.0095 117.892 86.0986 118.74 86.0831 119.59C86.0833 119.885 86.053 120.179 85.9927 120.466V120.466Z" fill="#FAFAFA"/>
<path d="M88.7169 121.088H28.501V328.962H88.7169V121.088Z" fill="#263238"/>
<path d="M121.043 121.088H55.1133V328.962H121.043V121.088Z" fill="#455A64"/>
<path d="M118.099 180.088H59.3418V223.002H118.099V180.088Z" fill="#455A64"/>
<path d="M79.1426 281.426H99.2662V282.508C99.2705 282.73 99.2374 282.95 99.1688 283.156C99.1002 283.361 98.9974 283.549 98.8667 283.706C98.736 283.864 98.58 283.989 98.408 284.073C98.2359 284.157 98.0513 284.2 97.8652 284.198H80.5371C80.169 284.198 79.8159 284.024 79.5556 283.714C79.2953 283.405 79.149 282.985 79.149 282.547V281.464L79.1426 281.426Z" fill="#263238"/>
<path d="M117.97 281.426C117.97 281.426 117.97 281.679 117.97 282.194C117.97 282.708 117.97 283.453 117.97 284.42C117.97 286.401 117.97 289.288 117.97 292.997C117.97 300.468 118.015 311.21 118.041 324.363V324.516H117.911L59.1611 324.562H58.9609V324.363C58.9609 309.175 58.9609 294.686 58.9609 281.503V281.318H59.1159L101.507 281.364H113.605H116.833H117.653H117.924H117.634H116.795H113.567L101.429 281.426L59.1417 281.556L59.2967 281.372C59.2967 294.556 59.2967 309.014 59.2967 324.232L59.1288 324.033L117.879 324.071L117.744 324.232C117.744 311.118 117.802 300.43 117.815 292.966C117.815 289.242 117.815 286.34 117.847 284.351C117.847 283.368 117.847 282.616 117.847 282.094C117.957 281.695 117.97 281.426 117.97 281.426Z" fill="#263238"/>
<path d="M98.4853 291.906H80.9893V297.527H98.4853V291.906Z" fill="#E0E0E0"/>
<path d="M118.099 227.854H59.3418V270.768H118.099V227.854Z" fill="#455A64"/>
<path d="M79.0653 233.421H99.1889V234.504C99.1889 234.941 99.0426 235.361 98.7823 235.671C98.522 235.98 98.1689 236.154 97.8008 236.154H80.434C80.0658 236.154 79.7128 235.98 79.4524 235.671C79.1921 235.361 79.0459 234.941 79.0459 234.504V233.421H79.0653Z" fill="#263238"/>
<path d="M118.525 233.421C118.525 233.421 118.525 233.675 118.525 234.189C118.525 234.704 118.525 235.448 118.525 236.416C118.525 238.397 118.525 241.284 118.557 244.992C118.557 252.463 118.602 263.205 118.628 276.358V276.512H118.525L59.7744 276.519H59.5742V276.32C59.5742 261.132 59.5742 246.643 59.5742 233.46V233.275H59.7292L102.12 233.321L114.219 233.36H117.447H118.266H118.525H118.234H117.395H114.167L102.029 233.421L59.7421 233.559L59.897 233.368C59.897 246.551 59.897 261.009 59.897 276.228L59.7292 276.028L118.48 276.066L118.344 276.228C118.376 263.113 118.402 252.425 118.415 244.962C118.415 241.238 118.415 238.335 118.415 236.347C118.415 235.364 118.415 234.611 118.415 234.089C118.525 233.698 118.525 233.421 118.525 233.421Z" fill="#263238"/>
<path d="M97.8778 243.572H80.3818V249.193H97.8778V243.572Z" fill="#E0E0E0"/>
<path d="M79.2783 126.793H99.4019V127.876C99.4019 128.313 99.2557 128.733 98.9954 129.043C98.7351 129.352 98.382 129.526 98.0139 129.526H80.6664C80.2982 129.526 79.9452 129.352 79.6849 129.043C79.4246 128.733 79.2783 128.313 79.2783 127.876V126.793Z" fill="#263238"/>
<path d="M118.099 126.793C118.099 126.793 118.099 127.039 118.099 127.561C118.099 128.083 118.099 128.82 118.099 129.795C118.099 131.769 118.099 134.663 118.131 138.372C118.131 145.835 118.17 156.577 118.202 169.73V169.884H118.066L59.3161 169.922H59.1289V169.722C59.1289 154.535 59.1289 140.053 59.1289 126.87V126.686H59.2839L101.668 126.732H113.773H117.001H117.821H118.092H117.802H116.969H113.741L101.61 126.793L59.3226 126.931L59.4775 126.747C59.4775 139.931 59.4775 154.389 59.4775 169.599L59.3097 169.4L118.06 169.446L117.931 169.599C117.931 156.485 117.983 145.797 118.002 138.334C118.002 134.617 118.002 131.715 118.034 129.726C118.034 128.743 118.034 127.991 118.034 127.469C118.034 126.947 118.099 126.793 118.099 126.793Z" fill="#263238"/>
<path d="M97.7743 135.899H80.2783V141.52H97.7743V135.899Z" fill="#E0E0E0"/>
<path d="M59.5293 194.001V177.877C59.5293 177.209 59.7524 176.568 60.1495 176.096C60.5466 175.624 61.0853 175.358 61.6469 175.358H97.7622C98.3153 175.358 98.8457 175.62 99.2368 176.085C99.6278 176.55 99.8475 177.181 99.8475 177.838V193.963L59.5293 194.001Z" fill="#FCD34D"/>
<path opacity="0.3" d="M59.5293 194.001V177.877C59.5293 177.209 59.7524 176.568 60.1495 176.096C60.5466 175.624 61.0853 175.358 61.6469 175.358H97.7622C98.3153 175.358 98.8457 175.62 99.2368 176.085C99.6278 176.55 99.8475 177.181 99.8475 177.838V193.963L59.5293 194.001Z" fill="black"/>
<path d="M63.2217 194.001V179.826C63.2216 179.76 63.2429 179.696 63.2813 179.647C63.3198 179.599 63.3723 179.569 63.4283 179.565H99.8471V194.001H63.2217Z" fill="#FAFAFA"/>
<path d="M108.053 176.848L107.013 194.001H67.8184L68.8642 178.084C68.9675 176.548 69.8585 175.381 70.9237 175.389L89.9886 175.512C89.9556 175.058 90.0717 174.607 90.3125 174.254C90.5533 173.9 90.9 173.671 91.2798 173.615H106C107.207 173.631 108.156 175.112 108.053 176.848Z" fill="#FCD34D"/>
<path d="M75.5791 192.334V176.21C75.5791 175.879 75.6341 175.55 75.7409 175.244C75.8477 174.938 76.0043 174.66 76.2016 174.426C76.3989 174.192 76.6331 174.007 76.8908 173.881C77.1485 173.755 77.4245 173.69 77.7032 173.691H113.819C114.372 173.691 114.902 173.953 115.293 174.418C115.684 174.883 115.904 175.514 115.904 176.172V192.342L75.5791 192.334Z" fill="#FCD34D"/>
<path opacity="0.3" d="M75.5791 192.334V176.21C75.5791 175.879 75.6341 175.55 75.7409 175.244C75.8477 174.938 76.0043 174.66 76.2016 174.426C76.3989 174.192 76.6331 174.007 76.8908 173.881C77.1485 173.755 77.4245 173.69 77.7032 173.691H113.819C114.372 173.691 114.902 173.953 115.293 174.418C115.684 174.883 115.904 175.514 115.904 176.172V192.342L75.5791 192.334Z" fill="black"/>
<path d="M79.2784 192.335V178.153C79.2776 178.12 79.2823 178.087 79.2923 178.056C79.3022 178.026 79.3173 177.998 79.3366 177.974C79.3559 177.95 79.3789 177.932 79.4044 177.919C79.4299 177.906 79.4573 177.899 79.485 177.899H115.904V192.335H79.2784Z" fill="#FAFAFA"/>
<path d="M124.109 175.166L123.044 192.335H83.8682L84.9528 176.41C84.9506 175.737 85.161 175.087 85.5423 174.589C85.9237 174.092 86.4483 173.782 87.0123 173.723L106.077 173.838C106.044 173.385 106.16 172.934 106.401 172.58C106.642 172.226 106.989 171.997 107.368 171.941H122.069C123.263 171.941 124.212 173.439 124.109 175.166Z" fill="#FCD34D"/>
<path d="M97.917 193.264V177.139C97.9162 176.808 97.9703 176.48 98.0763 176.173C98.1824 175.867 98.3382 175.588 98.5349 175.354C98.7317 175.119 98.9654 174.933 99.2227 174.806C99.4801 174.679 99.756 174.613 100.035 174.613H136.15C136.424 174.613 136.696 174.678 136.949 174.803C137.203 174.928 137.433 175.111 137.627 175.342C137.82 175.574 137.974 175.848 138.078 176.15C138.183 176.451 138.236 176.775 138.235 177.101V193.264H97.917Z" fill="#FCD34D"/>
<path opacity="0.3" d="M97.917 193.264V177.139C97.9162 176.808 97.9703 176.48 98.0763 176.173C98.1824 175.867 98.3382 175.588 98.5349 175.354C98.7317 175.119 98.9654 174.933 99.2227 174.806C99.4801 174.679 99.756 174.613 100.035 174.613H136.15C136.424 174.613 136.696 174.678 136.949 174.803C137.203 174.928 137.433 175.111 137.627 175.342C137.82 175.574 137.974 175.848 138.078 176.15C138.183 176.451 138.236 176.775 138.235 177.101V193.264H97.917Z" fill="black"/>
<path d="M101.616 193.264V179.09C101.615 179.024 101.634 178.96 101.672 178.911C101.709 178.863 101.761 178.833 101.816 178.829H138.235V193.264H101.616Z" fill="#FAFAFA"/>
<path d="M140.391 175.136H103.449V200.889H140.391V175.136Z" fill="#E0E0E0"/>
<path d="M143.432 163.702H106.206V191.16H143.432V163.702Z" fill="#F5F5F5"/>
<path d="M112.992 189.424C112.895 189.424 112.824 184.679 112.824 178.828C112.824 172.978 112.895 168.232 112.992 168.232C113.089 168.232 113.16 172.978 113.16 178.828C113.16 184.679 113.082 189.424 112.992 189.424Z" fill="#263238"/>
<path d="M115.633 189.424C115.542 189.424 115.465 184.679 115.465 178.828C115.465 172.978 115.542 168.232 115.633 168.232C115.723 168.232 115.801 172.978 115.801 178.828C115.801 184.679 115.73 189.424 115.633 189.424Z" fill="#263238"/>
<path d="M118.524 189.424C118.427 189.424 118.356 184.679 118.356 178.828C118.356 172.978 118.427 168.232 118.524 168.232C118.621 168.232 118.692 172.978 118.692 178.828C118.692 184.679 118.608 189.424 118.524 189.424Z" fill="#263238"/>
<path d="M121.397 189.424C121.307 189.424 121.229 184.679 121.229 178.828C121.229 172.978 121.307 168.232 121.397 168.232C121.488 168.232 121.565 172.978 121.565 178.828C121.565 184.679 121.488 189.424 121.397 189.424Z" fill="#263238"/>
<path d="M124.277 189.424C124.187 189.424 124.109 184.679 124.109 178.828C124.109 172.978 124.187 168.232 124.277 168.232C124.368 168.232 124.445 172.978 124.445 178.828C124.445 184.679 124.374 189.424 124.277 189.424Z" fill="#263238"/>
<path d="M127.163 189.424C127.066 189.424 126.995 184.679 126.995 178.828C126.995 172.978 127.066 168.232 127.163 168.232C127.26 168.232 127.331 172.978 127.331 178.828C127.331 184.679 127.253 189.424 127.163 189.424Z" fill="#263238"/>
<path d="M130.042 189.424C129.951 189.424 129.874 184.679 129.874 178.828C129.874 172.978 129.951 168.232 130.042 168.232C130.132 168.232 130.21 172.978 130.21 178.828C130.21 184.679 130.145 189.424 130.042 189.424Z" fill="#263238"/>
<path d="M132.922 189.424C132.831 189.424 132.754 184.679 132.754 178.828C132.754 172.978 132.831 168.232 132.922 168.232C133.012 168.232 133.09 172.978 133.09 178.828C133.09 184.679 133.019 189.424 132.922 189.424Z" fill="#263238"/>
<path d="M135.807 189.424C135.71 189.424 135.633 184.679 135.633 178.828C135.633 172.978 135.71 168.232 135.807 168.232C135.904 168.232 135.975 172.978 135.975 178.828C135.975 184.679 135.898 189.424 135.807 189.424Z" fill="#263238"/>
<path d="M138.687 189.424C138.591 189.424 138.52 184.679 138.52 178.828C138.52 172.978 138.591 168.232 138.687 168.232C138.784 168.232 138.855 172.978 138.855 178.828C138.855 184.679 138.778 189.424 138.687 189.424Z" fill="#263238"/>
<path d="M146.44 179.143L145.407 193.264H106.206L107.258 180.157C107.307 179.549 107.544 178.985 107.924 178.575C108.303 178.164 108.798 177.937 109.311 177.938L128.383 178.038C128.383 177.63 128.519 177.24 128.761 176.952C129.003 176.664 129.331 176.502 129.674 176.502H144.374C144.66 176.499 144.943 176.566 145.205 176.7C145.467 176.834 145.703 177.032 145.897 177.281C146.092 177.529 146.241 177.823 146.334 178.144C146.428 178.465 146.464 178.805 146.44 179.143V179.143Z" fill="#FCD34D"/>
<path d="M117.95 185.417H59.1934V228.331H117.95V185.417Z" fill="#263238"/>
<path d="M153.504 185.417H94.7471V228.331H153.504V185.417Z" fill="#455A64"/>
<path d="M153.504 228.147C153.504 228.147 153.504 227.878 153.504 227.379C153.504 226.88 153.504 226.112 153.504 225.137C153.504 223.171 153.504 220.292 153.504 216.598C153.504 209.212 153.459 198.585 153.433 185.563L153.562 185.724L94.8116 185.762L94.9795 185.563C94.9795 200.658 94.9795 215.055 94.9795 228.154L94.8245 227.97L137.086 228.062L149.217 228.108H152.445H153.278H153.568H153.297H152.477H149.249L137.151 228.162L94.7858 228.246H94.6309V228.147C94.6309 215.047 94.6309 200.651 94.6309 185.555V185.355H94.8052L153.556 185.402H153.691V185.555C153.691 198.608 153.633 209.273 153.62 216.683C153.62 220.361 153.62 223.232 153.588 225.19C153.588 226.158 153.588 226.895 153.588 227.402C153.517 227.878 153.504 228.147 153.504 228.147Z" fill="#263238"/>
<path d="M115.891 185.417H136.014V186.361C136.014 186.799 135.868 187.219 135.608 187.529C135.347 187.838 134.994 188.012 134.626 188.012H117.279C116.911 188.012 116.557 187.838 116.297 187.529C116.037 187.219 115.891 186.799 115.891 186.361V185.417Z" fill="#263238"/>
<path d="M135.078 195.037H117.582V200.658H135.078V195.037Z" fill="#E0E0E0"/>
<path d="M134.349 158.673C133.802 161.355 133.476 164.093 133.374 166.85C133.374 167.203 133.374 167.618 133.632 167.81C133.891 168.002 134.278 167.472 134.491 167.157C134.904 166.597 136.428 163.456 136.428 163.456C137.498 163.34 138.495 162.761 139.229 161.828C139.963 160.895 140.384 159.674 140.411 158.396" fill="#FFBE9D"/>
<path d="M140.391 158.396C140.414 158.585 140.414 158.776 140.391 158.965C140.351 159.494 140.24 160.013 140.062 160.5C139.783 161.255 139.358 161.92 138.822 162.443C138.128 163.099 137.295 163.514 136.414 163.641L136.53 163.549C136.046 164.547 135.51 165.637 134.904 166.743C134.807 166.904 134.723 167.065 134.607 167.234C134.49 167.403 134.406 167.526 134.284 167.68C134.159 167.859 133.989 167.985 133.8 168.04C133.687 168.054 133.575 168.023 133.478 167.954C133.381 167.885 133.306 167.781 133.264 167.656C133.158 167.281 133.131 166.88 133.186 166.489C133.186 166.136 133.225 165.791 133.251 165.453C133.335 164.253 133.471 163.058 133.658 161.875C133.812 160.869 133.974 160.063 134.103 159.51C134.15 159.218 134.228 158.934 134.335 158.665C134.329 158.961 134.292 159.255 134.226 159.541C134.142 160.109 134.013 160.915 133.89 161.928C133.767 162.942 133.638 164.14 133.561 165.476L133.503 166.512C133.461 166.836 133.48 167.167 133.561 167.48C133.606 167.603 133.696 167.672 133.748 167.656C133.863 167.602 133.965 167.515 134.045 167.403L134.348 166.973C134.445 166.828 134.536 166.677 134.619 166.52C135.22 165.43 135.762 164.339 136.259 163.357L136.298 163.272H136.376C137.203 163.167 137.991 162.795 138.655 162.197C139.175 161.722 139.595 161.11 139.881 160.408C140.119 159.765 140.29 159.089 140.391 158.396V158.396Z" fill="#EB996E"/>
</g>
<defs>
<filter id="filter0_d_1505_228827" x="0" y="0.746094" width="306" height="336.493" filterUnits="userSpaceOnUse" color-interpolation-filters="sRGB">
<feFlood flood-opacity="0" result="BackgroundImageFix"/>
<feColorMatrix in="SourceAlpha" type="matrix" values="0 0 0 0 0 0 0 0 0 0 0 0 0 0 0 0 0 0 127 0" result="hardAlpha"/>
<feOffset dy="4"/>
<feGaussianBlur stdDeviation="2"/>
<feComposite in2="hardAlpha" operator="out"/>
<feColorMatrix type="matrix" values="0 0 0 0 0 0 0 0 0 0 0 0 0 0 0 0 0 0 0.25 0"/>
<feBlend mode="normal" in2="BackgroundImageFix" result="effect1_dropShadow_1505_228827"/>
<feBlend mode="normal" in="SourceGraphic" in2="effect1_dropShadow_1505_228827" result="shape"/>
</filter>
</defs>
</svg>
