<svg width="298" height="329" viewBox="0 0 298 329" fill="none" xmlns="http://www.w3.org/2000/svg">
<path opacity="0.2" d="M149 328.862C231.29 328.862 298 283.397 298 227.314C298 171.23 231.29 125.765 149 125.765C66.7096 125.765 0 171.23 0 227.314C0 283.397 66.7096 328.862 149 328.862Z" fill="#FAFAFA"/>
<path d="M230.62 292.655C247.106 292.655 260.471 283.548 260.471 272.314C260.471 261.08 247.106 251.974 230.62 251.974C214.134 251.974 200.77 261.08 200.77 272.314C200.77 283.548 214.134 292.655 230.62 292.655Z" fill="#E0E0E0"/>
<path d="M36.5626 263.2L12.0864 246.521C10.7056 245.578 10.7056 244.058 12.0864 243.115L154.461 146.083C155.237 145.624 156.092 145.385 156.96 145.385C157.827 145.385 158.682 145.624 159.458 146.083L183.94 162.769C185.321 163.704 185.321 165.232 183.94 166.175L41.5656 263.2C40.7906 263.664 39.9335 263.907 39.0641 263.907C38.1948 263.907 37.3377 263.664 36.5626 263.2Z" fill="#E0E0E0"/>
<path d="M52.9959 16.4684L47.479 20.2398C47.479 19.9474 47.5224 19.6624 47.5224 19.3773V17.4843C47.5224 14.115 45.5224 12.7482 43.0457 14.4366C41.9842 15.2075 41.0761 16.2396 40.3832 17.4624C39.9745 13.2233 37.1635 11.6154 33.7394 13.9761C30.0243 16.4977 27.046 22.6225 27.046 27.6655V30.4941C27.0191 31.6244 27.2118 32.747 27.6095 33.7757L23.009 36.9112C22.2883 37.4685 21.6888 38.2179 21.2585 39.099C20.8283 39.9801 20.5795 40.9682 20.5322 41.9836C20.5322 43.8546 21.6468 44.6147 23.009 43.6792L52.9959 23.2364C53.7169 22.6795 54.3167 21.9302 54.747 21.049C55.1773 20.1679 55.4258 19.1796 55.4727 18.1641C55.4727 16.293 54.3829 15.5329 52.9959 16.4684Z" fill="#EBEBEB"/>
<path d="M81.6765 32.1238L77.497 34.9742C77.5215 34.7561 77.5339 34.5364 77.5342 34.3164V32.8546C77.5342 30.3112 76.0234 29.2806 74.1596 30.5524C73.3563 31.1307 72.6696 31.9089 72.1473 32.8327C71.8377 29.6388 69.7139 28.4474 67.1319 30.2088C64.3456 32.1091 62.0794 36.7356 62.0794 40.5362V42.6777C62.0617 43.5287 62.2077 44.3734 62.5066 45.1481L59.0392 47.5162C58.4969 47.938 58.0462 48.5044 57.7236 49.1696C57.4009 49.8349 57.2153 50.5804 57.1816 51.346C57.1816 52.7566 58.0237 53.3267 59.0392 52.625L81.6765 37.1961C82.2184 36.7739 82.6688 36.2074 82.9915 35.5422C83.3141 34.877 83.4999 34.1317 83.534 33.3663C83.5526 32.0068 82.7167 31.4221 81.6765 32.1238Z" fill="#EBEBEB"/>
<path d="M124.548 233.475L145.601 219.113C147.774 217.651 148.858 215.692 148.858 213.755C148.858 211.818 148.858 210.306 148.858 210.306L127.025 195.768C126.416 195.299 125.909 194.666 125.545 193.922C125.182 193.178 124.972 192.343 124.932 191.485V160.861L88.1777 185.931V216.555C88.2179 217.412 88.4283 218.246 88.7918 218.99C89.1553 219.734 89.6619 220.367 90.2706 220.838L108.846 233.475C113.174 236.427 120.208 236.427 124.548 233.475Z" fill="#263238"/>
<path d="M96.9952 221.978V225.42L90.2585 220.837C89.6503 220.367 89.1444 219.734 88.7819 218.99C88.4194 218.246 88.2104 217.412 88.1719 216.554V185.938L95.1686 181.165C95.3172 183.263 95.472 185.433 95.6206 187.546L90.7105 190.9V214.83C90.7473 215.688 90.9562 216.524 91.32 217.268C91.6839 218.013 92.1922 218.645 92.8034 219.112L96.9952 221.978Z" fill="black"/>
<path d="M90.71 214.837C90.7492 215.695 90.9591 216.53 91.3227 217.274C91.6864 218.018 92.1934 218.651 92.8028 219.12L108.833 230.018C113.168 232.978 120.208 232.978 124.548 230.018L145.6 215.663C149.935 212.74 149.935 207.916 145.6 204.956L129.557 194.044C128.947 193.575 128.439 192.943 128.075 192.199C127.712 191.454 127.502 190.619 127.465 189.761V165.839L90.7161 190.908L90.71 214.837Z" fill="black"/>
<path d="M133.824 196.96L129.557 194.036C128.947 193.568 128.439 192.936 128.075 192.191C127.712 191.447 127.502 190.612 127.465 189.753V165.839L90.71 190.908V214.837C90.7492 215.695 90.9591 216.53 91.3227 217.274C91.6864 218.018 92.1934 218.651 92.8028 219.12L96.9947 221.971L133.824 196.96Z" fill="#263238"/>
<path d="M148.851 210.342V213.799C148.851 215.736 147.762 217.665 145.594 219.149L124.542 233.504C122.235 234.956 119.659 235.71 117.044 235.696V232.254C119.659 232.271 122.236 231.517 124.542 230.061L145.594 215.692C147.762 214.186 148.851 212.249 148.851 210.342Z" fill="#455A64"/>
<path d="M31.6955 244.577C32.4888 245.029 33.3611 245.255 34.2421 245.236C35.123 245.217 35.9878 244.954 36.7666 244.467L178.906 147.596C179.669 147.011 180.305 146.222 180.76 145.292C181.215 144.362 181.477 143.318 181.525 142.246V6.0748C181.49 5.03319 181.247 4.01608 180.817 3.10571C180.386 2.19533 179.781 1.41725 179.048 0.834366C178.255 0.38179 177.383 0.155895 176.502 0.17494C175.621 0.193985 174.756 0.457436 173.977 0.943998L31.8564 97.786C31.0942 98.3719 30.4598 99.1616 30.0047 100.091C29.5496 101.021 29.2867 102.064 29.2373 103.136V239.336C29.2708 240.376 29.5107 241.392 29.9376 242.302C30.3646 243.212 30.9667 243.991 31.6955 244.577Z" fill="#455A64"/>
<path d="M36.7672 244.46L178.907 147.596C179.669 147.01 180.303 146.22 180.758 145.291C181.214 144.361 181.476 143.318 181.526 142.246V6.0748C181.526 4.10142 180.356 3.30475 178.907 4.29145L36.7734 101.155C36.0112 101.741 35.3768 102.531 34.9217 103.461C34.4666 104.39 34.2037 105.433 34.1543 106.505V242.676C34.1543 244.65 35.3246 245.424 36.7672 244.46Z" fill="#FCD34D"/>
<path d="M36.7672 244.46L178.907 147.596C179.669 147.01 180.303 146.22 180.758 145.291C181.214 144.361 181.476 143.318 181.526 142.246V6.0748C181.526 4.10142 180.356 3.30475 178.907 4.29145L36.7734 101.155C36.0112 101.741 35.3768 102.531 34.9217 103.461C34.4666 104.39 34.2037 105.433 34.1543 106.505V242.676C34.1543 244.65 35.3246 245.424 36.7672 244.46Z" fill="black"/>
<path d="M36.383 247.99C35.6393 248.368 34.8353 248.553 34.0255 248.533C33.2158 248.513 32.4192 248.288 31.6896 247.873C30.9566 247.289 30.3504 246.51 29.9201 245.598C29.4898 244.686 29.2475 243.668 29.2129 242.625V230.266L34.123 233.62V245.98C34.1478 247.778 35.1137 248.589 36.383 247.99Z" fill="#263238"/>
<path d="M34.1475 233.621V245.973C34.1475 247.946 35.3177 248.743 36.7604 247.756L178.906 150.892C179.669 150.306 180.304 149.515 180.759 148.584C181.214 147.653 181.477 146.608 181.525 145.535V133.161L34.1475 233.621Z" fill="black"/>
<path opacity="0.2" d="M34.1543 233.592V245.973C34.1543 247.946 35.3246 248.743 36.7672 247.756L178.907 150.892C179.67 150.306 180.305 149.515 180.76 148.584C181.215 147.653 181.477 146.608 181.526 145.535V133.161L34.1543 233.592Z" fill="black"/>
<path d="M39.0645 218.111V108.435C39.0942 107.79 39.2522 107.164 39.5254 106.605C39.7986 106.046 40.1795 105.571 40.6372 105.219L175.037 13.6243C175.91 13.0323 176.61 13.5147 176.61 14.6914V124.375C176.58 125.019 176.422 125.646 176.149 126.205C175.875 126.763 175.495 127.238 175.037 127.591L40.6124 219.185C39.7641 219.777 39.0645 219.295 39.0645 218.111Z" fill="#FCD34D"/>
<path opacity="0.3" d="M39.0645 218.111V108.435C39.0942 107.79 39.2522 107.164 39.5254 106.605C39.7986 106.046 40.1795 105.571 40.6372 105.219L175.037 13.6243C175.91 13.0323 176.61 13.5147 176.61 14.6914V124.375C176.58 125.019 176.422 125.646 176.149 126.205C175.875 126.763 175.495 127.238 175.037 127.591L40.6124 219.185C39.7641 219.777 39.0645 219.295 39.0645 218.111Z" fill="black"/>
<path d="M107.837 187.32C107.119 187.868 106.52 188.608 106.09 189.48C105.659 190.353 105.409 191.333 105.36 192.341C105.36 194.19 106.462 194.943 107.837 194.014C108.556 193.467 109.155 192.727 109.586 191.855C110.016 190.982 110.266 190.001 110.314 188.993C110.295 187.144 109.193 186.391 107.837 187.32Z" fill="#455A64"/>
<path d="M34.9214 103.45C34.455 104.379 34.1892 105.428 34.1474 106.506V233.621L29.2373 230.266V103.165C29.2732 102.086 29.5394 101.035 30.0113 100.11L34.9214 103.45Z" fill="#263238"/>
<path d="M201.321 5.43169C201.11 5.30615 200.873 5.25136 200.638 5.27326C200.402 5.29517 200.176 5.39294 199.984 5.55594L58.3209 102.128C57.7828 102.535 57.334 103.088 57.0112 103.739C56.6884 104.391 56.5006 105.123 56.4634 105.877V218.616C56.4415 218.981 56.5015 219.348 56.6374 219.677C56.7732 220.007 56.9801 220.289 57.2374 220.494C57.5346 220.684 59.0949 221.766 59.5779 222.066C59.7448 222.166 59.9316 222.213 60.1188 222.2C60.306 222.187 60.487 222.116 60.6429 221.992L202.324 125.384C202.863 124.977 203.312 124.425 203.635 123.773C203.957 123.121 204.145 122.389 204.182 121.635V8.34791C204.213 8.06568 204.176 7.7788 204.075 7.52023C203.974 7.26166 203.814 7.04188 203.612 6.88615C203.265 6.74728 201.655 5.69481 201.321 5.43169Z" fill="#FCD34D"/>
<path d="M60.6681 103.699L202.325 7.15619C203.34 6.46916 204.182 7.03194 204.182 8.41331V121.7C204.145 122.454 203.958 123.187 203.635 123.838C203.312 124.49 202.863 125.042 202.325 125.45L60.6681 221.992C59.6526 222.679 58.8105 221.561 58.8105 220.179V107.448C58.8473 106.694 59.0348 105.962 59.3577 105.31C59.6806 104.658 60.1296 104.106 60.6681 103.699Z" fill="#FAFAFA"/>
<path d="M203.148 7.55895C203.489 7.55895 203.544 8.07056 203.544 8.37754V121.664C203.511 122.288 203.355 122.893 203.09 123.434C202.825 123.974 202.457 124.434 202.015 124.778L60.3585 221.357C60.2708 221.428 60.1677 221.469 60.0613 221.474C59.7393 221.474 59.4421 220.867 59.4421 220.18V107.449C59.4755 106.824 59.6309 106.218 59.8963 105.676C60.1616 105.135 60.5297 104.673 60.9715 104.328L202.634 7.75629C202.789 7.64061 202.965 7.57275 203.148 7.55895ZM203.148 6.82806C202.857 6.84106 202.574 6.9417 202.325 7.12042L60.6681 103.699C60.1296 104.107 59.6806 104.659 59.3577 105.311C59.0348 105.962 58.8473 106.695 58.8105 107.449V220.18C58.8105 221.276 59.3245 222.205 60.0489 222.205C60.2679 222.202 60.482 222.129 60.6681 221.993L202.325 125.385C202.863 124.977 203.312 124.425 203.635 123.773C203.958 123.122 204.145 122.389 204.182 121.635V8.3483C204.182 7.36161 203.767 6.79883 203.167 6.79883L203.148 6.82806Z" fill="#E0E0E0"/>
<path d="M57.256 220.494C57.4541 220.618 58.8845 221.583 59.5098 222C59.2839 221.781 59.105 221.501 58.9877 221.185C58.8705 220.869 58.8181 220.525 58.8349 220.18V114.531L56.482 112.908V218.616C56.4626 218.981 56.5238 219.346 56.6594 219.675C56.795 220.005 57.0006 220.287 57.256 220.494Z" fill="#F0F0F0"/>
<path d="M204.164 8.35514C204.164 6.98839 203.334 6.43292 202.306 7.11995L60.6681 103.699C60.1296 104.106 59.6806 104.658 59.3577 105.31C59.0348 105.962 58.8473 106.695 58.8105 107.448V114.531L204.164 15.4666V8.35514Z" fill="#FCD34D"/>
<g opacity="0.4">
<path opacity="0.4" d="M202.325 7.15657L60.6681 103.699C60.1272 104.095 59.6815 104.649 59.374 105.307L57.0459 103.714C57.3488 103.064 57.788 102.518 58.3214 102.127L199.984 5.55594C200.175 5.39391 200.4 5.2961 200.634 5.27293C200.869 5.24976 201.104 5.3021 201.315 5.42438C201.644 5.66557 203.173 6.68881 203.557 6.93C203.351 6.84802 203.132 6.82581 202.917 6.86526C202.703 6.9047 202.499 7.00463 202.325 7.15657Z" fill="white"/>
</g>
<path opacity="0.15" d="M56.4824 112.916V105.877C56.5055 105.101 56.6997 104.345 57.0459 103.685L59.3802 105.271C59.0438 105.919 58.8561 106.659 58.8353 107.419V114.502L56.4824 112.916Z" fill="black"/>
<path d="M58.8353 114.531L58.8291 127.292L204.157 28.2426V15.4668L58.8353 114.531Z" fill="#EBEBEB"/>
<path d="M64.8841 113.588L74.2833 107.215V113.566L64.8779 119.976L64.8841 113.588Z" fill="#E0E0E0"/>
<path d="M76.6055 105.599V108.113L81.2927 104.912V102.405L76.6055 105.599Z" fill="#E0E0E0"/>
<path d="M76.6055 109.48V111.994L81.2927 108.793V106.286L76.6055 109.48Z" fill="#E0E0E0"/>
<path d="M83.6396 100.804V103.319L88.3269 100.125V97.6104L83.6396 100.804Z" fill="#E0E0E0"/>
<path d="M83.6396 104.686V107.2L88.3269 104.006V101.492L83.6396 104.686Z" fill="#E0E0E0"/>
<path d="M90.667 96.0104V98.5246L95.3542 95.3306V92.8164L90.667 96.0104Z" fill="#E0E0E0"/>
<path d="M90.667 99.8912V102.405L95.3542 99.2115V96.6973L90.667 99.8912Z" fill="#E0E0E0"/>
<path d="M111.763 81.6334V84.1476L116.45 80.9537V78.4395L111.763 81.6334Z" fill="#E0E0E0"/>
<path d="M111.763 85.5216V88.0285L116.45 84.8346V82.3203L111.763 85.5216Z" fill="#E0E0E0"/>
<path d="M118.797 76.8458V79.3527L123.484 76.1588V73.6445L118.797 76.8458Z" fill="#E0E0E0"/>
<path d="M118.797 80.7277V83.2346L123.484 80.0406V77.5264L118.797 80.7277Z" fill="#E0E0E0"/>
<path d="M125.824 72.0514L125.83 74.5656L130.518 71.3717V68.8574L125.824 72.0514Z" fill="#E0E0E0"/>
<path d="M125.824 75.9323L125.83 78.4465L130.518 75.2452V72.7383L125.824 75.9323Z" fill="#E0E0E0"/>
<path d="M97.7012 91.2229L109.422 83.2344V89.6223L97.7012 97.6109V91.2229Z" fill="#E0E0E0"/>
<path d="M132.865 67.2571L142.264 60.8838V67.2425L132.858 73.6523L132.865 67.2571Z" fill="#E0E0E0"/>
<path d="M144.579 59.2682L144.585 61.7824L149.273 58.5885V56.0742L144.579 59.2682Z" fill="#E0E0E0"/>
<path d="M144.579 63.149L144.585 65.6633L149.273 62.4693V59.9551L144.579 63.149Z" fill="#E0E0E0"/>
<path d="M151.613 54.4815V56.9957L156.3 53.7945V51.2803L151.613 54.4815Z" fill="#E0E0E0"/>
<path d="M151.613 58.3624V60.8766L156.3 57.6754V55.1611L151.613 58.3624Z" fill="#E0E0E0"/>
<path d="M158.647 49.6866V52.2008L163.335 48.9996V46.4854L158.647 49.6866Z" fill="#E0E0E0"/>
<path d="M158.647 53.568V56.0822L163.335 52.8809V50.374L158.647 53.568Z" fill="#E0E0E0"/>
<path d="M179.742 35.3097V37.8239L184.429 34.6227V32.1084L179.742 35.3097Z" fill="#E0E0E0"/>
<path d="M179.742 39.191V41.7053L184.429 38.504V35.9971L179.742 39.191Z" fill="#E0E0E0"/>
<path d="M186.776 30.5153V33.0295L191.464 29.8355V27.3213L186.776 30.5153Z" fill="#E0E0E0"/>
<path d="M186.776 34.3961V36.9103L191.464 33.7164V31.2021L186.776 34.3961Z" fill="#E0E0E0"/>
<path d="M193.804 25.7213V28.2355L198.497 25.0416V22.5273L193.804 25.7213Z" fill="#E0E0E0"/>
<path d="M193.804 29.6022V32.1165L198.497 28.9225V26.4082L193.804 29.6022Z" fill="#E0E0E0"/>
<path d="M165.681 44.8919L177.402 36.9033V43.2985L165.681 51.2798V44.8919Z" fill="#E0E0E0"/>
<path d="M58.8353 114.531L56.4824 112.908V125.691L58.8291 127.292L58.8353 114.531Z" fill="#E0E0E0"/>
<path d="M166.659 35.997V36.4721C166.659 37.2029 167.105 37.5245 167.656 37.1518L196.138 17.7468C196.429 17.5218 196.67 17.2193 196.844 16.8638C197.017 16.5083 197.117 16.1098 197.135 15.7003V15.2326C197.135 14.5017 196.69 14.1728 196.138 14.5529L167.656 33.9578C167.365 34.1809 167.124 34.4819 166.95 34.8363C166.777 35.1906 166.677 35.5884 166.659 35.997Z" fill="#F5F5F5"/>
<path d="M197.129 15.7003V15.2326C197.129 14.5017 196.683 14.1728 196.132 14.5529L192.417 17.0671V20.2611L196.132 17.7468C196.422 17.5218 196.664 17.2193 196.837 16.8638C197.01 16.5083 197.11 16.1098 197.129 15.7003Z" fill="#455A64"/>
<path d="M61.1758 128.878L201.823 33.0449V39.4182L72.8907 127.292V210.357L61.1758 218.338V128.878Z" fill="#F0F0F0"/>
<path d="M72.8906 127.292L84.6056 119.311V125.684L72.8906 133.68V127.292Z" fill="#FCD34D"/>
<path d="M72.8906 178.403L84.6056 170.422V176.795L72.8906 184.791V178.403Z" fill="#FCD34D"/>
<path d="M72.8906 184.791L84.6056 176.81V183.183L72.8906 191.179V184.791Z" fill="#FCD34D"/>
<path opacity="0.8" d="M72.8906 184.791L84.6056 176.81V183.183L72.8906 191.179V184.791Z" fill="white"/>
<path d="M143.205 130.478L154.92 122.497V128.87L143.205 136.866V130.478Z" fill="#FCD34D"/>
<path opacity="0.3" d="M143.205 130.478L154.92 122.497V128.87L143.205 136.866V130.478Z" fill="black"/>
<path d="M143.205 136.867L154.92 128.886V135.259L143.205 143.255V136.867Z" fill="#FCD34D"/>
<path opacity="0.4" d="M143.205 136.867L154.92 128.886V135.259L143.205 143.255V136.867Z" fill="black"/>
<path d="M143.205 143.262L154.92 135.28V141.654L143.205 149.649V143.262Z" fill="#FCD34D"/>
<path opacity="0.5" d="M143.205 143.262L154.92 135.28V141.654L143.205 149.649V143.262Z" fill="black"/>
<path d="M143.205 149.649L154.92 141.668V148.041L143.205 156.037V149.649Z" fill="#FCD34D"/>
<path opacity="0.3" d="M143.205 149.649L154.92 141.668V148.041L143.205 156.037V149.649Z" fill="black"/>
<path d="M131.496 87.3494L143.205 79.3682V111.315L131.496 119.311V87.3494Z" fill="#FCD34D"/>
<path d="M131.496 125.691L143.205 117.71V162.433L131.496 170.429V125.691Z" fill="#FCD34D"/>
<path d="M84.6055 157.638L96.3142 149.657V156.031L84.6055 164.026V157.638Z" fill="#FCD34D"/>
<path opacity="0.3" d="M84.6055 157.638L96.3142 149.657V156.031L84.6055 164.026V157.638Z" fill="black"/>
<path d="M108.054 109.714L119.769 101.732V108.106L108.054 116.102V109.714Z" fill="#FCD34D"/>
<path opacity="0.6" d="M108.054 109.714L119.769 101.732V108.106L108.054 116.102V109.714Z" fill="white"/>
<path d="M166.659 108.114L178.368 100.133V106.506L166.659 114.502V108.114Z" fill="#FCD34D"/>
<path opacity="0.8" d="M166.659 108.114L178.368 100.133V106.506L166.659 114.502V108.114Z" fill="white"/>
<path d="M166.659 120.897L178.368 112.916V119.289L166.659 127.285V120.897Z" fill="#FCD34D"/>
<path d="M61.0457 128.593L60.9033 128.688V218.937L201.959 122.79L202.108 122.695V32.4453L61.0457 128.593ZM201.544 115.927L190.399 123.521V117.915L201.544 110.328V115.927ZM61.4668 135.471L72.6121 127.877V133.483L61.4668 141.076V135.471ZM131.211 126.291V131.897L120.066 139.49V133.885L131.211 126.291ZM120.066 133.095V127.489L131.211 119.895V125.501L120.066 133.095ZM131.787 125.896L142.933 118.302V123.908L131.787 131.502V125.896ZM131.787 125.107V119.508L142.933 111.907V117.52L131.787 125.107ZM131.787 118.719V113.135L142.933 105.541V111.147L131.787 118.719ZM131.787 112.324V106.725L142.933 99.1238V104.73L131.787 112.324ZM131.211 112.718L120.066 120.312V114.706L131.211 107.112V112.718ZM131.211 113.508V119.113L120.066 126.707V121.101L131.211 113.508ZM119.49 127.102L108.345 134.696V129.09L119.49 121.496V127.102ZM119.49 127.884V133.49L108.345 141.084V135.478L119.49 127.884ZM119.49 134.279V139.885L108.345 147.479V141.873L119.49 134.279ZM119.49 140.667V146.273L108.345 153.867V148.261L119.49 140.667ZM120.066 140.272L131.211 132.679V138.284L120.066 145.878V140.272ZM131.211 139.074V144.68L120.066 152.274V146.668L131.211 139.074ZM131.787 138.679L142.933 131.085V136.691L131.787 144.285V138.679ZM131.787 137.89V132.284L142.933 124.69V130.296L131.787 137.89ZM143.508 124.303L154.654 116.709V122.315L143.508 129.909V124.303ZM143.508 123.513V117.907L154.654 110.314V115.919L143.508 123.513ZM143.508 117.125V111.52L154.654 103.926V109.532L143.508 117.125ZM143.508 110.73V105.095L154.654 97.5012V103.107L143.508 110.73ZM143.508 104.342V98.7364L154.654 91.1425V96.7411L143.508 104.342ZM143.508 97.9471V92.3412L154.654 84.7473V90.3532L143.508 97.9471ZM142.933 98.3417L131.787 105.936V100.33L142.933 92.7359V98.3417ZM131.211 106.33L120.066 113.924V108.318L131.211 100.724V106.33ZM119.49 114.319L108.345 121.913V116.307L119.49 108.713V114.319ZM119.49 115.101V120.707L108.345 128.301V122.695L119.49 115.101ZM107.769 128.695L96.624 136.289V130.676L107.769 123.082V128.695ZM107.769 129.485V135.061L96.624 142.662V137.057L107.769 129.485ZM107.769 135.873V141.478L96.624 149.072V143.466L107.769 135.873ZM107.769 142.268V147.866L96.624 155.468V149.862L107.769 142.268ZM107.769 148.656V154.262L96.624 161.855V156.257L107.769 148.656ZM107.769 155.051V160.642L96.624 168.243V162.638L107.769 155.051ZM108.345 154.656L119.49 147.062V152.668L108.345 160.262V154.656ZM119.49 153.45V159.056L108.345 166.65V161.044L119.49 153.45ZM120.066 153.056L131.211 145.462V151.068L120.066 158.661V153.056ZM131.787 145.067L142.933 137.473V143.101L131.787 150.695V145.067ZM143.508 137.086L154.654 129.492V135.098L143.508 142.692V137.086ZM143.508 136.296V130.676L154.654 123.082V128.688L143.508 136.296ZM155.23 122.702L166.375 115.108V120.714L155.23 128.308V122.702ZM155.23 121.92V116.314L166.375 108.72V114.326L155.23 121.92ZM155.23 115.525V109.919L166.375 102.325V107.931L155.23 115.525ZM155.23 109.137V103.531L166.375 95.9371V101.543L155.23 109.137ZM155.23 102.742V97.1358L166.375 89.5419V95.1478L155.23 102.742ZM155.23 96.3537V90.7478L166.375 83.154V88.7598L155.23 96.3537ZM155.23 89.9585V84.3526L166.375 76.7587V82.3646L155.23 89.9585ZM155.23 83.5706V77.9647L166.375 70.3708V75.9767L155.23 83.5706ZM154.654 83.958L143.508 91.5591V85.9533L154.654 78.3594V83.958ZM142.933 91.9392L131.787 99.5331V93.9345L142.933 86.3333V91.9392ZM131.211 99.9277L120.066 107.522V101.916L131.211 94.3219V99.9277ZM119.49 107.916L108.345 115.51V109.904L119.49 102.31V107.916ZM107.769 115.912L96.624 123.506V117.9L107.769 110.306V115.912ZM107.769 116.702V122.3L96.624 129.901V124.295L107.769 116.702ZM96.0481 130.289L84.9028 137.882V132.284L96.0481 124.683V130.289ZM96.0481 131.078V136.684L84.9028 144.278V138.672L96.0481 131.078ZM96.0481 137.466V143.101L84.9028 150.695V145.089L96.0481 137.466ZM96.0481 143.861V149.467L84.9028 157.061V151.455L96.0481 143.861ZM96.0481 150.249V155.855L84.9028 163.449V157.85L96.0481 150.249ZM96.0481 156.644V162.25L84.9028 169.844V164.238L96.0481 156.644ZM96.0481 163.032V168.638L84.9028 176.232V170.633L96.0481 163.032ZM96.0481 169.427V175.033L84.9028 182.627V177.021L96.0481 169.427ZM96.624 169.033L107.769 161.439V167.045L96.624 174.639V169.033ZM107.769 167.834V173.44L96.624 181.034V175.428L107.769 167.834ZM108.345 167.439L119.49 159.846V165.451L108.345 173.045V167.439ZM120.066 159.451L131.211 151.857V157.463L120.066 165.057V159.451ZM131.787 151.462L142.933 143.868V149.474L131.787 157.068V151.462ZM143.508 143.474L154.654 135.88V141.486L143.508 149.08V143.474ZM155.23 135.485L166.375 127.891V133.497L155.23 141.091V135.485ZM155.23 134.703V129.097L166.375 121.503V127.109L155.23 134.703ZM166.926 121.109L178.071 113.515V119.121L166.926 126.715V121.109ZM166.926 120.319V114.714L178.071 107.12V112.726L166.926 120.319ZM166.926 113.931V108.326L178.071 100.71V106.316L166.926 113.931ZM166.926 107.536V101.93L178.071 94.3365V99.9789L166.926 107.536ZM166.926 101.148V95.5424L178.071 87.9486V93.5544L166.926 101.148ZM166.926 94.7531V89.1472L178.071 81.5533V87.1592L166.926 94.7531ZM166.926 88.3652V82.7593L178.071 75.1654V80.7713L166.926 88.3652ZM166.926 81.9699V76.3641L178.071 68.7702V74.398L166.926 81.9699ZM166.926 75.582V70.0127L178.071 62.4188V68.0247L166.926 75.582ZM166.926 69.1868V63.5809L178.071 55.9871V61.5929L166.926 69.1868ZM166.35 69.5815L155.205 77.1754V71.5695L166.35 63.9756V69.5815ZM154.629 77.57L143.484 85.1639V79.558L154.629 71.9642V77.57ZM142.908 85.5586L131.763 93.1525V87.5539L142.908 79.96V85.5586ZM131.211 93.5471L120.066 101.141V95.5351L131.211 87.9413V93.5471ZM119.49 101.536L108.345 109.13V103.524L119.49 95.9298V101.536ZM107.769 109.517L96.624 117.118V111.512L107.769 103.918V109.517ZM96.0481 117.52L84.9028 125.114V119.515L96.0481 111.914V117.52ZM96.0481 118.309V123.915L84.9028 131.509V125.903L96.0481 118.309ZM84.327 131.904L73.1817 139.498V133.892L84.327 126.298V131.904ZM84.327 132.686V138.292L73.1817 145.886V140.28L84.327 132.686ZM84.327 139.081V144.687L73.1817 152.281V146.675L84.327 139.081ZM84.327 145.469V151.075L73.1817 158.669V153.063L84.327 145.469ZM84.327 151.864V157.47L73.1817 165.027V159.422L84.327 151.864ZM84.327 158.252V163.858L73.1817 171.452V165.831L84.327 158.252ZM84.327 164.647V170.253L73.1817 177.847V172.241L84.327 164.647ZM84.327 171.035V176.641L73.1817 184.235V178.629L84.327 171.035ZM84.327 177.431V183.036L73.1817 190.608V185.003L84.327 177.431ZM84.327 183.818V189.424L73.1817 197.018V191.412L84.327 183.818ZM84.9028 183.431L96.0481 175.83V181.436L84.9028 189.03V183.431ZM96.0481 182.225V187.831L84.9028 195.425V189.804L96.0481 182.225ZM96.624 181.83L107.769 174.237V179.842L96.624 187.436V181.83ZM108.345 173.798L119.49 166.204V171.81L108.345 179.404V173.798ZM120.066 165.81L131.211 158.216V163.822L120.066 171.415V165.81ZM131.787 157.828L142.933 150.227V155.833L131.787 163.427V157.828ZM143.508 149.84L154.654 142.246V147.852L143.508 155.446V149.84ZM155.23 141.851L166.375 134.257V139.863L155.23 147.457V141.851ZM166.926 133.892L178.071 126.291V131.897L166.926 139.49V133.892ZM166.926 133.103V127.497L178.071 119.903V125.509L166.926 133.103ZM178.69 119.515L189.836 111.914V117.52L178.69 125.114V119.515ZM178.69 118.726V113.135L189.836 105.541V111.147L178.69 118.726ZM178.69 112.331V106.732L189.836 99.1311V104.737L178.69 112.331ZM178.69 105.943V100.337L189.836 92.7432V98.349L178.69 105.943ZM178.69 99.5477V93.9491L189.836 86.3479V91.9392L178.69 99.5477ZM178.69 93.1598V87.5539L189.836 79.96V85.5659L178.69 93.1598ZM178.69 86.7645V81.166L189.836 73.5648V79.1707L178.69 86.7645ZM178.69 80.3766V74.7707L189.836 67.1769V72.7827L178.69 80.3766ZM178.69 73.9814V68.3828L189.836 60.7817V66.3583L178.69 73.9814ZM178.69 67.5935V61.973L189.836 54.3791V59.985L178.69 67.5935ZM178.69 61.1983V55.5997L189.836 47.9985V53.6044L178.69 61.1983ZM178.69 54.8103V49.2045L189.836 41.6106V47.2165L178.69 54.8103ZM178.108 55.205L166.963 62.7989V57.193L178.108 49.5991V55.205ZM166.393 63.1936L155.248 70.7874V65.1816L166.393 57.5877V63.1936ZM154.672 71.1748L143.527 78.776V73.1701L154.672 65.5762V71.1748ZM142.951 79.1634L131.806 86.7572V81.1587L142.951 73.5648V79.1634ZM131.23 87.1519L120.085 94.7458V89.1472L131.23 81.5533V87.1519ZM119.509 95.1405L108.364 102.734V97.1358L119.509 89.5419V95.1405ZM107.788 103.129L96.6425 110.723V105.095L107.788 97.5012V103.129ZM96.0667 111.118L84.9214 118.711V113.135L96.0667 105.534V111.118ZM84.327 119.106L73.1817 126.7V121.094L84.327 113.5V119.106ZM84.327 119.888V125.494L73.1817 133.088V127.482L84.327 119.888ZM61.4668 141.866L72.6121 134.272V139.878L61.4668 147.472V141.866ZM61.4668 148.254L72.6121 140.66V146.266L61.4668 153.86V148.254ZM61.4668 154.649L72.6121 147.055V152.661L61.4668 160.255V154.649ZM61.4668 161.037L72.6121 153.443V159.049L61.4668 166.643V161.037ZM61.4668 167.432L72.6121 159.838V165.444L61.4668 173.038V167.432ZM61.4668 173.82L72.6121 166.226V171.832L61.4668 179.426V173.82ZM61.4668 180.215L72.6121 172.621V178.227L61.4668 185.821V180.215ZM61.4668 186.603L72.6121 179.009V184.615L61.4668 192.209V186.603ZM61.4668 192.998L72.6121 185.405V191.01L61.4668 198.604V192.998ZM61.4668 199.386L72.6121 191.792V197.398L61.4668 204.992V199.386ZM61.4668 205.782L72.6121 198.188V203.764L61.4668 211.358V205.782ZM73.1817 197.793L84.327 190.199V195.805L73.1817 203.399V197.793ZM84.327 196.587V202.171L73.1817 209.772V204.181L84.327 196.587ZM84.9028 196.192L96.0481 188.598V194.19L84.9028 201.784V196.192ZM96.624 188.211L107.769 180.617V186.223L96.624 193.817V188.211ZM108.345 180.223L119.49 172.629V178.183L108.345 185.777V180.223ZM120.066 172.234L131.211 164.64V170.224L120.066 177.818V172.234ZM131.787 164.245L142.933 156.652V162.236L131.787 169.829V164.245ZM143.508 156.257L154.654 148.663V154.247L143.508 161.841V156.257ZM155.23 148.268L166.375 140.674V146.258L155.23 153.852V148.268ZM166.926 140.28L178.071 132.686V138.27L166.926 145.864V140.28ZM178.69 132.299L189.836 124.697V130.281L178.69 137.875V132.299ZM178.69 131.509V125.903L189.836 118.309V123.915L178.69 131.509ZM201.551 109.539L190.405 117.133V111.527L201.551 103.933V109.539ZM201.551 103.144L190.405 110.738V105.132L201.551 97.5451V103.144ZM201.551 96.7557L190.393 104.364V98.7583L201.538 91.1645L201.551 96.7557ZM201.551 90.3605L190.405 97.9544V92.3485L201.551 84.7546V90.3605ZM201.551 83.9726L190.405 91.5664V85.9606L201.551 78.3667V83.9726ZM201.551 77.5773L190.405 85.1712V79.5653L201.551 71.9715V77.5773ZM201.551 71.1894L190.393 78.7833V73.1774L201.538 65.5835L201.551 71.1894ZM201.551 64.7942L190.405 72.3881V66.7822L201.551 59.1883V64.7942ZM201.551 58.4063L190.405 66.0002V60.3943L201.551 52.8004V58.4063ZM201.551 52.0111L190.405 59.6049V53.9991L201.551 46.4052V52.0111ZM201.551 45.6231L190.393 53.2024V47.6111L201.538 40.0173L201.551 45.6231ZM201.551 39.2279L190.405 46.8218V41.2232L201.551 33.6293V39.2279ZM72.6059 121.489V127.095L61.4606 134.681V129.083L72.6059 121.489ZM61.4606 212.169L72.6059 204.576V210.16L61.4606 217.753V212.169ZM190.393 129.894V124.31L201.538 116.716V122.3L190.393 129.894Z" fill="#E0E0E0"/>
<path d="M154.92 71.3644L201.823 39.4248V71.3863L154.92 103.311V71.3644Z" fill="#FAFAFA"/>
<path d="M154.604 103.948V71.1531L154.759 71.0508L202.127 38.7969V71.5989L154.604 103.948ZM155.224 71.577V102.683L201.508 71.175V40.0467L155.224 71.577Z" fill="#E0E0E0"/>
<path d="M157.285 95.5932H157.211C157.153 95.5669 157.105 95.5148 157.079 95.448C157.052 95.3813 157.048 95.3049 157.069 95.2351L163.409 74.7703C163.421 74.7335 163.44 74.7003 163.465 74.6728C163.489 74.6454 163.518 74.6244 163.549 74.6112C163.581 74.5981 163.615 74.5931 163.648 74.5966C163.682 74.6001 163.714 74.612 163.743 74.6315L170.598 79.5138L177.514 71.1963C177.556 71.156 177.608 71.1339 177.663 71.1339C177.717 71.1339 177.769 71.156 177.811 71.1963L184.622 76.4806L191.538 56.3667C191.551 56.3318 191.57 56.3004 191.593 56.2743C191.616 56.2483 191.644 56.2281 191.674 56.2151C191.704 56.2021 191.736 56.1965 191.768 56.1987C191.8 56.2009 191.832 56.2108 191.86 56.2278L198.888 60.4816C198.915 60.4979 198.939 60.5203 198.958 60.5475C198.978 60.5747 198.993 60.6061 199.002 60.6401C199.011 60.674 199.014 60.7097 199.012 60.7452C199.009 60.7808 199.001 60.8153 198.987 60.847C198.973 60.8787 198.954 60.9068 198.931 60.9298C198.908 60.9529 198.882 60.9703 198.853 60.9812C198.824 60.992 198.794 60.9961 198.764 60.9931C198.734 60.9902 198.704 60.9803 198.678 60.964L191.867 56.8491L184.932 76.9995C184.919 77.0369 184.898 77.0701 184.873 77.0968C184.847 77.1234 184.816 77.1426 184.783 77.153C184.753 77.171 184.721 77.1803 184.687 77.1803C184.654 77.1803 184.621 77.171 184.591 77.153L177.718 71.8103L170.808 80.1204C170.771 80.1638 170.724 80.1917 170.672 80.1996C170.621 80.2075 170.568 80.1951 170.523 80.1643L163.756 75.3843L157.514 95.5055C157.486 95.5425 157.45 95.5701 157.41 95.5855C157.37 95.6009 157.327 95.6035 157.285 95.5932Z" fill="#455A64"/>
<path d="M163.626 73.9444C163.418 74.1044 163.246 74.3204 163.123 74.5746C163 74.8288 162.931 75.1139 162.92 75.4062C162.92 75.9397 163.236 76.137 163.626 75.8885C163.833 75.7282 164.005 75.512 164.128 75.2579C164.25 75.0038 164.32 74.719 164.332 74.4268C164.332 73.8932 164.016 73.6667 163.626 73.9444Z" fill="#FCD34D"/>
<path d="M170.641 78.8859C170.435 79.0472 170.263 79.2635 170.141 79.5174C170.018 79.7713 169.948 80.0558 169.936 80.3477C169.936 80.8812 170.251 81.0786 170.641 80.8301C170.848 80.6688 171.019 80.4525 171.142 80.1985C171.265 79.9446 171.335 79.6602 171.347 79.3683C171.36 78.8421 171.044 78.6228 170.641 78.8859Z" fill="#FCD34D"/>
<path d="M177.681 70.4152C177.475 70.5765 177.303 70.7928 177.181 71.0467C177.058 71.3006 176.988 71.585 176.976 71.877C176.976 72.4105 177.291 72.6078 177.681 72.3593C177.889 72.1989 178.061 71.9828 178.183 71.7287C178.306 71.4746 178.376 71.1898 178.387 70.8976C178.387 70.3713 178.072 70.1521 177.681 70.4152Z" fill="#FCD34D"/>
<path d="M184.709 75.8602C184.501 76.0202 184.329 76.2362 184.206 76.4904C184.083 76.7446 184.014 77.0297 184.003 77.322C184.003 77.8556 184.319 78.0529 184.709 77.8044C184.916 77.6445 185.089 77.4284 185.211 77.1742C185.334 76.92 185.404 76.635 185.415 76.3426C185.415 75.8602 185.099 75.6191 184.709 75.8602Z" fill="#FCD34D"/>
<path d="M191.736 55.4605C191.529 55.6204 191.356 55.8364 191.234 56.0906C191.111 56.3448 191.041 56.6299 191.03 56.9222C191.03 57.4558 191.346 57.6531 191.736 57.4046C191.943 57.2442 192.115 57.0281 192.238 56.774C192.361 56.5199 192.431 56.235 192.442 55.9429C192.442 55.3947 192.126 55.1901 191.736 55.4605Z" fill="#FCD34D"/>
<path d="M198.764 59.7146C198.557 59.8746 198.385 60.0906 198.262 60.3448C198.139 60.599 198.069 60.8841 198.059 61.1764C198.059 61.71 198.374 61.9073 198.764 61.6588C198.972 61.4988 199.144 61.2828 199.267 61.0286C199.39 60.7744 199.459 60.4893 199.47 60.197C199.47 59.6635 199.155 59.4442 198.764 59.7146Z" fill="#FCD34D"/>
<path d="M221.333 157.126L208.862 165.626L221.333 174.126L233.803 165.626L221.333 157.126Z" fill="#455A64"/>
<path d="M233.803 165.611V199.415L221.333 207.915V174.133L233.803 165.611Z" fill="black"/>
<path d="M221.333 174.133V207.915L208.862 199.415V165.611L221.333 174.133Z" fill="#263238"/>
<path d="M204.924 182.97L192.454 191.47L204.924 199.97L217.395 191.47L204.924 182.97Z" fill="#FCD34D"/>
<path opacity="0.3" d="M204.924 182.97L192.454 191.47L204.924 199.97L217.395 191.47L204.924 182.97Z" fill="white"/>
<path d="M217.395 191.448V210.597L204.925 219.098V199.97L217.395 191.448Z" fill="#FCD34D"/>
<path d="M204.924 199.971V219.098L192.454 210.598V191.456L204.924 199.971Z" fill="#FCD34D"/>
<path opacity="0.1" d="M204.924 199.971V219.098L192.454 210.598V191.456L204.924 199.971Z" fill="black"/>
<path d="M188.516 186.2L176.046 194.7L188.516 203.201L200.987 194.7L188.516 186.2Z" fill="#FCD34D"/>
<path opacity="0.88" d="M188.516 186.2L176.046 194.7L188.516 203.201L200.987 194.7L188.516 186.2Z" fill="white"/>
<path d="M200.987 194.687V221.78L188.517 230.281V203.201L200.987 194.687Z" fill="#FCD34D"/>
<path opacity="0.75" d="M200.987 194.687V221.78L188.517 230.281V203.201L200.987 194.687Z" fill="white"/>
<path d="M188.516 203.201V230.281L176.046 221.78V194.687L188.516 203.201Z" fill="#FCD34D"/>
<path opacity="0.6" d="M188.516 203.201V230.281L176.046 221.78V194.687L188.516 203.201Z" fill="white"/>
<path d="M172.108 214.91L159.638 223.41L172.108 231.91L184.578 223.41L172.108 214.91Z" fill="#FCD34D"/>
<path opacity="0.3" d="M172.108 214.91L159.638 223.41L172.108 231.91L184.578 223.41L172.108 214.91Z" fill="black"/>
<path d="M184.579 223.388V232.962L172.108 241.462V231.91L184.579 223.388Z" fill="#FCD34D"/>
<path opacity="0.4" d="M184.579 223.388V232.962L172.108 241.462V231.91L184.579 223.388Z" fill="black"/>
<path d="M172.108 231.91V241.462L159.638 232.962V223.388L172.108 231.91Z" fill="#FCD34D"/>
<path opacity="0.55" d="M172.108 231.91V241.462L159.638 232.962V223.388L172.108 231.91Z" fill="black"/>
<path d="M104.171 274.366V279.943L99.5088 264.982V259.42L104.171 274.366Z" fill="#263238"/>
<path d="M104.178 274.374V279.943L123.41 272.064V266.495L104.178 274.374Z" fill="black"/>
<path d="M99.5088 259.413L104.177 274.374L123.409 266.495C118.128 261.057 108.945 258.339 99.5088 259.413Z" fill="#455A64"/>
<path d="M79.4164 275.39C79.4133 275.446 79.4133 275.502 79.4164 275.559V275.39Z" fill="#FCD34D"/>
<path d="M102.258 281.397L99.4344 297.258C87.7752 295.913 79.3481 288.955 79.4472 280.995V275.572C79.4472 283.466 87.8495 290.358 99.4405 291.688L101.397 280.791L102.258 281.397Z" fill="#FCD34D"/>
<path opacity="0.4" d="M102.258 281.397L99.4344 297.258C87.7752 295.913 79.3481 288.955 79.4472 280.995V275.572C79.4472 283.466 87.8495 290.358 99.4405 291.688L101.397 280.791L102.258 281.397Z" fill="black"/>
<path d="M101.589 291.872V297.441C106.402 297.761 111.222 296.974 115.781 295.124C121.279 292.873 125.161 289.277 126.715 285.06C127.171 283.833 127.415 282.511 127.434 281.171C127.434 280.638 127.434 275.412 127.434 275.412C127.434 275.412 126.102 275.288 124.542 273.329L120.938 274.791L104.449 281.544L101.589 291.872Z" fill="#FCD34D"/>
<path opacity="0.6" d="M101.589 291.872V297.441C106.402 297.761 111.222 296.974 115.781 295.124C121.279 292.873 125.161 289.277 126.715 285.06C127.171 283.833 127.415 282.511 127.434 281.171C127.434 280.638 127.434 275.412 127.434 275.412C127.434 275.412 126.102 275.288 124.542 273.329L120.938 274.791L104.449 281.544L101.589 291.872Z" fill="white"/>
<path d="M87.2363 269.038L101.564 278.803V273.233L87.2363 263.469V269.038Z" fill="#FCD34D"/>
<path opacity="0.1" d="M87.2363 269.038L101.564 278.803V273.233L87.2363 263.469V269.038Z" fill="black"/>
<path d="M79.6206 273.563C78.0541 282.268 86.8713 290.242 99.4345 291.689L102.289 275.829L85.7072 264.529C82.215 267.095 80.2398 270.055 79.6206 273.563Z" fill="#FCD34D"/>
<path opacity="0.3" d="M79.6206 273.563C78.0541 282.268 86.8713 290.242 99.4345 291.689L102.289 275.829L85.7072 264.529C82.215 267.095 80.2398 270.055 79.6206 273.563Z" fill="black"/>
<path d="M101.669 291.411L101.589 291.871C106.4 292.2 111.22 291.424 115.781 289.584C121.279 287.332 125.161 283.737 126.715 279.519C128.177 275.521 127.403 271.385 124.542 267.825L120.938 269.287L104.449 276.04L101.669 291.411Z" fill="#FCD34D"/>
<path opacity="0.75" d="M101.669 291.411L101.589 291.871C106.4 292.2 111.22 291.424 115.781 289.584C121.279 287.332 125.161 283.737 126.715 279.519C128.177 275.521 127.403 271.385 124.542 267.825L120.938 269.287L104.449 276.04L101.669 291.411Z" fill="white"/>
<path d="M87.2363 263.47L101.564 273.234L97.3538 259.728C93.8168 260.239 90.3883 261.507 87.2363 263.47Z" fill="#FCD34D"/>
<path d="M102.258 281.397V275.828L99.3975 291.688V297.258L102.258 281.397Z" fill="#FCD34D"/>
<path opacity="0.55" d="M102.258 281.397V275.828L99.3975 291.688V297.258L102.258 281.397Z" fill="black"/>
<path d="M120.537 251.059L117.416 253.186L120.537 255.312L123.657 253.186L120.537 251.059Z" fill="#FCD34D"/>
<path opacity="0.3" d="M120.537 251.059L117.416 253.186L120.537 255.312L123.657 253.186L120.537 251.059Z" fill="black"/>
<path d="M123.657 253.186V255.32L120.536 257.447V255.312L123.657 253.186Z" fill="#FCD34D"/>
<path opacity="0.4" d="M123.657 253.186V255.32L120.536 257.447V255.312L123.657 253.186Z" fill="black"/>
<path d="M120.537 255.312V257.447L117.416 255.32V253.186L120.537 255.312Z" fill="#FCD34D"/>
<path opacity="0.55" d="M120.537 255.312V257.447L117.416 255.32V253.186L120.537 255.312Z" fill="black"/>
<path d="M125.304 249.407L136.871 241.528C137.242 241.295 137.655 241.17 138.076 241.161C138.497 241.152 138.913 241.26 139.292 241.477C139.911 241.916 139.911 242.654 139.211 243.129L127.645 251.008C127.273 251.239 126.86 251.364 126.44 251.373C126.019 251.381 125.603 251.274 125.224 251.059C124.58 250.62 124.611 249.882 125.304 249.407Z" fill="#E0E0E0"/>
<path d="M127.57 255.854L124.449 257.98L127.57 260.107L130.691 257.98L127.57 255.854Z" fill="#FCD34D"/>
<path opacity="0.88" d="M127.57 255.854L124.449 257.98L127.57 260.107L130.691 257.98L127.57 255.854Z" fill="white"/>
<path d="M130.691 257.973V260.107L127.57 262.234V260.107L130.691 257.973Z" fill="#FCD34D"/>
<path opacity="0.75" d="M130.691 257.973V260.107L127.57 262.234V260.107L130.691 257.973Z" fill="white"/>
<path d="M127.57 260.107V262.234L124.449 260.107V257.973L127.57 260.107Z" fill="#FCD34D"/>
<path opacity="0.6" d="M127.57 260.107V262.234L124.449 260.107V257.973L127.57 260.107Z" fill="white"/>
<path d="M132.338 254.194L143.898 246.315C144.269 246.081 144.682 245.954 145.102 245.944C145.523 245.934 145.94 246.041 146.319 246.257C146.969 246.703 146.938 247.441 146.245 247.908L134.678 255.802C134.306 256.033 133.893 256.158 133.473 256.167C133.053 256.176 132.636 256.068 132.257 255.853C131.632 255.407 131.632 254.669 132.338 254.194Z" fill="#E0E0E0"/>
<path d="M134.598 260.648L131.478 262.775L134.604 264.902L137.725 262.775L134.598 260.648Z" fill="#FCD34D"/>
<path opacity="0.3" d="M134.598 260.648L131.478 262.775L134.604 264.902L137.725 262.775L134.598 260.648Z" fill="white"/>
<path d="M137.725 262.768V264.902L134.604 267.029V264.902L137.725 262.768Z" fill="#FCD34D"/>
<path d="M134.604 264.902V267.029L131.478 264.902V262.768L134.604 264.902Z" fill="#FCD34D"/>
<path opacity="0.1" d="M134.604 264.902V267.029L131.478 264.902V262.768L134.604 264.902Z" fill="black"/>
<path d="M139.366 258.996L150.932 251.109C151.304 250.878 151.717 250.754 152.137 250.745C152.558 250.736 152.974 250.843 153.353 251.058C154.003 251.504 153.972 252.242 153.279 252.71L141.712 260.589C141.341 260.823 140.929 260.95 140.508 260.96C140.087 260.97 139.67 260.863 139.291 260.648C138.641 260.202 138.678 259.464 139.366 258.996Z" fill="#E0E0E0"/>
<path d="M141.631 265.436L138.511 267.562L141.631 269.689L144.752 267.562L141.631 265.436Z" fill="#455A64"/>
<path d="M144.753 267.562V269.697L141.632 271.823V269.689L144.753 267.562Z" fill="black"/>
<path d="M141.631 269.689V271.823L138.511 269.697V267.562L141.631 269.689Z" fill="#263238"/>
<path d="M146.4 263.791L157.966 255.904C158.338 255.673 158.751 255.548 159.172 255.54C159.592 255.531 160.008 255.638 160.387 255.853C161.037 256.292 161.006 257.03 160.307 257.505L148.747 265.384C148.375 265.617 147.962 265.742 147.541 265.751C147.121 265.76 146.704 265.652 146.326 265.435C145.675 264.997 145.713 264.258 146.4 263.791Z" fill="#E0E0E0"/>
<path d="M239.513 150.029C243.804 150.029 245.841 151.491 247.389 156.3C248.937 161.109 253.029 172.27 253.11 175.574C253.197 179.002 243.822 189.395 244.181 189.219C244.28 189.161 241.327 182.919 241.327 182.919L246.59 175.311L243.575 164.983L239.513 150.029Z" fill="#FFA8A7"/>
<path d="M244.825 263.587C245.091 263.887 245.14 264.172 245.128 265.254C245.116 266.335 245.506 267.541 245.035 268.55C244.688 269.281 242.893 269.822 241.983 269.281C241.189 268.668 240.479 267.916 239.877 267.052C239.311 266.29 238.69 265.588 238.02 264.954C237.246 264.274 236.348 263.821 235.543 263.2C234.912 262.718 234.382 262.072 233.994 261.312C233.606 260.553 233.369 259.698 233.302 258.815C233.25 258.238 233.349 257.656 233.586 257.148C233.779 256.876 234.033 256.672 234.318 256.561C234.604 256.45 234.91 256.436 235.202 256.52C236.075 256.688 239.035 258.639 239.716 259.195C240.608 259.882 244.552 263.28 244.825 263.587Z" fill="#263238"/>
<path d="M240.478 259.114C240.447 259.888 237.68 258.076 236.547 258.251H236.516C235.457 258.851 236.336 260.597 237.314 261.489C238.293 262.381 241.5 265.144 241.5 265.144L242.156 260.663L240.478 259.114Z" fill="#FFA8A7"/>
<path d="M228.467 271.736C228.981 271.736 229.21 273.724 229.309 275.252C229.377 276.436 229.761 278.373 229.402 279.243C229.042 280.112 227.699 280.653 225.612 280.602C224.256 280.602 222.139 281.618 220.69 282.546C219.231 283.375 217.583 283.619 215.996 283.24C214.139 282.955 212.232 281.654 211.941 280.748C211.65 279.842 212.046 279.403 216.442 277.269C216.485 277.269 221.086 274.879 223.253 272.153L228.467 271.736Z" fill="#263238"/>
<path d="M216.461 277.268C215.841 277.561 215.327 277.824 214.863 278.058C214.745 278.548 214.906 279.33 216.851 279.71C219.81 280.294 228.516 272.554 228.516 272.554C228.516 272.554 227.278 272.964 227.036 272.123H223.253C221.086 274.878 216.461 277.247 216.461 277.268Z" fill="#FFA8A7"/>
<path d="M246.59 238.167C246.636 234.76 246.349 231.359 245.736 228.03C245.736 228.03 246.256 214.976 246.311 206.776C246.429 190.55 246.169 188.167 243.129 181.195C243.129 181.195 225.377 178.746 224.628 188.957C223.699 201.674 222.615 222.95 222.64 229.009C222.64 233.519 223.098 238.408 223.309 248.633C223.445 255.211 224.027 264.435 223.234 272.182C224.238 274.17 226.95 274.134 228.498 272.584C228.943 264.998 232.138 250.468 232.634 245.403C232.902 241.744 232.773 238.06 232.25 234.44C232.25 234.44 234.603 212.776 235.018 209.48C235.62 212.966 235.964 216.507 236.045 220.063C236.045 221.525 236.466 226.327 237.166 234.44C237.593 239.38 240.553 258.69 241.197 264.895C242.683 266.591 244.602 265.422 244.689 264.691C245.184 257.119 246.59 242.896 246.59 238.167Z" fill="#FFA8A7"/>
<path opacity="0.15" d="M235.036 209.458L236.603 198.94C239.275 198.453 241.734 196.931 243.593 194.613C243.593 194.613 242.652 198.816 238.021 200.248L236.163 209.75L235.853 218.425L235.036 209.458Z" fill="black"/>
<path d="M230.565 146.5L231.302 156.03L238.398 155.526L237.853 144.95L230.565 146.5Z" fill="#FFA8A7"/>
<path d="M244.806 183.73C243.993 181.194 242.955 178.767 241.71 176.487C244.744 164.954 245.716 161.073 245.128 156.14C244.751 153.004 242.652 149.869 240.076 150.037H238.131C238.02 152.229 232.875 152.324 230.924 150.819L229.122 150.877C227.853 151.411 223.55 158.917 223.054 163.85C222.664 167.878 225.345 171.371 225.345 171.371C225.355 173.081 225.27 174.79 225.092 176.487C225.092 176.487 225.092 186.245 225.092 191.105C225.092 191.105 226.088 194.847 236.503 193.678C245.791 192.64 245.989 188.905 245.989 188.905C245.767 187.132 245.37 185.395 244.806 183.73Z" fill="#FCD34D"/>
<g opacity="0.3">
<path opacity="0.3" d="M244.806 183.73C243.993 181.194 242.955 178.767 241.71 176.487C244.744 164.954 245.716 161.073 245.128 156.14C244.751 153.004 242.652 149.869 240.076 150.037H238.131C238.02 152.229 232.875 152.324 230.924 150.819L229.122 150.877C227.853 151.411 223.55 158.917 223.054 163.85C222.664 167.878 225.345 171.371 225.345 171.371C225.355 173.081 225.27 174.79 225.092 176.487C225.092 176.487 225.092 186.245 225.092 191.105C225.092 191.105 226.088 194.847 236.503 193.678C245.791 192.64 245.989 188.905 245.989 188.905C245.767 187.132 245.37 185.395 244.806 183.73Z" fill="black"/>
</g>
<path d="M231.637 124.193C230.59 124.031 229.526 124.168 228.533 124.593C227.541 125.018 226.649 125.718 225.934 126.634C222.306 131.458 226.287 135.01 226.287 135.01L231.637 124.193Z" fill="#263238"/>
<path d="M225.327 136.019C225.327 136.019 223.748 138.818 223.953 139.117C224.319 139.404 224.726 139.612 225.154 139.731L225.327 136.019Z" fill="#F28F8F"/>
<path d="M230.144 127.152C228.615 128.081 225.971 129.791 225.277 136.427C224.565 143.246 225.847 145.615 226.633 146.514C227.16 147.12 229.903 147.347 231.333 146.828C233.129 146.177 237.011 143.904 238.831 140.411C240.98 136.281 241.438 130.763 238.974 128.592C235.506 125.559 231.438 126.37 230.144 127.152Z" fill="#FFA8A7"/>
<path d="M229.383 134.995C226.181 133.073 226.999 128.059 226.999 128.059C226.999 128.059 231.568 120.348 240.001 125.333C242.918 127.058 244.67 130.975 244.602 135.565C244.602 138.43 243.638 141.178 241.922 143.204C240.205 145.23 237.878 146.368 235.451 146.368C234.035 146.368 232.677 145.704 231.676 144.523C230.675 143.341 230.113 141.739 230.113 140.068V139.651L230.386 139.753C230.821 139.875 231.275 139.867 231.707 139.731C232.14 139.594 232.536 139.333 232.862 138.971C234.268 137.509 234.435 134.739 232.658 134.038C230.881 133.336 229.958 135.792 229.958 135.792L229.271 137.985C229.105 137.914 228.953 137.805 228.823 137.664C228.692 137.524 228.587 137.354 228.512 137.165C228.437 136.977 228.395 136.773 228.387 136.564C228.379 136.356 228.406 136.148 228.466 135.953C228.541 135.717 228.664 135.506 228.823 135.339C228.983 135.173 229.175 135.054 229.383 134.995Z" fill="#263238"/>
<path d="M210.033 136.53L194.813 145.527L201.971 169.873L216.188 160.839L210.033 136.53Z" fill="#FCD34D"/>
<path d="M209.309 138.884L196.541 146.434L202.881 167.374L214.807 159.794L209.309 138.884Z" fill="#F5F5F5"/>
<path opacity="0.15" d="M206.609 141.076L206.374 140.345C206.244 139.936 205.185 140.163 204.009 140.85L201.761 142.158C200.591 142.845 199.743 143.737 199.873 144.153L200.108 144.884L206.609 141.076Z" fill="black"/>
<path d="M206.405 138.116C206.324 137.853 205.866 137.89 205.377 138.189L204.498 138.723C204.498 138.723 203.984 137.115 201.959 138.182C199.934 139.249 200.368 141.106 200.368 141.106L199.433 141.69C198.919 142.012 198.547 142.487 198.603 142.743L198.708 143.218L206.553 138.591L206.405 138.116Z" fill="black"/>
<path d="M205.551 139.168C204.82 139.578 204.535 139.775 204.733 140.411C204.931 141.047 205.173 141.653 205.173 141.653L201.705 143.707C201.705 143.707 201.433 142.786 201.309 142.435C201.185 142.084 200.944 141.902 200.393 142.231L200.188 141.968L205.662 138.817L205.551 139.168Z" fill="#263238"/>
<path d="M206.752 141.12L206.522 140.389C206.392 139.98 205.334 140.199 204.157 140.886L201.91 142.202C200.733 142.889 199.891 143.781 200.021 144.19L200.25 144.921L206.752 141.12Z" fill="black"/>
<path d="M229.104 150.877C226.707 150.833 225.258 151.081 221.989 156.812C218.72 162.542 212.652 173.066 211.946 174.462C210.955 176.363 210.708 179.279 211.537 181.04C212.287 182.699 213.612 183.277 217.382 178.548C220.169 175.047 226.051 165.75 226.051 165.75C226.051 165.75 230.602 155.73 229.104 150.877Z" fill="#FFA8A7"/>
<path d="M213.024 182.262C211.049 182.992 203.798 172.804 201.786 169.742C200.166 167.19 198.263 164.909 196.126 162.959C193.334 160.437 193.798 156.659 195.08 153.216C195.526 152.018 196.937 152.829 196.937 152.829L197.427 154.488L198.269 157.36C198.857 158.025 199.197 158.245 199.235 158.047C199.315 157.682 198.826 156.14 198.857 154.539C198.9 152.617 200.027 153.903 200.355 154.583C200.807 155.618 201.194 156.69 201.513 157.792C202.058 159.524 201.798 161.256 202.479 162.447C203.16 163.639 213.005 173.286 213.005 173.286L213.024 182.262Z" fill="#FFA8A7"/>
<path d="M241.735 176.487C241.735 176.487 234.794 181.326 225.073 176.487C224.206 182.507 223.617 188.577 223.309 194.672C222.962 202.434 222.2 219.091 222.2 219.091C222.2 219.091 225.067 223.045 235.308 222.241C245.153 221.51 246.887 218.44 246.887 218.44C246.887 218.44 246.887 203.479 246.961 196.937C247.029 188.576 246.039 184.03 241.735 176.487Z" fill="#FCD34D"/>
<path opacity="0.5" d="M241.735 176.487C241.735 176.487 234.794 181.326 225.073 176.487C224.206 182.507 223.617 188.577 223.309 194.672C222.962 202.434 222.2 219.091 222.2 219.091C222.2 219.091 225.067 223.045 235.308 222.241C245.153 221.51 246.887 218.44 246.887 218.44C246.887 218.44 246.887 203.479 246.961 196.937C247.029 188.576 246.039 184.03 241.735 176.487Z" fill="black"/>
<path d="M244.942 132.35L246.571 130.596C246.352 130.318 246.06 130.135 245.743 130.078C245.425 130.021 245.101 130.092 244.821 130.28C244.542 130.468 244.325 130.761 244.206 131.113C244.086 131.465 244.071 131.855 244.162 132.218C243.964 132.218 243.76 132.182 243.543 132.182V147.589C243.543 149.714 244.256 151.754 245.527 153.261C246.798 154.767 248.522 155.619 250.323 155.628V140.177C250.317 138.344 249.78 136.568 248.801 135.144C247.822 133.721 246.461 132.735 244.942 132.35Z" fill="#263238"/>
</svg>
